<svg width="232" height="176" viewBox="0 0 232 176" fill="none" xmlns="http://www.w3.org/2000/svg"><path d="M7.92 20.24c-1.4 0-2.62667-.3067-3.68-.92-1.04-.6133-1.86-1.46-2.46-2.54C1.19333 15.6867.9 14.4267.9 13c0-1.4267.29333-2.68.88-3.76.6-1.09333 1.42-1.94667 2.46-2.56 1.05333-.61333 2.28-.92 3.68-.92 1.38667 0 2.6067.30667 3.66.92 1.0533.61333 1.8733 1.46667 2.46 2.56.5867 1.08.88 2.3333.88 3.76 0 1.3333-.26 2.5267-.78 3.58-.52 1.04-1.24 1.8667-2.16 2.48l3.24 3.48h-3.18l-2.2-2.52c-.61333.1467-1.25333.22-1.92.22zm0-2.3c1.33333 0 2.3933-.44 3.18-1.32.8-.88 1.2-2.0867 1.2-3.62s-.4-2.74-1.2-3.62c-.7867-.88-1.84667-1.32-3.18-1.32-1.33333 0-2.4.44-3.2 1.32-.8.88-1.2 2.0867-1.2 3.62s.4 2.74 1.2 3.62c.8.88 1.86667 1.32 3.2 1.32zm13.0766 2.3c-1.24 0-2.2-.3867-2.88-1.16-.6667-.7733-1-1.9067-1-3.4v-5.6h2.54v5.36c0 .8533.1733 1.5067.52 1.96.3466.4533.8933.68 1.64.68.7066 0 1.2866-.2533 1.74-.76.4666-.5067.7-1.2133.7-2.12v-5.12h2.56V20h-2.26l-.2-1.68c-.3067.5867-.7534 1.0533-1.34 1.4-.5734.3467-1.2467.52-2.02.52zm9.8279-11.7c-.4666 0-.8533-.14-1.16-.42-.2933-.28-.44-.63333-.44-1.06 0-.42667.1467-.77333.44-1.04.3067-.28.6934-.42 1.16-.42.4667 0 .8467.14 1.14.42.3067.26667.46.61333.46 1.04s-.1533.78-.46 1.06c-.2933.28-.6733.42-1.14.42zM29.5445 20v-9.92h2.56V20h-2.56zm4.5921 0v-2.06l5.06-5.74h-5v-2.12h7.92v2.06l-5.14 5.74h5.24V20h-8.08zm9.5703 0v-2.06l5.06-5.74h-5v-2.12h7.92v2.06l-5.14 5.74h5.24V20h-8.08zm15.0303.24c-1 0-1.8867-.2133-2.66-.64-.7733-.4267-1.38-1.0267-1.82-1.8-.44-.7733-.66-1.6667-.66-2.68 0-1.0267.2133-1.94.64-2.74.44-.8 1.04-1.42 1.8-1.86.7733-.4533 1.68-.68 2.72-.68.9733 0 1.8333.2133 2.58.64.7467.4267 1.3267 1.0133 1.74 1.76.4267.7333.64 1.5533.64 2.46 0 .1467-.0067.3-.02.46 0 .16-.0067.3267-.02.5h-7.54c.0533.7733.32 1.38.8 1.82.4933.44 1.0867.66 1.78.66.52 0 .9533-.1133 1.3-.34.36-.24.6267-.5467.8-.92h2.6c-.1867.6267-.5 1.2-.94 1.72-.4267.5067-.96.9067-1.6 1.2-.6267.2933-1.34.44-2.14.44zm.02-8.32c-.6267 0-1.18.18-1.66.54-.48.3467-.7867.88-.92 1.6h4.94c-.04-.6533-.28-1.1733-.72-1.56-.44-.3867-.9867-.58-1.64-.58zm11.2131 8.32c-.88 0-1.6533-.14-2.32-.42-.6667-.2933-1.2-.6933-1.6-1.2-.4-.5067-.64-1.0933-.72-1.76h2.58c.08.3867.2933.72.64 1 .36.2667.82.4 1.38.4.56 0 .9667-.1133 1.22-.34.2667-.2267.4-.4867.4-.78 0-.4267-.1867-.7133-.56-.86-.3733-.16-.8933-.3133-1.56-.46-.4267-.0933-.86-.2067-1.3-.34-.44-.1333-.8467-.3-1.22-.5-.36-.2133-.6533-.48-.88-.8-.2267-.3333-.34-.74-.34-1.22 0-.88.3467-1.62 1.04-2.22.7067-.6 1.6933-.9 2.96-.9 1.1733 0 2.1067.2733 2.8.82.7067.5467 1.1267 1.3 1.26 2.26h-2.42c-.1467-.7333-.7-1.1-1.66-1.1-.48 0-.8533.0933-1.12.28-.2533.1867-.38.42-.38.7 0 .2933.1933.5267.58.7.3867.1733.9.3333 1.54.48.6933.16 1.3267.34 1.9.54.5867.1867 1.0533.4733 1.4.86.3467.3733.52.9133.52 1.62.0133.6133-.1467 1.1667-.48 1.66-.3333.4933-.8133.88-1.44 1.16-.6267.28-1.3667.42-2.22.42zm14.5935 0c-.8534 0-1.5534-.1333-2.1-.4-.5467-.28-.9534-.6467-1.22-1.1-.2667-.4533-.4-.9533-.4-1.5 0-.92.36-1.6667 1.08-2.24.72-.5733 1.8-.86 3.24-.86h2.52v-.24c0-.68-.1934-1.18-.58-1.5-.3867-.32-.8667-.48-1.44-.48-.52 0-.9734.1267-1.36.38-.3867.24-.6267.6-.72 1.08h-2.5c.0666-.72.3066-1.3467.72-1.88.4266-.5333.9733-.94 1.64-1.22.6666-.29333 1.4133-.44 2.24-.44 1.4133 0 2.5266.3533 3.34 1.06.8133.7067 1.22 1.7067 1.22 3V20h-2.18l-.24-1.6c-.2934.5333-.7067.9733-1.24 1.32-.52.3467-1.1934.52-2.02.52zm.58-2c.7333 0 1.3-.24 1.7-.72.4133-.48.6733-1.0733.78-1.78h-2.18c-.68 0-1.1667.1267-1.46.38-.2934.24-.44.54-.44.9 0 .3867.1466.6867.44.9.2933.2133.68.32 1.16.32zM92.6867 20v-9.92h2.26l.2 1.68c.3067-.5867.7467-1.0533 1.32-1.4.5867-.3467 1.2734-.52 2.06-.52 1.2267 0 2.1803.3867 2.8603 1.16.68.7733 1.02 1.9067 1.02 3.4V20h-2.5603v-5.36c0-.8533-.1733-1.5067-.52-1.96-.3466-.4533-.8866-.68-1.62-.68-.72 0-1.3133.2533-1.78.76-.4533.5067-.68 1.2133-.68 2.12V20h-2.56zm16.7283.24c-.934 0-1.767-.2267-2.5-.68-.734-.4533-1.314-1.0733-1.74-1.86-.427-.7867-.64-1.68-.64-2.68 0-1 .213-1.8867.64-2.66.426-.7867 1.006-1.4 1.74-1.84.733-.4533 1.566-.68 2.5-.68.746 0 1.4.14 1.96.42.56.28 1.013.6733 1.36 1.18V5.6h2.56V20h-2.28l-.28-1.42c-.32.44-.747.8267-1.28 1.16-.52.3333-1.2.5-2.04.5zm.54-2.24c.826 0 1.5-.2733 2.02-.82.533-.56.8-1.2733.8-2.14s-.267-1.5733-.8-2.12c-.52-.56-1.194-.84-2.02-.84-.814 0-1.487.2733-2.02.82-.534.5467-.8 1.2533-.8 2.12s.266 1.58.8 2.14c.533.56 1.206.84 2.02.84zm16.132 2.24c-.853 0-1.553-.1333-2.1-.4-.546-.28-.953-.6467-1.22-1.1-.266-.4533-.4-.9533-.4-1.5 0-.92.36-1.6667 1.08-2.24.72-.5733 1.8-.86 3.24-.86h2.52v-.24c0-.68-.193-1.18-.58-1.5-.386-.32-.866-.48-1.44-.48-.52 0-.973.1267-1.36.38-.386.24-.626.6-.72 1.08h-2.5c.067-.72.307-1.3467.72-1.88.427-.5333.974-.94 1.64-1.22.667-.29333 1.414-.44 2.24-.44 1.414 0 2.527.3533 3.34 1.06.814.7067 1.22 1.7067 1.22 3V20h-2.18l-.24-1.6c-.293.5333-.706.9733-1.24 1.32-.52.3467-1.193.52-2.02.52zm.58-2c.734 0 1.3-.24 1.7-.72.414-.48.674-1.0733.78-1.78h-2.18c-.68 0-1.166.1267-1.46.38-.293.24-.44.54-.44.9 0 .3867.147.6867.44.9.294.2133.68.32 1.16.32zm12.403 2c-1.013 0-1.907-.22-2.68-.66-.773-.44-1.387-1.0533-1.84-1.84-.44-.7867-.66-1.6867-.66-2.7s.22-1.9133.66-2.7c.453-.7867 1.067-1.4 1.84-1.84.773-.44 1.667-.66 2.68-.66 1.267 0 2.333.3333 3.2 1 .867.6533 1.42 1.56 1.66 2.72h-2.7c-.133-.48-.4-.8533-.8-1.12-.387-.28-.847-.42-1.38-.42-.707 0-1.307.2667-1.8.8-.493.5333-.74 1.2733-.74 2.22 0 .9467.247 1.6867.74 2.22.493.5333 1.093.8 1.8.8.533 0 .993-.1333 1.38-.4.4-.2667.667-.6467.8-1.14h2.7c-.24 1.12-.793 2.02-1.66 2.7-.867.68-1.933 1.02-3.2 1.02zm11.416-.24c-1.04 0-1.874-.2533-2.5-.76-.627-.5067-.94-1.4067-.94-2.7v-4.32h-1.7v-2.14h1.7l.3-2.66h2.26v2.66h2.68v2.14h-2.68v4.34c0 .48.1.8133.3 1 .213.1733.573.26 1.08.26h1.24V20h-1.74zm5.378-11.46c-.467 0-.854-.14-1.16-.42-.294-.28-.44-.63333-.44-1.06 0-.42667.146-.77333.44-1.04.306-.28.693-.42 1.16-.42.466 0 .846.14 1.14.42.306.26667.46.61333.46 1.04s-.154.78-.46 1.06c-.294.28-.674.42-1.14.42zM154.584 20v-9.92h2.56V20h-2.56zm9.992.24c-.96 0-1.827-.22-2.6-.66-.76-.44-1.367-1.0467-1.82-1.82-.44-.7867-.66-1.6933-.66-2.72 0-1.0267.226-1.9267.68-2.7.453-.7867 1.06-1.4 1.82-1.84.773-.44 1.64-.66 2.6-.66.946 0 1.8.22 2.56.66.773.44 1.38 1.0533 1.82 1.84.453.7733.68 1.6733.68 2.7 0 1.0267-.227 1.9333-.68 2.72-.44.7733-1.047 1.38-1.82 1.82-.774.44-1.634.66-2.58.66zm0-2.22c.666 0 1.246-.2467 1.74-.74.493-.5067.74-1.2533.74-2.24 0-.9867-.247-1.7267-.74-2.22-.494-.5067-1.067-.76-1.72-.76-.68 0-1.267.2533-1.76.76-.48.4933-.72 1.2333-.72 2.22 0 .9867.24 1.7333.72 2.24.493.4933 1.073.74 1.74.74zm7.369 1.98v-9.92h2.26l.2 1.68c.306-.5867.746-1.0533 1.32-1.4.586-.3467 1.273-.52 2.06-.52 1.226 0 2.18.3867 2.86 1.16.68.7733 1.02 1.9067 1.02 3.4V20h-2.56v-5.36c0-.8533-.174-1.5067-.52-1.96-.347-.4533-.887-.68-1.62-.68-.72 0-1.314.2533-1.78.76-.454.5067-.68 1.2133-.68 2.12V20h-2.56zm16.268.24c-.88 0-1.654-.14-2.32-.42-.667-.2933-1.2-.6933-1.6-1.2-.4-.5067-.64-1.0933-.72-1.76h2.58c.08.3867.293.72.64 1 .36.2667.82.4 1.38.4.56 0 .966-.1133 1.22-.34.266-.2267.4-.4867.4-.78 0-.4267-.187-.7133-.56-.86-.374-.16-.894-.3133-1.56-.46-.427-.0933-.86-.2067-1.3-.34-.44-.1333-.847-.3-1.22-.5-.36-.2133-.654-.48-.88-.8-.227-.3333-.34-.74-.34-1.22 0-.88.346-1.62 1.04-2.22.706-.6 1.693-.9 2.96-.9 1.173 0 2.106.2733 2.8.82.706.5467 1.126 1.3 1.26 2.26h-2.42c-.147-.7333-.7-1.1-1.66-1.1-.48 0-.854.0933-1.12.28-.254.1867-.38.42-.38.7 0 .2933.193.5267.58.7.386.1733.9.3333 1.54.48.693.16 1.326.34 1.9.54.586.1867 1.053.4733 1.4.86.346.3733.52.9133.52 1.62.013.6133-.147 1.1667-.48 1.66-.334.4933-.814.88-1.44 1.16-.627.28-1.367.42-2.22.42zM3.488 73.016L.416 61.8h1.44l2.416 9.616L7.024 61.8h1.488l2.672 9.616 2.448-9.616h1.44L11.936 73H10.4l-2.672-9.248L4.992 73l-1.504.016zm15.8403.176c-.7574 0-1.4294-.1707-2.016-.512-.5867-.352-1.0507-.8373-1.392-1.456-.3307-.6187-.496-1.3493-.496-2.192 0-.832.1653-1.5573.496-2.176.3306-.6293.7893-1.1147 1.376-1.456.5973-.352 1.2853-.528 2.0639-.528.7681 0 1.4294.176 1.9841.528.5653.3413.9973.7947 1.296 1.36.2986.5653.448 1.1733.448 1.824 0 .1173-.0054.2347-.016.352v.4h-6.32c.032.608.1706 1.1147.416 1.52.256.3947.5706.6933.944.896.384.2027.7893.304 1.216.304.5546 0 1.0186-.128 1.392-.384.3733-.256.6453-.6027.816-1.04h1.328c-.2134.736-.624 1.3493-1.232 1.84-.5974.48-1.3654.72-2.304.72zm0-7.184c-.64 0-1.2107.1973-1.712.592-.4907.384-.7734.9493-.8481 1.696h4.9921c-.032-.7147-.2774-1.2747-.736-1.68-.4587-.4053-1.024-.608-1.696-.608zM29.104 73V61.48h1.344v6.928l3.248-3.344h1.648l-3.52 3.584L35.792 73H34.08l-3.632-4.112V73h-1.344zm8.0625 0v-7.936h1.216l.08 1.424c.256-.5013.624-.896 1.104-1.184.48-.288 1.024-.432 1.632-.432.9387 0 1.6853.288 2.24.864.5653.5653.848 1.44.848 2.624V73h-1.344v-4.496c0-1.6533-.6827-2.48-2.048-2.48-.6827 0-1.2533.2507-1.712.752-.448.4907-.672 1.1947-.672 2.112V73h-1.344zm12.7723.192c-.7467 0-1.4187-.1707-2.016-.512-.5974-.3413-1.072-.8213-1.424-1.44-.3414-.6293-.512-1.3653-.512-2.208 0-.8427.176-1.5733.528-2.192.352-.6293.8266-1.1147 1.424-1.456.608-.3413 1.2853-.512 2.032-.512.7466 0 1.4186.1707 2.016.512.5973.3413 1.0666.8267 1.408 1.456.352.6187.528 1.3493.528 2.192 0 .8427-.176 1.5787-.528 2.208-.352.6187-.832 1.0987-1.44 1.44-.5974.3413-1.2694.512-2.016.512zm0-1.152c.4586 0 .8853-.112 1.28-.336.3946-.224.7146-.56.96-1.008.2453-.448.368-1.0027.368-1.664s-.1227-1.216-.368-1.664c-.2347-.448-.5494-.784-.944-1.008-.3947-.224-.816-.336-1.264-.336-.4587 0-.8854.112-1.28.336-.3947.224-.7147.56-.96 1.008-.2454.448-.368 1.0027-.368 1.664s.1226 1.216.368 1.664c.2453.448.56.784.944 1.008.3946.224.816.336 1.264.336zm7.1558.96l-2.32-7.936h1.344l1.68 6.224 1.856-6.224h1.52l1.872 6.224 1.664-6.224h1.36L63.7506 73h-1.376l-1.952-6.544L58.4706 73h-1.376zm18.3129.192c-.7467 0-1.4187-.1707-2.016-.512-.5973-.3413-1.072-.8213-1.424-1.44-.3413-.6293-.512-1.3653-.512-2.208 0-.8427.176-1.5733.528-2.192.352-.6293.8267-1.1147 1.424-1.456.608-.3413 1.2853-.512 2.032-.512.7467 0 1.4187.1707 2.016.512.5973.3413 1.0667.8267 1.408 1.456.352.6187.528 1.3493.528 2.192 0 .8427-.176 1.5787-.528 2.208-.352.6187-.832 1.0987-1.44 1.44-.5973.3413-1.2693.512-2.016.512zm0-1.152c.4587 0 .8853-.112 1.28-.336.3947-.224.7147-.56.96-1.008.2453-.448.368-1.0027.368-1.664s-.1227-1.216-.368-1.664c-.2347-.448-.5493-.784-.944-1.008-.3947-.224-.816-.336-1.264-.336-.4587 0-.8853.112-1.28.336-.3947.224-.7147.56-.96 1.008-.2453.448-.368 1.0027-.368 1.664s.1227 1.216.368 1.664c.2453.448.56.784.944 1.008.3947.224.816.336 1.264.336zm8.7487 1.152c-.9386 0-1.6853-.2827-2.2399-.848-.5547-.576-.832-1.456-.832-2.64v-4.64h1.344v4.496c0 1.6533.6773 2.48 2.032 2.48.6933 0 1.264-.2453 1.712-.736.4586-.5013.688-1.2107.688-2.128v-4.112h1.344V73h-1.216l-.096-1.424c-.2454.5013-.6134.896-1.104 1.184-.48.288-1.024.432-1.6321.432zM90.4165 73v-7.936h1.216l.112 1.52c.2453-.5227.6187-.9387 1.12-1.248.5013-.3093 1.12-.464 1.856-.464v1.408h-.368c-.4693 0-.9013.0853-1.296.256-.3947.16-.7093.4373-.944.832-.2347.3947-.352.9387-.352 1.632v4h-1.344zm13.6945.192c-.757 0-1.44-.1707-2.048-.512-.597-.352-1.072-.8373-1.424-1.456-.341-.6293-.512-1.36-.512-2.192 0-.832.171-1.5573.512-2.176.352-.6293.827-1.1147 1.424-1.456.608-.352 1.291-.528 2.048-.528.939 0 1.728.2453 2.368.736.651.4907 1.062 1.1467 1.232 1.968h-1.376c-.106-.4907-.368-.8693-.784-1.136-.416-.2773-.901-.416-1.456-.416-.448 0-.869.112-1.264.336-.394.224-.714.56-.96 1.008-.245.448-.368 1.0027-.368 1.664s.123 1.216.368 1.664c.246.448.566.7893.96 1.024.395.224.816.336 1.264.336.555 0 1.04-.1333 1.456-.4.416-.2773.678-.6667.784-1.168h1.376c-.16.8-.565 1.4507-1.216 1.952-.65.5013-1.445.752-2.384.752zm8.373 0c-.938 0-1.685-.2827-2.24-.848-.554-.576-.832-1.456-.832-2.64v-4.64h1.344v4.496c0 1.6533.678 2.48 2.032 2.48.694 0 1.264-.2453 1.712-.736.459-.5013.688-1.2107.688-2.128v-4.112h1.344V73h-1.216l-.096-1.424c-.245.5013-.613.896-1.104 1.184-.48.288-1.024.432-1.632.432zm9.301 0c-.95 0-1.739-.24-2.368-.72-.63-.48-.998-1.1307-1.104-1.952h1.376c.085.416.304.7787.656 1.088.362.2987.848.448 1.456.448.565 0 .981-.1173 1.248-.352.266-.2453.4-.5333.4-.864 0-.48-.176-.8-.528-.96-.342-.16-.827-.304-1.456-.432-.427-.0853-.854-.208-1.28-.368-.427-.16-.784-.384-1.072-.672-.288-.2987-.432-.688-.432-1.168 0-.6933.256-1.2587.768-1.696.522-.448 1.226-.672 2.112-.672.842 0 1.53.2133 2.064.64.544.416.858 1.0133.944 1.792h-1.328c-.054-.4053-.23-.72-.528-.944-.288-.2347-.678-.352-1.168-.352-.48 0-.854.1013-1.12.304-.256.2027-.384.4693-.384.8 0 .32.165.5707.496.752.341.1813.8.336 1.376.464.49.1067.954.24 1.392.4.448.1493.81.3787 1.088.688.288.2987.432.736.432 1.312.01.7147-.262 1.3067-.816 1.776-.544.4587-1.286.688-2.224.688zm7.736-.192c-.725 0-1.296-.176-1.712-.528-.416-.352-.624-.9867-.624-1.904V66.2h-1.376v-1.136h1.376l.176-1.904h1.168v1.904h2.336V66.2h-2.336v4.368c0 .5013.102.8427.304 1.024.203.1707.56.256 1.072.256h.832V73h-1.216zm6.449.192c-.747 0-1.419-.1707-2.016-.512-.597-.3413-1.072-.8213-1.424-1.44-.341-.6293-.512-1.3653-.512-2.208 0-.8427.176-1.5733.528-2.192.352-.6293.827-1.1147 1.424-1.456.608-.3413 1.285-.512 2.032-.512.747 0 1.419.1707 2.016.512.597.3413 1.067.8267 1.408 1.456.352.6187.528 1.3493.528 2.192 0 .8427-.176 1.5787-.528 2.208-.352.6187-.832 1.0987-1.44 1.44-.597.3413-1.269.512-2.016.512zm0-1.152c.459 0 .885-.112 1.28-.336.395-.224.715-.56.96-1.008.245-.448.368-1.0027.368-1.664s-.123-1.216-.368-1.664c-.235-.448-.549-.784-.944-1.008-.395-.224-.816-.336-1.264-.336-.459 0-.885.112-1.28.336-.395.224-.715.56-.96 1.008-.245.448-.368 1.0027-.368 1.664s.123 1.216.368 1.664c.245.448.56.784.944 1.008.395.224.816.336 1.264.336zm5.853.96v-7.936h1.216l.096 1.152c.256-.4267.597-.7573 1.024-.992.426-.2347.906-.352 1.44-.352.629 0 1.168.128 1.616.384.458.256.81.6453 1.056 1.168.277-.48.656-.8587 1.136-1.136.49-.2773 1.018-.416 1.584-.416.949 0 1.706.288 2.272.864.565.5653.848 1.44.848 2.624V73h-1.328v-4.496c0-.8213-.166-1.44-.496-1.856-.331-.416-.806-.624-1.424-.624-.64 0-1.174.2507-1.6.752-.416.4907-.624 1.1947-.624 2.112V73h-1.344v-4.496c0-.8213-.166-1.44-.496-1.856-.331-.416-.806-.624-1.424-.624-.63 0-1.158.2507-1.584.752-.416.4907-.624 1.1947-.624 2.112V73h-1.344zm17.88.192c-.757 0-1.429-.1707-2.016-.512-.586-.352-1.05-.8373-1.392-1.456-.33-.6187-.496-1.3493-.496-2.192 0-.832.166-1.5573.496-2.176.331-.6293.79-1.1147 1.376-1.456.598-.352 1.286-.528 2.064-.528.768 0 1.43.176 1.984.528.566.3413.998.7947 1.296 1.36.299.5653.448 1.1733.448 1.824 0 .1173-.005.2347-.016.352v.4h-6.32c.032.608.171 1.1147.416 1.52.256.3947.571.6933.944.896.384.2027.79.304 1.216.304.555 0 1.019-.128 1.392-.384.374-.256.646-.6027.816-1.04h1.328c-.213.736-.624 1.3493-1.232 1.84-.597.48-1.365.72-2.304.72zm0-7.184c-.64 0-1.21.1973-1.712.592-.49.384-.773.9493-.848 1.696h4.992c-.032-.7147-.277-1.2747-.736-1.68-.458-.4053-1.024-.608-1.696-.608zM165.245 73v-7.936h1.216l.112 1.52c.245-.5227.618-.9387 1.12-1.248.501-.3093 1.12-.464 1.856-.464v1.408h-.368c-.47 0-.902.0853-1.296.256-.395.16-.71.4373-.944.832-.235.3947-.352.9387-.352 1.632v4h-1.344zm8.852.192c-.949 0-1.739-.24-2.368-.72-.629-.48-.997-1.1307-1.104-1.952h1.376c.085.416.304.7787.656 1.088.363.2987.848.448 1.456.448.565 0 .981-.1173 1.248-.352.267-.2453.4-.5333.4-.864 0-.48-.176-.8-.528-.96-.341-.16-.827-.304-1.456-.432-.427-.0853-.853-.208-1.28-.368-.427-.16-.784-.384-1.072-.672-.288-.2987-.432-.688-.432-1.168 0-.6933.256-1.2587.768-1.696.523-.448 1.227-.672 2.112-.672.843 0 1.531.2133 2.064.64.544.416.859 1.0133.944 1.792h-1.328c-.053-.4053-.229-.72-.528-.944-.288-.2347-.677-.352-1.168-.352-.48 0-.853.1013-1.12.304-.256.2027-.384.4693-.384.8 0 .32.165.5707.496.752.341.1813.8.336 1.376.464.491.1067.955.24 1.392.4.448.1493.811.3787 1.088.688.288.2987.432.736.432 1.312.011.7147-.261 1.3067-.816 1.776-.544.4587-1.285.688-2.224.688zm9.195-.192V61.48h1.344V73h-1.344zm7.114.192c-.757 0-1.429-.1707-2.016-.512-.586-.352-1.05-.8373-1.392-1.456-.33-.6187-.496-1.3493-.496-2.192 0-.832.166-1.5573.496-2.176.331-.6293.79-1.1147 1.376-1.456.598-.352 1.286-.528 2.064-.528.768 0 1.43.176 1.984.528.566.3413.998.7947 1.296 1.36.299.5653.448 1.1733.448 1.824 0 .1173-.005.2347-.016.352v.4h-6.32c.032.608.171 1.1147.416 1.52.256.3947.571.6933.944.896.384.2027.79.304 1.216.304.555 0 1.019-.128 1.392-.384.374-.256.646-.6027.816-1.04h1.328c-.213.736-.624 1.3493-1.232 1.84-.597.48-1.365.72-2.304.72zm0-7.184c-.64 0-1.21.1973-1.712.592-.49.384-.773.9493-.848 1.696h4.992c-.032-.7147-.277-1.2747-.736-1.68-.458-.4053-1.024-.608-1.696-.608zm8.182 7.184c-.662 0-1.211-.112-1.648-.336-.438-.224-.763-.5227-.976-.896-.214-.3733-.32-.7787-.32-1.216 0-.8107.309-1.4347.928-1.872.618-.4373 1.461-.656 2.528-.656h2.144v-.096c0-.6933-.182-1.216-.544-1.568-.363-.3627-.848-.544-1.456-.544-.523 0-.976.1333-1.36.4-.374.256-.608.6347-.704 1.136h-1.376c.053-.576.245-1.0613.576-1.456.341-.3947.762-.6933 1.264-.896.501-.2133 1.034-.32 1.6-.32 1.109 0 1.941.2987 2.496.896.565.5867.848 1.3707.848 2.352V73h-1.2l-.08-1.424c-.224.448-.555.832-.992 1.152-.427.3093-1.003.464-1.728.464zm.208-1.136c.512 0 .949-.1333 1.312-.4.373-.2667.656-.6133.848-1.04.192-.4267.288-.8747.288-1.344v-.016h-2.032c-.79 0-1.35.1387-1.68.416-.32.2667-.48.6027-.48 1.008 0 .416.149.752.448 1.008.309.2453.741.368 1.296.368zm5.808.944v-7.936h1.216l.112 1.52c.245-.5227.619-.9387 1.12-1.248.501-.3093 1.12-.464 1.856-.464v1.408h-.368c-.469 0-.901.0853-1.296.256-.395.16-.709.4373-.944.832-.235.3947-.352.9387-.352 1.632v4h-1.344zm5.813 0v-7.936h1.216l.08 1.424c.256-.5013.624-.896 1.104-1.184.48-.288 1.024-.432 1.632-.432.938 0 1.685.288 2.24.864.565.5653.847 1.44.847 2.624V73h-1.343v-4.496c0-1.6533-.683-2.48-2.048-2.48-.683 0-1.254.2507-1.712.752-.448.4907-.672 1.1947-.672 2.112V73h-1.344zM5.344 97.192c-.65067 0-1.232-.1333-1.744-.4-.50133-.2667-.88533-.64-1.152-1.12L2.32 97H1.104V85.48h1.344v4.896c.256-.384.61867-.7307 1.088-1.04.48-.3093 1.088-.464 1.824-.464.78933 0 1.47733.1813 2.064.544s1.04.8587 1.36 1.488c.33067.6293.496 1.344.496 2.144s-.16533 1.5147-.496 2.144c-.32.6187-.77867 1.1093-1.376 1.472-.58667.352-1.27467.528-2.064.528zM5.2 96.024c.53333 0 1.00267-.1227 1.408-.368.40533-.256.72533-.608.96-1.056.23467-.448.352-.9707.352-1.568s-.11733-1.12-.352-1.568c-.23467-.448-.55467-.7947-.96-1.04-.40533-.256-.87467-.384-1.408-.384s-1.00267.128-1.408.384c-.40533.2453-.72533.592-.96 1.04-.23467.448-.352.9707-.352 1.568s.11733 1.12.352 1.568c.23467.448.55467.8.96 1.056.40533.2453.87467.368 1.408.368zm6.1743 4.496l1.968-4.288h-.464l-3.15205-7.168h1.45605l2.624 6.176 2.784-6.176h1.392l-5.2 11.456h-1.408zm15.845-3.328c-.7467 0-1.4134-.1813-2-.544-.5867-.3627-1.0507-.8587-1.392-1.488-.3414-.6293-.512-1.344-.512-2.144s.1706-1.5093.512-2.128c.3413-.6293.8053-1.12 1.392-1.472.5866-.3627 1.2533-.544 2-.544.5973 0 1.12.112 1.568.336.448.224.8106.5387 1.088.944V85.48h2.048V97h-1.824l-.224-1.136c-.256.352-.5974.6613-1.024.928-.416.2667-.96.4-1.632.4zm.432-1.792c.6613 0 1.2-.2187 1.616-.656.4266-.448.64-1.0187.64-1.712s-.2134-1.2587-.64-1.696c-.416-.448-.9547-.672-1.616-.672-.6507 0-1.1894.2187-1.616.656-.4267.4373-.64 1.0027-.64 1.696s.2133 1.264.64 1.712c.4266.448.9653.672 1.616.672zm10.1655 1.792c-.768 0-1.4614-.176-2.08-.528-.608-.352-1.0934-.8373-1.456-1.456-.352-.6293-.528-1.3547-.528-2.176 0-.8213.1813-1.5413.544-2.16.3626-.6293.848-1.12 1.456-1.472.6186-.352 1.312-.528 2.08-.528.7573 0 1.44.176 2.048.528.6186.352 1.104.8427 1.456 1.472.3626.6187.544 1.3387.544 2.16 0 .8213-.1814 1.5467-.544 2.176-.352.6187-.8374 1.104-1.456 1.456-.6187.352-1.3067.528-2.064.528zm0-1.776c.5333 0 .9973-.1973 1.392-.592.3946-.4053.592-1.0027.592-1.792 0-.7893-.1974-1.3813-.592-1.776-.3947-.4053-.8534-.608-1.376-.608-.544 0-1.0134.2027-1.408.608-.384.3947-.576.9867-.576 1.776s.192 1.3867.576 1.792c.3946.3947.8586.592 1.392.592zm6.9991-7.584c-.3734 0-.6827-.112-.928-.336-.2347-.224-.352-.5067-.352-.848 0-.3413.1173-.6187.352-.832.2453-.224.5546-.336.928-.336.3733 0 .6773.112.912.336.2453.2133.368.4907.368.832 0 .3413-.1227.624-.368.848-.2347.224-.5387.336-.912.336zM43.7919 97v-7.936h2.048V97h-2.048zm4.1856 0v-7.936h1.808l.16 1.344c.2453-.4693.5973-.8427 1.056-1.12.4693-.2773 1.0187-.416 1.648-.416.9813 0 1.744.3093 2.288.928.544.6187.816 1.5253.816 2.72V97h-2.048v-4.288c0-.6827-.1387-1.2053-.416-1.568s-.7093-.544-1.296-.544c-.576 0-1.0507.2027-1.424.608-.3627.4053-.544.9707-.544 1.696V97h-2.048zm13.0944-2.368c-.384 0-.7414-.0427-1.072-.128l-.592.592c.1813.096.4266.176.736.24.3093.064.8106.128 1.504.192 1.056.096 1.824.3467 2.304.752.48.4053.72.9653.72 1.68 0 .4693-.128.912-.384 1.328-.256.4267-.6507.768-1.184 1.024-.5334.267-1.216.4-2.048.4-1.1307 0-2.0427-.213-2.736-.64-.6934-.416-1.04-1.0453-1.04-1.888 0-.7147.3466-1.3333 1.04-1.856-.2134-.096-.4-.1973-.56-.304-.1494-.1067-.2827-.2187-.4-.336v-.368l1.392-1.472c-.6187-.544-.928-1.2427-.928-2.096 0-.5333.128-1.0187.384-1.456.2666-.4373.64-.784 1.12-1.04.48-.256 1.0613-.384 1.744-.384.448 0 .864.064 1.248.192h3.008v1.248l-1.36.096c.2133.4053.32.8533.32 1.344 0 .5333-.128 1.0187-.384 1.456s-.6294.784-1.12 1.04c-.48.256-1.0507.384-1.712.384zm0-1.568c.416 0 .7573-.112 1.024-.336.2773-.224.416-.544.416-.96 0-.416-.1387-.736-.416-.96-.2667-.224-.608-.336-1.024-.336-.4374 0-.7894.112-1.056.336-.2667.224-.4.544-.4.96 0 .416.1333.736.4.96.2666.224.6186.336 1.056.336zm-1.92 4.912c0 .3947.1813.688.544.88.3733.2027.8266.304 1.36.304.512 0 .928-.1067 1.248-.32.32-.2027.48-.48.48-.832 0-.288-.1067-.528-.32-.72-.2027-.192-.6134-.3093-1.232-.352-.4374-.032-.8427-.08-1.216-.144-.3094.1707-.5334.3573-.672.56-.128.2027-.192.4107-.192.624zm6.6614.928l.928-3.536h1.3919l-1.3919 3.536h-.928zM73.9634 97v-7.936h1.216l.08 1.424c.256-.5013.624-.896 1.104-1.184.48-.288 1.024-.432 1.632-.432.9386 0 1.6853.288 2.24.864.5653.5653.848 1.44.848 2.624V97h-1.344v-4.496c0-1.6533-.6827-2.48-2.048-2.48-.6827 0-1.2534.2507-1.712.752-.448.4907-.672 1.1947-.672 2.112V97h-1.344zm12.7722.192c-.7466 0-1.4186-.1707-2.016-.512-.5973-.3413-1.072-.8213-1.424-1.44-.3413-.6293-.512-1.3653-.512-2.208 0-.8427.176-1.5733.528-2.192.352-.6293.8267-1.1147 1.424-1.456.608-.3413 1.2854-.512 2.032-.512.7467 0 1.4187.1707 2.016.512.5974.3413 1.0667.8267 1.408 1.456.352.6187.528 1.3493.528 2.192 0 .8427-.176 1.5787-.528 2.208-.352.6187-.832 1.0987-1.44 1.44-.5973.3413-1.2693.512-2.016.512zm0-1.152c.4587 0 .8854-.112 1.28-.336.3947-.224.7147-.56.96-1.008.2454-.448.368-1.0027.368-1.664s-.1226-1.216-.368-1.664c-.2346-.448-.5493-.784-.944-1.008-.3946-.224-.816-.336-1.264-.336-.4586 0-.8853.112-1.28.336-.3946.224-.7146.56-.96 1.008-.2453.448-.368 1.0027-.368 1.664s.1227 1.216.368 1.664c.2454.448.56.784.944 1.008.3947.224.816.336 1.264.336zm8.6763.96c-.7254 0-1.296-.176-1.712-.528-.416-.352-.624-.9867-.624-1.904V90.2h-1.376v-1.136h1.376l.176-1.904h1.168v1.904h2.336V90.2h-2.336v4.368c0 .5013.1013.8427.304 1.024.2026.1707.56.256 1.072.256h.832V97h-1.216zm11.5261.192c-.651 0-1.232-.1333-1.744-.4-.502-.2667-.886-.64-1.152-1.12L103.914 97h-1.216V85.48h1.344v4.896c.256-.384.618-.7307 1.088-1.04.48-.3093 1.088-.464 1.824-.464.789 0 1.477.1813 2.064.544.586.3627 1.04.8587 1.36 1.488.33.6293.496 1.344.496 2.144s-.166 1.5147-.496 2.144c-.32.6187-.779 1.1093-1.376 1.472-.587.352-1.275.528-2.064.528zm-.144-1.168c.533 0 1.002-.1227 1.408-.368.405-.256.725-.608.96-1.056.234-.448.352-.9707.352-1.568s-.118-1.12-.352-1.568c-.235-.448-.555-.7947-.96-1.04-.406-.256-.875-.384-1.408-.384-.534 0-1.003.128-1.408.384-.406.2453-.726.592-.96 1.04-.235.448-.352.9707-.352 1.568s.117 1.12.352 1.568c.234.448.554.8.96 1.056.405.2453.874.368 1.408.368zm6.174 4.496l1.968-4.288h-.464l-3.152-7.168h1.456l2.624 6.176 2.784-6.176h1.392l-5.2 11.456h-1.408zM125.229 97v-7.936h1.216l.112 1.52c.245-.5227.619-.9387 1.12-1.248.501-.3093 1.12-.464 1.856-.464v1.408h-.368c-.469 0-.901.0853-1.296.256-.395.16-.709.4373-.944.832-.235.3947-.352.9387-.352 1.632v4h-1.344zm9.084.192c-.758 0-1.43-.1707-2.016-.512-.587-.352-1.051-.8373-1.392-1.456-.331-.6187-.496-1.3493-.496-2.192 0-.832.165-1.5573.496-2.176.33-.6293.789-1.1147 1.376-1.456.597-.352 1.285-.528 2.064-.528.768 0 1.429.176 1.984.528.565.3413.997.7947 1.296 1.36.298.5653.448 1.1733.448 1.824 0 .1173-.006.2347-.016.352v.4h-6.32c.032.608.17 1.1147.416 1.52.256.3947.57.6933.944.896.384.2027.789.304 1.216.304.554 0 1.018-.128 1.392-.384.373-.256.645-.6027.816-1.04h1.328c-.214.736-.624 1.3493-1.232 1.84-.598.48-1.366.72-2.304.72zm0-7.184c-.64 0-1.211.1973-1.712.592-.491.384-.774.9493-.848 1.696h4.992c-.032-.7147-.278-1.2747-.736-1.68-.459-.4053-1.024-.608-1.696-.608zm8.181 7.184c-.661 0-1.211-.112-1.648-.336-.437-.224-.763-.5227-.976-.896-.213-.3733-.32-.7787-.32-1.216 0-.8107.309-1.4347.928-1.872s1.461-.656 2.528-.656h2.144v-.096c0-.6933-.181-1.216-.544-1.568-.363-.3627-.848-.544-1.456-.544-.523 0-.976.1333-1.36.4-.373.256-.608.6347-.704 1.136h-1.376c.053-.576.245-1.0613.576-1.456.341-.3947.763-.6933 1.264-.896.501-.2133 1.035-.32 1.6-.32 1.109 0 1.941.2987 2.496.896.565.5867.848 1.3707.848 2.352V97h-1.2l-.08-1.424c-.224.448-.555.832-.992 1.152-.427.3093-1.003.464-1.728.464zm.208-1.136c.512 0 .949-.1333 1.312-.4.373-.2667.656-.6133.848-1.04.192-.4267.288-.8747.288-1.344v-.016h-2.032c-.789 0-1.349.1387-1.68.416-.32.2667-.48.6027-.48 1.008 0 .416.149.752.448 1.008.309.2453.741.368 1.296.368zm9.408 1.136c-.789 0-1.482-.1813-2.08-.544-.586-.3627-1.045-.8587-1.376-1.488-.32-.6293-.48-1.344-.48-2.144s.166-1.5093.496-2.128c.331-.6293.79-1.12 1.376-1.472.587-.3627 1.28-.544 2.08-.544.651 0 1.227.1333 1.728.4.502.2667.891.64 1.168 1.12V85.48h1.344V97h-1.216l-.128-1.312c-.256.384-.624.7307-1.104 1.04-.48.3093-1.082.464-1.808.464zm.144-1.168c.534 0 1.003-.1227 1.408-.368.416-.256.736-.608.96-1.056.235-.448.352-.9707.352-1.568s-.117-1.12-.352-1.568c-.224-.448-.544-.7947-.96-1.04-.405-.256-.874-.384-1.408-.384-.522 0-.992.128-1.408.384-.405.2453-.725.592-.96 1.04-.224.448-.336.9707-.336 1.568s.112 1.12.336 1.568c.235.448.555.8.96 1.056.416.2453.886.368 1.408.368zm7.119-8.72c-.267 0-.491-.0853-.672-.256-.171-.1813-.256-.4053-.256-.672 0-.256.085-.4693.256-.64.181-.1707.405-.256.672-.256.256 0 .475.0853.656.256.181.1707.272.384.272.64 0 .2667-.091.4907-.272.672-.181.1707-.4.256-.656.256zM158.701 97v-7.936h1.344V97h-1.344zm3.684 0v-7.936h1.216l.08 1.424c.256-.5013.624-.896 1.104-1.184.48-.288 1.024-.432 1.632-.432.939 0 1.686.288 2.24.864.566.5653.848 1.44.848 2.624V97h-1.344v-4.496c0-1.6533-.682-2.48-2.048-2.48-.682 0-1.253.2507-1.712.752-.448.4907-.672 1.1947-.672 2.112V97h-1.344zm12.293-2.496c-.448 0-.859-.0587-1.232-.176l-.8.752c.117.0853.261.16.432.224.181.0533.437.1067.768.16.33.0427.794.0907 1.392.144 1.066.0747 1.829.32 2.288.736.458.416.688.96.688 1.632 0 .4587-.128.896-.384 1.312-.246.416-.63.757-1.152 1.024-.512.267-1.174.4-1.984.4-.715 0-1.35-.096-1.905-.288-.554-.181-.986-.464-1.296-.848-.309-.3733-.463-.848-.463-1.424 0-.2987.08-.624.24-.976.16-.3413.458-.6667.896-.976-.235-.096-.438-.1973-.608-.304-.16-.1173-.31-.2453-.448-.384v-.368l1.36-1.344c-.63-.5333-.944-1.2373-.944-2.112 0-.5227.122-.9973.368-1.424.245-.4267.602-.7627 1.072-1.008.469-.256 1.04-.384 1.712-.384.458 0 .874.064 1.248.192h2.928v1.008l-1.488.064c.309.448.464.9653.464 1.552 0 .5227-.128.9973-.384 1.424-.246.4267-.603.768-1.072 1.024-.459.2453-1.024.368-1.696.368zm0-1.104c.565 0 1.013-.144 1.344-.432.341-.2987.512-.7253.512-1.28 0-.544-.171-.96-.512-1.248-.331-.2987-.779-.448-1.344-.448-.576 0-1.035.1493-1.376.448-.331.288-.496.704-.496 1.248 0 .5547.165.9813.496 1.28.341.288.8.432 1.376.432zm-2.336 4.624c0 .5333.224.928.672 1.184.448.2667 1.008.4 1.68.4.661 0 1.189-.144 1.584-.432.405-.288.608-.672.608-1.152 0-.3413-.139-.64-.416-.896-.278-.2453-.79-.3893-1.536-.432-.587-.0427-1.094-.096-1.52-.16-.438.2347-.726.4853-.865.752-.138.2773-.207.5227-.207.736zm8.492-.944c-.267 0-.491-.0853-.672-.256-.171-.1813-.256-.4-.256-.656s.085-.4693.256-.64c.181-.1813.405-.272.672-.272.256 0 .469.0907.64.272.181.1707.272.384.272.64s-.091.4747-.272.656c-.171.1707-.384.256-.64.256zm6.975-.08V85.8h1.344V97h-1.344zm6.775 0c-.726 0-1.296-.176-1.712-.528-.416-.352-.624-.9867-.624-1.904V90.2h-1.376v-1.136h1.376l.176-1.904h1.168v1.904h2.336V90.2h-2.336v4.368c0 .5013.101.8427.304 1.024.202.1707.56.256 1.072.256h.832V97h-1.216zm2.475-7.632l.928-3.568h1.504l-1.472 3.568h-.96zm6.335 7.824c-.949 0-1.739-.24-2.368-.72-.629-.48-.997-1.1307-1.104-1.952h1.376c.085.416.304.7787.656 1.088.363.2987.848.448 1.456.448.565 0 .981-.1173 1.248-.352.267-.2453.4-.5333.4-.864 0-.48-.176-.8-.528-.96-.341-.16-.827-.304-1.456-.432-.427-.0853-.853-.208-1.28-.368-.427-.16-.784-.384-1.072-.672-.288-.2987-.432-.688-.432-1.168 0-.6933.256-1.2587.768-1.696.523-.448 1.227-.672 2.112-.672.843 0 1.531.2133 2.064.64.544.416.859 1.0133.944 1.792h-1.328c-.053-.4053-.229-.72-.528-.944-.288-.2347-.677-.352-1.168-.352-.48 0-.853.1013-1.12.304-.256.2027-.384.4693-.384.8 0 .32.165.5707.496.752.341.1813.8.336 1.376.464.491.1067.955.24 1.392.4.448.1493.811.3787 1.088.688.288.2987.432.736.432 1.312.011.7147-.261 1.3067-.816 1.776-.544.4587-1.285.688-2.224.688zM2.704 121l-2.32-7.936h1.344l1.68 6.224 1.856-6.224h1.52l1.872 6.224 1.664-6.224h1.36L9.36 121H7.984l-1.952-6.544L4.08 121H2.704zm10.4625 0v-11.52h1.344v4.944c.2667-.491.6453-.869 1.136-1.136.4907-.277 1.024-.416 1.6-.416.9173 0 1.6533.288 2.208.864.5547.565.832 1.44.832 2.624V121h-1.328v-4.496c0-1.653-.6667-2.48-2-2.48-.6933 0-1.2747.251-1.744.752-.4693.491-.704 1.195-.704 2.112V121h-1.344zm9.7859 3.52l1.968-4.288h-.464l-3.152-7.168h1.456l2.624 6.176 2.784-6.176h1.392l-5.2 11.456h-1.408zm13.861-3.52l-2.32-7.936h1.344l1.68 6.224 1.856-6.224h1.52l1.872 6.224 1.664-6.224h1.36l-2.32 7.936h-1.376l-1.952-6.544-1.952 6.544h-1.376zm13.7336.192c-.7573 0-1.4293-.171-2.016-.512-.5867-.352-1.0507-.837-1.392-1.456-.3307-.619-.496-1.349-.496-2.192 0-.832.1653-1.557.496-2.176.3307-.629.7893-1.115 1.376-1.456.5973-.352 1.2853-.528 2.064-.528.768 0 1.4293.176 1.984.528.5653.341.9973.795 1.296 1.36.2987.565.448 1.173.448 1.824 0 .117-.0053.235-.016.352v.4h-6.32c.032.608.1707 1.115.416 1.52.256.395.5707.693.944.896.384.203.7893.304 1.216.304.5547 0 1.0187-.128 1.392-.384.3733-.256.6453-.603.816-1.04h1.328c-.2133.736-.624 1.349-1.232 1.84-.5973.48-1.3653.72-2.304.72zm0-7.184c-.64 0-1.2107.197-1.712.592-.4907.384-.7733.949-.848 1.696h4.992c-.032-.715-.2773-1.275-.736-1.68s-1.024-.608-1.696-.608zm14.0158 7.184c-.6507 0-1.232-.133-1.744-.4-.5014-.267-.8854-.64-1.152-1.12l-.128 1.328h-1.216v-11.52h1.344v4.896c.256-.384.6186-.731 1.088-1.04.48-.309 1.088-.464 1.824-.464.7893 0 1.4773.181 2.064.544.5866.363 1.04.859 1.36 1.488.3306.629.496 1.344.496 2.144s-.1654 1.515-.496 2.144c-.32.619-.7787 1.109-1.376 1.472-.5867.352-1.2747.528-2.064.528zm-.144-1.168c.5333 0 1.0026-.123 1.408-.368.4053-.256.7253-.608.96-1.056.2346-.448.352-.971.352-1.568 0-.597-.1174-1.12-.352-1.568-.2347-.448-.5547-.795-.96-1.04-.4054-.256-.8747-.384-1.408-.384-.5334 0-1.0027.128-1.408.384-.4054.245-.7254.592-.96 1.04-.2347.448-.352.971-.352 1.568 0 .597.1173 1.12.352 1.568.2346.448.5546.8.96 1.056.4053.245.8746.368 1.408.368zm8.8468 1.168c-.9386 0-1.6853-.283-2.24-.848-.5546-.576-.832-1.456-.832-2.64v-4.64h1.344v4.496c0 1.653.6774 2.48 2.032 2.48.6934 0 1.264-.245 1.712-.736.4587-.501.688-1.211.688-2.128v-4.112h1.344V121h-1.216l-.096-1.424c-.2453.501-.6133.896-1.104 1.184-.48.288-1.024.432-1.632.432zm7.0763-9.888c-.2667 0-.4907-.085-.672-.256-.1707-.181-.256-.405-.256-.672 0-.256.0853-.469.256-.64.1813-.171.4053-.256.672-.256.256 0 .4746.085.656.256.1813.171.272.384.272.64 0 .267-.0907.491-.272.672-.1814.171-.4.256-.656.256zm-.672 9.696v-7.936h1.344V121h-1.344zm3.6841 0v-11.52h1.344V121h-1.344zm6.6829 0c-.7254 0-1.296-.176-1.712-.528-.416-.352-.624-.987-.624-1.904V114.2h-1.376v-1.136h1.376l.176-1.904h1.168v1.904h2.336v1.136h-2.336v4.368c0 .501.1013.843.304 1.024.2026.171.56.256 1.072.256h.832V121h-1.216zm7.3659 0v-11.2h1.344v4.944h5.8082V109.8h1.344V121h-1.344v-5.152h-5.8082V121h-1.344zm11.5952-9.696c-.267 0-.491-.085-.672-.256-.171-.181-.256-.405-.256-.672 0-.256.085-.469.256-.64.181-.171.405-.256.672-.256.256 0 .475.085.656.256.181.171.272.384.272.64 0 .267-.091.491-.272.672-.181.171-.4.256-.656.256zm-.672 9.696v-7.936h1.344V121h-1.344zm3.684 0v-11.52h1.344v6.928l3.248-3.344h1.648l-3.52 3.584 3.968 4.352h-1.712l-3.632-4.112V121h-1.344zm11.053.192c-.758 0-1.43-.171-2.016-.512-.587-.352-1.051-.837-1.392-1.456-.331-.619-.496-1.349-.496-2.192 0-.832.165-1.557.496-2.176.33-.629.789-1.115 1.376-1.456.597-.352 1.285-.528 2.064-.528.768 0 1.429.176 1.984.528.565.341.997.795 1.296 1.36.298.565.448 1.173.448 1.824 0 .117-.006.235-.016.352v.4h-6.32c.032.608.17 1.115.416 1.52.256.395.57.693.944.896.384.203.789.304 1.216.304.554 0 1.018-.128 1.392-.384.373-.256.645-.603.816-1.04h1.328c-.214.736-.624 1.349-1.232 1.84-.598.48-1.366.72-2.304.72zm0-7.184c-.64 0-1.211.197-1.712.592-.491.384-.774.949-.848 1.696h4.992c-.032-.715-.278-1.275-.736-1.68-.459-.405-1.024-.608-1.696-.608zm4.469 8.896l.928-3.536h1.392l-1.392 3.536h-.928zm10.79-1.712c-.661 0-1.211-.112-1.648-.336-.437-.224-.763-.523-.976-.896-.213-.373-.32-.779-.32-1.216 0-.811.309-1.435.928-1.872.619-.437 1.461-.656 2.528-.656h2.144v-.096c0-.693-.181-1.216-.544-1.568-.363-.363-.848-.544-1.456-.544-.523 0-.976.133-1.36.4-.373.256-.608.635-.704 1.136h-1.376c.053-.576.245-1.061.576-1.456.341-.395.763-.693 1.264-.896.501-.213 1.035-.32 1.6-.32 1.109 0 1.941.299 2.496.896.565.587.848 1.371.848 2.352V121h-1.2l-.08-1.424c-.224.448-.555.832-.992 1.152-.427.309-1.003.464-1.728.464zm.208-1.136c.512 0 .949-.133 1.312-.4.373-.267.656-.613.848-1.04.192-.427.288-.875.288-1.344v-.016h-2.032c-.789 0-1.349.139-1.68.416-.32.267-.48.603-.48 1.008 0 .416.149.752.448 1.008.309.245.741.368 1.296.368zm5.808.944v-7.936h1.216l.08 1.424c.256-.501.624-.896 1.104-1.184.48-.288 1.024-.432 1.632-.432.939 0 1.686.288 2.24.864.566.565.848 1.44.848 2.624V121h-1.344v-4.496c0-1.653-.682-2.48-2.048-2.48-.682 0-1.253.251-1.712.752-.448.491-.672 1.195-.672 2.112V121h-1.344zm12.757.192c-.79 0-1.483-.181-2.08-.544-.587-.363-1.046-.859-1.376-1.488-.32-.629-.48-1.344-.48-2.144s.165-1.509.496-2.128c.33-.629.789-1.12 1.376-1.472.586-.363 1.28-.544 2.08-.544.65 0 1.226.133 1.728.4.501.267.89.64 1.168 1.12v-4.912h1.344V121h-1.216l-.128-1.312c-.256.384-.624.731-1.104 1.04-.48.309-1.083.464-1.808.464zm.144-1.168c.533 0 1.002-.123 1.408-.368.416-.256.736-.608.96-1.056.234-.448.352-.971.352-1.568 0-.597-.118-1.12-.352-1.568-.224-.448-.544-.795-.96-1.04-.406-.256-.875-.384-1.408-.384-.523 0-.992.128-1.408.384-.406.245-.726.592-.96 1.04-.224.448-.336.971-.336 1.568 0 .597.112 1.12.336 1.568.234.448.554.8.96 1.056.416.245.885.368 1.408.368zm11.353-8.72c-.267 0-.491-.085-.672-.256-.171-.181-.256-.405-.256-.672 0-.256.085-.469.256-.64.181-.171.405-.256.672-.256.256 0 .475.085.656.256.181.171.272.384.272.64 0 .267-.091.491-.272.672-.181.171-.4.256-.656.256zM167.92 121v-7.936h1.344V121h-1.344zm6.82 0c-.725 0-1.296-.176-1.712-.528-.416-.352-.624-.987-.624-1.904V114.2h-1.376v-1.136h1.376l.176-1.904h1.168v1.904h2.336v1.136h-2.336v4.368c0 .501.101.843.304 1.024.203.171.56.256 1.072.256h.832V121h-1.216zm2.475-7.632l.929-3.568h1.504l-1.472 3.568h-.961zm6.335 7.824c-.949 0-1.738-.24-2.368-.72-.629-.48-.997-1.131-1.104-1.952h1.376c.086.416.304.779.656 1.088.363.299.848.448 1.456.448.566 0 .982-.117 1.248-.352.267-.245.4-.533.4-.864 0-.48-.176-.8-.528-.96-.341-.16-.826-.304-1.456-.432-.426-.085-.853-.208-1.28-.368-.426-.16-.784-.384-1.072-.672-.288-.299-.432-.688-.432-1.168 0-.693.256-1.259.768-1.696.523-.448 1.227-.672 2.112-.672.843 0 1.531.213 2.064.64.544.416.859 1.013.944 1.792h-1.328c-.053-.405-.229-.72-.528-.944-.288-.235-.677-.352-1.168-.352-.48 0-.853.101-1.12.304-.256.203-.384.469-.384.8 0 .32.166.571.496.752.342.181.8.336 1.376.464.491.107.955.24 1.392.4.448.149.811.379 1.088.688.288.299.432.736.432 1.312.011.715-.261 1.307-.816 1.776-.544.459-1.285.688-2.224.688zm10.795-.192l-2.32-7.936h1.344l1.68 6.224 1.856-6.224h1.52l1.872 6.224 1.664-6.224h1.36l-2.32 7.936h-1.376l-1.952-6.544-1.952 6.544h-1.376zm10.462 0v-11.52h1.344v4.944c.267-.491.645-.869 1.136-1.136.491-.277 1.024-.416 1.6-.416.917 0 1.653.288 2.208.864.555.565.832 1.44.832 2.624V121h-1.328v-4.496c0-1.653-.667-2.48-2-2.48-.693 0-1.275.251-1.744.752-.469.491-.704 1.195-.704 2.112V121h-1.344zm9.786 3.52l1.968-4.288h-.464l-3.152-7.168h1.456l2.624 6.176 2.784-6.176h1.392l-5.2 11.456h-1.408zM4.24 145c-.72533 0-1.296-.176-1.712-.528-.416-.352-.624-.987-.624-1.904V138.2H.528v-1.136h1.376l.176-1.904h1.168v1.904h2.336v1.136H3.248v4.368c0 .501.10133.843.304 1.024.20267.171.56.256 1.072.256h.832V145H4.24zm3.0515 0v-11.52h1.344v4.944c.26667-.491.64533-.869 1.136-1.136.4907-.277 1.024-.416 1.6-.416.9173 0 1.6533.288 2.208.864.5547.565.832 1.44.832 2.624V145h-1.328v-4.496c0-1.653-.6667-2.48-2-2.48-.6933 0-1.27467.251-1.744.752-.46933.491-.704 1.195-.704 2.112V145h-1.344zm12.7243.192c-.7574 0-1.4294-.171-2.016-.512-.5867-.352-1.0507-.837-1.392-1.456-.3307-.619-.496-1.349-.496-2.192 0-.832.1653-1.557.496-2.176.3306-.629.7893-1.115 1.376-1.456.5973-.352 1.2853-.528 2.0639-.528.7681 0 1.4294.176 1.9841.528.5653.341.9973.795 1.296 1.36.2986.565.448 1.173.448 1.824 0 .117-.0054.235-.016.352v.4h-6.32c.032.608.1706 1.115.416 1.52.256.395.5706.693.944.896.384.203.7893.304 1.216.304.5546 0 1.0186-.128 1.392-.384.3733-.256.6453-.603.816-1.04h1.328c-.2134.736-.624 1.349-1.232 1.84-.5974.48-1.3654.72-2.304.72zm0-7.184c-.64 0-1.2107.197-1.712.592-.4907.384-.7734.949-.8481 1.696h4.9921c-.032-.715-.2774-1.275-.736-1.68-.4587-.405-1.024-.608-1.696-.608zm13.4237 7.184c-.8213 0-1.536-.149-2.144-.448-.608-.299-1.0773-.715-1.408-1.248s-.496-1.152-.496-1.856h1.408c0 .437.1013.843.304 1.216.2027.363.496.656.88.88.3947.213.88.32 1.456.32.7573 0 1.344-.181 1.76-.544.416-.363.624-.816.624-1.36 0-.448-.096-.805-.288-1.072-.192-.277-.4533-.501-.784-.672-.32-.171-.6933-.32-1.12-.448-.416-.128-.8533-.272-1.312-.432-.864-.299-1.504-.667-1.92-1.104-.416-.448-.624-1.029-.624-1.744-.0107-.597.128-1.125.416-1.584.288-.469.6933-.832 1.216-1.088.5333-.267 1.1627-.4 1.888-.4.7147 0 1.3333.133 1.856.4.5333.267.944.635 1.232 1.104.2987.469.4533 1.003.464 1.6h-1.408c0-.309-.08-.613-.24-.912-.16-.309-.4053-.56-.736-.752-.32-.192-.7253-.288-1.216-.288-.608-.011-1.1093.144-1.504.464-.384.32-.576.763-.576 1.328 0 .48.1333.848.4 1.104.2773.256.6613.469 1.152.64.4907.16 1.056.347 1.696.56.5333.192 1.0133.416 1.44.672.4267.256.7573.587.992.992.2453.405.368.923.368 1.552 0 .533-.1387 1.04-.416 1.52-.2773.469-.6987.853-1.264 1.152-.5547.299-1.2533.448-2.096.448zm5.682-.192v-11.2h6.928v1.104h-5.584v3.904h5.104v1.088h-5.104v4h5.584V145h-6.928zm14.1193.192c-1.0987 0-2.064-.24-2.896-.72-.8214-.491-1.4667-1.173-1.936-2.048-.4587-.875-.688-1.883-.688-3.024s.2293-2.144.688-3.008c.4693-.875 1.1146-1.557 1.936-2.048.832-.491 1.7973-.736 2.896-.736 1.1093 0 2.0746.245 2.896.736.832.491 1.4773 1.173 1.936 2.048.4586.864.688 1.867.688 3.008s-.2294 2.149-.688 3.024c-.4587.875-1.104 1.557-1.936 2.048-.8214.48-1.7867.72-2.896.72zm0-1.184c.8213 0 1.5413-.181 2.16-.544.6293-.373 1.1146-.901 1.456-1.584.352-.693.528-1.52.528-2.48s-.176-1.781-.528-2.464c-.3414-.683-.8267-1.205-1.456-1.568-.6187-.373-1.3387-.56-2.16-.56-.8214 0-1.5467.187-2.176.56-.6187.363-1.104.885-1.456 1.568-.3414.683-.512 1.504-.512 2.464s.1706 1.787.512 2.48c.352.683.8373 1.211 1.456 1.584.6293.363 1.3546.544 2.176.544zM64.23 145l4.128-11.2h1.424l4.112 11.2H72.47l-1.024-2.88h-4.768l-1.04 2.88H64.23zm2.848-3.968h3.968l-1.984-5.536-1.984 5.536zm11.6115 4.16c-.7573 0-1.44-.171-2.048-.512-.5973-.352-1.072-.837-1.424-1.456-.3413-.629-.512-1.36-.512-2.192 0-.832.1707-1.557.512-2.176.352-.629.8267-1.115 1.424-1.456.608-.352 1.2907-.528 2.048-.528.9387 0 1.728.245 2.368.736.6507.491 1.0613 1.147 1.232 1.968h-1.376c-.1067-.491-.368-.869-.784-1.136-.416-.277-.9013-.416-1.456-.416-.448 0-.8693.112-1.264.336-.3947.224-.7147.56-.96 1.008-.2453.448-.368 1.003-.368 1.664s.1227 1.216.368 1.664c.2453.448.5653.789.96 1.024.3947.224.816.336 1.264.336.5547 0 1.04-.133 1.456-.4.416-.277.6773-.667.784-1.168h1.376c-.16.8-.5653 1.451-1.216 1.952-.6507.501-1.4453.752-2.384.752zm8.117 0c-.6613 0-1.2107-.112-1.648-.336-.4373-.224-.7627-.523-.976-.896-.2133-.373-.32-.779-.32-1.216 0-.811.3093-1.435.928-1.872.6187-.437 1.4613-.656 2.528-.656h2.144v-.096c0-.693-.1813-1.216-.544-1.568-.3627-.363-.848-.544-1.456-.544-.5227 0-.976.133-1.36.4-.3733.256-.608.635-.704 1.136h-1.376c.0533-.576.2453-1.061.576-1.456.3413-.395.7627-.693 1.264-.896.5013-.213 1.0347-.32 1.6-.32 1.1093 0 1.9413.299 2.496.896.5653.587.848 1.371.848 2.352V145h-1.2l-.08-1.424c-.224.448-.5547.832-.992 1.152-.4267.309-1.0027.464-1.728.464zm.208-1.136c.512 0 .9493-.133 1.312-.4.3733-.267.656-.613.848-1.04.192-.427.288-.875.288-1.344v-.016h-2.032c-.7893 0-1.3493.139-1.68.416-.32.267-.48.603-.48 1.008 0 .416.1493.752.448 1.008.3093.245.7413.368 1.296.368zm9.4082 1.136c-.7893 0-1.4826-.181-2.0799-.544-.5867-.363-1.0454-.859-1.376-1.488-.32-.629-.48-1.344-.48-2.144s.1653-1.509.496-2.128c.3306-.629.7893-1.12 1.376-1.472.5866-.363 1.28-.544 2.08-.544.6506 0 1.2266.133 1.728.4.5013.267.8906.64 1.168 1.12v-4.912h1.3442V145h-1.2162l-.128-1.312c-.256.384-.624.731-1.104 1.04-.48.309-1.0827.464-1.8081.464zm.1441-1.168c.5333 0 1.0026-.123 1.408-.368.416-.256.736-.608.96-1.056.2346-.448.352-.971.352-1.568 0-.597-.1174-1.12-.352-1.568-.224-.448-.544-.795-.96-1.04-.4054-.256-.8747-.384-1.408-.384-.5227 0-.992.128-1.408.384-.4054.245-.7254.592-.96 1.04-.224.448-.336.971-.336 1.568 0 .597.112 1.12.336 1.568.2346.448.5546.8.96 1.056.416.245.8853.368 1.408.368zm9.8712 1.168c-.758 0-1.43-.171-2.016-.512-.587-.352-1.051-.837-1.392-1.456-.331-.619-.496-1.349-.496-2.192 0-.832.165-1.557.496-2.176.33-.629.789-1.115 1.376-1.456.597-.352 1.285-.528 2.064-.528.768 0 1.429.176 1.984.528.565.341.997.795 1.296 1.36.298.565.448 1.173.448 1.824 0 .117-.006.235-.016.352v.4h-6.32c.032.608.17 1.115.416 1.52.256.395.57.693.944.896.384.203.789.304 1.216.304.554 0 1.018-.128 1.392-.384.373-.256.645-.603.816-1.04h1.328c-.214.736-.624 1.349-1.232 1.84-.598.48-1.366.72-2.304.72zm0-7.184c-.64 0-1.211.197-1.712.592-.491.384-.774.949-.848 1.696h4.992c-.032-.715-.278-1.275-.736-1.68-.459-.405-1.024-.608-1.696-.608zm5.541 6.992v-7.936h1.216l.096 1.152c.256-.427.597-.757 1.024-.992.427-.235.907-.352 1.44-.352.629 0 1.168.128 1.616.384.459.256.811.645 1.056 1.168.277-.48.656-.859 1.136-1.136.491-.277 1.019-.416 1.584-.416.949 0 1.707.288 2.272.864.565.565.848 1.44.848 2.624V145h-1.328v-4.496c0-.821-.165-1.44-.496-1.856-.331-.416-.805-.624-1.424-.624-.64 0-1.173.251-1.6.752-.416.491-.624 1.195-.624 2.112V145h-1.344v-4.496c0-.821-.165-1.44-.496-1.856-.331-.416-.805-.624-1.424-.624-.629 0-1.157.251-1.584.752-.416.491-.624 1.195-.624 2.112V145h-1.344zm14.942 3.52l1.968-4.288h-.464l-3.152-7.168h1.456l2.624 6.176 2.784-6.176h1.392l-5.2 11.456h-1.408zm13.077-13.216c-.267 0-.491-.085-.672-.256-.171-.181-.256-.405-.256-.672 0-.256.085-.469.256-.64.181-.171.405-.256.672-.256.256 0 .475.085.656.256.181.171.272.384.272.64 0 .267-.091.491-.272.672-.181.171-.4.256-.656.256zm-.672 9.696v-7.936h1.344V145h-1.344zm6.724.192c-.949 0-1.738-.24-2.368-.72-.629-.48-.997-1.131-1.104-1.952h1.376c.086.416.304.779.656 1.088.363.299.848.448 1.456.448.566 0 .982-.117 1.248-.352.267-.245.4-.533.4-.864 0-.48-.176-.8-.528-.96-.341-.16-.826-.304-1.456-.432-.426-.085-.853-.208-1.28-.368-.426-.16-.784-.384-1.072-.672-.288-.299-.432-.688-.432-1.168 0-.693.256-1.259.768-1.696.523-.448 1.227-.672 2.112-.672.843 0 1.531.213 2.064.64.544.416.859 1.013.944 1.792h-1.328c-.053-.405-.229-.72-.528-.944-.288-.235-.677-.352-1.168-.352-.48 0-.853.101-1.12.304-.256.203-.384.469-.384.8 0 .32.166.571.496.752.342.181.8.336 1.376.464.491.107.955.24 1.392.4.448.149.811.379 1.088.688.288.299.432.736.432 1.312.011.715-.261 1.307-.816 1.776-.544.459-1.285.688-2.224.688zm12.235 0c-.95 0-1.739-.24-2.368-.72-.63-.48-.998-1.131-1.104-1.952h1.376c.085.416.304.779.656 1.088.362.299.848.448 1.456.448.565 0 .981-.117 1.248-.352.266-.245.4-.533.4-.864 0-.48-.176-.8-.528-.96-.342-.16-.827-.304-1.456-.432-.427-.085-.854-.208-1.28-.368-.427-.16-.784-.384-1.072-.672-.288-.299-.432-.688-.432-1.168 0-.693.256-1.259.768-1.696.522-.448 1.226-.672 2.112-.672.842 0 1.53.213 2.064.64.544.416.858 1.013.944 1.792h-1.328c-.054-.405-.23-.72-.528-.944-.288-.235-.678-.352-1.168-.352-.48 0-.854.101-1.12.304-.256.203-.384.469-.384.8 0 .32.165.571.496.752.341.181.8.336 1.376.464.49.107.954.24 1.392.4.448.149.81.379 1.088.688.288.299.432.736.432 1.312.01.715-.262 1.307-.816 1.776-.544.459-1.286.688-2.224.688zm7.856 0c-.939 0-1.686-.283-2.24-.848-.555-.576-.832-1.456-.832-2.64v-4.64h1.344v4.496c0 1.653.677 2.48 2.032 2.48.693 0 1.264-.245 1.712-.736.458-.501.688-1.211.688-2.128v-4.112h1.344V145h-1.216l-.096-1.424c-.246.501-.614.896-1.104 1.184-.48.288-1.024.432-1.632.432zm6.26 3.328v-11.456h1.216l.128 1.312c.256-.384.619-.731 1.088-1.04.48-.309 1.088-.464 1.824-.464.789 0 1.477.181 2.064.544.587.363 1.04.859 1.36 1.488.331.629.496 1.344.496 2.144s-.165 1.515-.496 2.144c-.32.619-.779 1.109-1.376 1.472-.587.352-1.275.528-2.064.528-.651 0-1.232-.133-1.744-.4-.501-.267-.885-.64-1.152-1.12v4.848h-1.344zm4.096-4.496c.533 0 1.003-.123 1.408-.368.405-.256.725-.608.96-1.056.235-.448.352-.971.352-1.568 0-.597-.117-1.12-.352-1.568-.235-.448-.555-.795-.96-1.04-.405-.256-.875-.384-1.408-.384-.533 0-1.003.128-1.408.384-.405.245-.725.592-.96 1.04-.235.448-.352.971-.352 1.568 0 .597.117 1.12.352 1.568.235.448.555.8.96 1.056.405.245.875.368 1.408.368zm9.519 1.168c-.758 0-1.43-.171-2.016-.512-.587-.352-1.051-.837-1.392-1.456-.331-.619-.496-1.349-.496-2.192 0-.832.165-1.557.496-2.176.33-.629.789-1.115 1.376-1.456.597-.352 1.285-.528 2.064-.528.768 0 1.429.176 1.984.528.565.341.997.795 1.296 1.36.298.565.448 1.173.448 1.824 0 .117-.006.235-.016.352v.4h-6.32c.032.608.17 1.115.416 1.52.256.395.57.693.944.896.384.203.789.304 1.216.304.554 0 1.018-.128 1.392-.384.373-.256.645-.603.816-1.04h1.328c-.214.736-.624 1.349-1.232 1.84-.598.48-1.366.72-2.304.72zm0-7.184c-.64 0-1.211.197-1.712.592-.491.384-.774.949-.848 1.696h4.992c-.032-.715-.278-1.275-.736-1.68-.459-.405-1.024-.608-1.696-.608zm5.541 6.992v-7.936h1.216l.112 1.52c.245-.523.619-.939 1.12-1.248.501-.309 1.12-.464 1.856-.464v1.408h-.368c-.469 0-.901.085-1.296.256-.395.16-.709.437-.944.832-.235.395-.352.939-.352 1.632v4h-1.344zM1.536 169v-6.8h-1.2v-1.136h1.2v-1.376c0-.768.192-1.328.576-1.68.384-.352.944-.528 1.68-.528h.8v1.152H4c-.40533 0-.69333.085-.864.256-.17067.16-.256.437-.256.832v1.344h1.952v1.136H2.88v6.8H1.536zm8.19963.192c-.74667 0-1.41867-.171-2.016-.512-.59734-.341-1.072-.821-1.424-1.44-.34134-.629-.512-1.365-.512-2.208 0-.843.176-1.573.528-2.192.352-.629.82666-1.115 1.424-1.456.608-.341 1.28533-.512 2.032-.512s1.41867.171 2.01597.512c.5974.341 1.0667.827 1.408 1.456.352.619.528 1.349.528 2.192 0 .843-.176 1.579-.528 2.208-.352.619-.832 1.099-1.44 1.44-.5973.341-1.2693.512-2.01597.512zm0-1.152c.45867 0 .88537-.112 1.27997-.336.3947-.224.7147-.56.96-1.008.2454-.448.368-1.003.368-1.664s-.1226-1.216-.368-1.664c-.2346-.448-.5493-.784-.944-1.008-.3946-.224-.816-.336-1.26397-.336-.45867 0-.88534.112-1.28.336-.39467.224-.71467.56-.96 1.008-.24534.448-.368 1.003-.368 1.664s.12266 1.216.368 1.664c.24533.448.56.784.944 1.008.39466.224.816.336 1.264.336zm9.50077 1.152c-.7574 0-1.44-.171-2.048-.512-.5974-.352-1.072-.837-1.424-1.456-.3414-.629-.512-1.36-.512-2.192 0-.832.1706-1.557.512-2.176.352-.629.8266-1.115 1.424-1.456.608-.352 1.2906-.528 2.048-.528.9386 0 1.728.245 2.368.736.6506.491 1.0613 1.147 1.232 1.968h-1.376c-.1067-.491-.368-.869-.784-1.136-.416-.277-.9014-.416-1.456-.416-.448 0-.8694.112-1.264.336-.3947.224-.7147.56-.96 1.008-.2454.448-.368 1.003-.368 1.664s.1226 1.216.368 1.664c.2453.448.5653.789.96 1.024.3946.224.816.336 1.264.336.5546 0 1.04-.133 1.456-.4.416-.277.6773-.667.784-1.168h1.376c-.16.8-.5654 1.451-1.216 1.952-.6507.501-1.4454.752-2.384.752zm8.373 0c-.9387 0-1.6854-.283-2.24-.848-.5547-.576-.832-1.456-.832-2.64v-4.64h1.344v4.496c0 1.653.6773 2.48 2.032 2.48.6933 0 1.264-.245 1.712-.736.4586-.501.688-1.211.688-2.128v-4.112h1.344V169h-1.216l-.096-1.424c-.2454.501-.6134.896-1.104 1.184-.48.288-1.024.432-1.632.432zm9.3002 0c-.9493 0-1.7386-.24-2.368-.72-.6293-.48-.9973-1.131-1.104-1.952h1.376c.0854.416.304.779.656 1.088.3627.299.848.448 1.456.448.5654 0 .9814-.117 1.248-.352.2667-.245.4-.533.4-.864 0-.48-.176-.8-.528-.96-.3413-.16-.8266-.304-1.456-.432-.4266-.085-.8533-.208-1.28-.368-.4266-.16-.784-.384-1.072-.672-.288-.299-.432-.688-.432-1.168 0-.693.256-1.259.768-1.696.5227-.448 1.2267-.672 2.112-.672.8427 0 1.5307.213 2.064.64.544.416.8587 1.013.944 1.792h-1.328c-.0533-.405-.2293-.72-.528-.944-.288-.235-.6773-.352-1.168-.352-.48 0-.8533.101-1.12.304-.256.203-.384.469-.384.8 0 .32.1654.571.496.752.3414.181.8.336 1.376.464.4907.107.9547.24 1.392.4.448.149.8107.379 1.088.688.288.299.432.736.432 1.312.0107.715-.2613 1.307-.816 1.776-.544.459-1.2853.688-2.224.688zm8.528 0c-.7573 0-1.4293-.171-2.016-.512-.5866-.352-1.0506-.837-1.392-1.456-.3306-.619-.496-1.349-.496-2.192 0-.832.1654-1.557.496-2.176.3307-.629.7894-1.115 1.376-1.456.5974-.352 1.2854-.528 2.064-.528.768 0 1.4294.176 1.984.528.5654.341.9974.795 1.296 1.36.2987.565.448 1.173.448 1.824 0 .117-.0053.235-.016.352v.4h-6.32c.032.608.1707 1.115.416 1.52.256.395.5707.693.944.896.384.203.7894.304 1.216.304.5547 0 1.0187-.128 1.392-.384.3734-.256.6454-.603.816-1.04h1.328c-.2133.736-.624 1.349-1.232 1.84-.5973.48-1.3653.72-2.304.72zm0-7.184c-.64 0-1.2106.197-1.712.592-.4906.384-.7733.949-.848 1.696h4.992c-.032-.715-.2773-1.275-.736-1.68-.4586-.405-1.024-.608-1.696-.608zm9.1414 7.184c-.7893 0-1.4827-.181-2.08-.544-.5867-.363-1.0453-.859-1.376-1.488-.32-.629-.48-1.344-.48-2.144s.1653-1.509.496-2.128c.3307-.629.7893-1.12 1.376-1.472.5867-.363 1.28-.544 2.08-.544.6507 0 1.2267.133 1.728.4.5013.267.8907.64 1.168 1.12v-4.912h1.344V169h-1.216l-.128-1.312c-.256.384-.624.731-1.104 1.04-.48.309-1.0827.464-1.808.464zm.144-1.168c.5333 0 1.0027-.123 1.408-.368.416-.256.736-.608.96-1.056.2347-.448.352-.971.352-1.568 0-.597-.1173-1.12-.352-1.568-.224-.448-.544-.795-.96-1.04-.4053-.256-.8747-.384-1.408-.384-.5227 0-.992.128-1.408.384-.4053.245-.7253.592-.96 1.04-.224.448-.336.971-.336 1.568 0 .597.112 1.12.336 1.568.2347.448.5547.8.96 1.056.416.245.8853.368 1.408.368zm14.1533 1.168c-.7467 0-1.4187-.171-2.016-.512-.5974-.341-1.072-.821-1.424-1.44-.3414-.629-.512-1.365-.512-2.208 0-.843.176-1.573.528-2.192.352-.629.8266-1.115 1.424-1.456.608-.341 1.2853-.512 2.032-.512.7466 0 1.4186.171 2.016.512.5973.341 1.0666.827 1.408 1.456.352.619.528 1.349.528 2.192 0 .843-.176 1.579-.528 2.208-.352.619-.832 1.099-1.44 1.44-.5974.341-1.2694.512-2.016.512zm0-1.152c.4586 0 .8853-.112 1.28-.336.3946-.224.7146-.56.96-1.008.2453-.448.368-1.003.368-1.664s-.1227-1.216-.368-1.664c-.2347-.448-.5494-.784-.944-1.008-.3947-.224-.816-.336-1.264-.336-.4587 0-.8854.112-1.28.336-.3947.224-.7147.56-.96 1.008-.2454.448-.368 1.003-.368 1.664s.1226 1.216.368 1.664c.2453.448.56.784.944 1.008.3946.224.816.336 1.264.336zm5.8527.96v-7.936h1.216l.08 1.424c.256-.501.624-.896 1.104-1.184.48-.288 1.024-.432 1.632-.432.9387 0 1.6853.288 2.24.864.5653.565.848 1.44.848 2.624V169h-1.344v-4.496c0-1.653-.6827-2.48-2.048-2.48-.6827 0-1.2533.251-1.712.752-.448.491-.672 1.195-.672 2.112V169h-1.344zm16.9906.192c-.7893 0-1.4826-.181-2.08-.544-.5866-.363-1.0453-.859-1.376-1.488-.32-.629-.48-1.344-.48-2.144s.1654-1.509.496-2.128c.3307-.629.7894-1.12 1.376-1.472.5867-.363 1.28-.544 2.08-.544.6507 0 1.2267.133 1.728.4.5014.267.8907.64 1.168 1.12v-4.912h1.344V169h-1.216l-.128-1.312c-.256.384-.624.731-1.104 1.04-.48.309-1.0826.464-1.808.464zm.144-1.168c.5334 0 1.0027-.123 1.408-.368.416-.256.736-.608.96-1.056.2347-.448.352-.971.352-1.568 0-.597-.1173-1.12-.352-1.568-.224-.448-.544-.795-.96-1.04-.4053-.256-.8746-.384-1.408-.384-.5226 0-.992.128-1.408.384-.4053.245-.7253.592-.96 1.04-.224.448-.336.971-.336 1.568 0 .597.112 1.12.336 1.568.2347.448.5547.8.96 1.056.416.245.8854.368 1.408.368zm9.9194 1.168c-.747 0-1.419-.171-2.0165-.512-.5973-.341-1.072-.821-1.424-1.44-.3413-.629-.512-1.365-.512-2.208 0-.843.176-1.573.528-2.192.352-.629.8267-1.115 1.424-1.456.6085-.341 1.2855-.512 2.0325-.512.746 0 1.418.171 2.016.512.597.341 1.066.827 1.408 1.456.352.619.528 1.349.528 2.192 0 .843-.176 1.579-.528 2.208-.352.619-.832 1.099-1.44 1.44-.598.341-1.27.512-2.016.512zm0-1.152c.458 0 .885-.112 1.28-.336.394-.224.714-.56.96-1.008.245-.448.368-1.003.368-1.664s-.123-1.216-.368-1.664c-.235-.448-.55-.784-.944-1.008-.395-.224-.816-.336-1.264-.336-.459 0-.886.112-1.28.336-.395.224-.7152.56-.9605 1.008-.2453.448-.368 1.003-.368 1.664s.1227 1.216.368 1.664c.2453.448.5605.784.9445 1.008.394.224.816.336 1.264.336zm6.668-8.736c-.266 0-.49-.085-.672-.256-.17-.181-.256-.405-.256-.672 0-.256.086-.469.256-.64.182-.171.406-.256.672-.256.256 0 .475.085.656.256.182.171.272.384.272.64 0 .267-.09.491-.272.672-.181.171-.4.256-.656.256zm-.672 9.696v-7.936h1.344V169h-1.344zm3.684 0v-7.936h1.216l.08 1.424c.256-.501.624-.896 1.104-1.184.48-.288 1.024-.432 1.632-.432.939 0 1.686.288 2.24.864.566.565.848 1.44.848 2.624V169h-1.344v-4.496c0-1.653-.682-2.48-2.048-2.48-.682 0-1.253.251-1.712.752-.448.491-.672 1.195-.672 2.112V169h-1.344zm12.293-2.496c-.448 0-.859-.059-1.232-.176l-.8.752c.117.085.261.16.432.224.181.053.437.107.768.16.33.043.794.091 1.392.144 1.066.075 1.829.32 2.288.736.458.416.688.96.688 1.632 0 .459-.128.896-.384 1.312-.246.416-.63.757-1.152 1.024-.512.267-1.174.4-1.984.4-.715 0-1.35-.096-1.904-.288-.555-.181-.987-.464-1.296-.848-.31-.373-.464-.848-.464-1.424 0-.299.08-.624.24-.976.16-.341.458-.667.896-.976-.235-.096-.438-.197-.608-.304-.16-.117-.31-.245-.448-.384v-.368l1.36-1.344c-.63-.533-.944-1.237-.944-2.112 0-.523.122-.997.368-1.424.245-.427.602-.763 1.072-1.008.469-.256 1.04-.384 1.712-.384.458 0 .874.064 1.248.192h2.928v1.008l-1.488.064c.309.448.464.965.464 1.552 0 .523-.128.997-.384 1.424-.246.427-.603.768-1.072 1.024-.459.245-1.024.368-1.696.368zm0-1.104c.565 0 1.013-.144 1.344-.432.341-.299.512-.725.512-1.28 0-.544-.171-.96-.512-1.248-.331-.299-.779-.448-1.344-.448-.576 0-1.035.149-1.376.448-.331.288-.496.704-.496 1.248 0 .555.165.981.496 1.28.341.288.8.432 1.376.432zm-2.336 4.624c0 .533.224.928.672 1.184.448.267 1.008.4 1.68.4.661 0 1.189-.144 1.584-.432.405-.288.608-.672.608-1.152 0-.341-.139-.64-.416-.896-.278-.245-.79-.389-1.536-.432-.587-.043-1.094-.096-1.52-.16-.438.235-.726.485-.864.752-.139.277-.208.523-.208.736zm8.492-.944c-.267 0-.491-.085-.672-.256-.171-.181-.256-.4-.256-.656s.085-.469.256-.64c.181-.181.405-.272.672-.272.256 0 .469.091.64.272.181.171.272.384.272.64s-.091.475-.272.656c-.171.171-.384.256-.64.256z" fill="#000"/></svg>