<svg width="208" height="239" viewBox="0 0 208 239" fill="none" xmlns="http://www.w3.org/2000/svg"><path d="M34.6093 17.3045L8.65244 32.2907V2.31837L34.6093 17.3045zM34.6094 58.0937L8.65262 73.0799V43.1076L34.6094 58.0937zM34.6094 98.883L8.65256 113.869V83.8969L34.6094 98.883zM34.6094 139.672L8.65262 154.659v-29.973l25.95678 14.986zM34.6095 180.462L8.65268 195.448v-29.972l25.95682 14.986zM34.6094 221.251L8.65256 236.237v-29.972l25.95684 14.986zM69.2186 159.449l-25.9569 14.986v-29.972l25.9569 14.986zM69.2186 200.238l-25.9569 14.986v-29.972l25.9569 14.986zM69.2184 118.66l-25.9568 14.986v-29.972l25.9568 14.986zM69.2184 77.8705L43.2616 92.8566V62.8843l25.9568 14.9862zM69.218 37.0811L43.2611 52.0673V22.0949L69.218 37.0811zM207.655 118.66l-25.957 14.986v-29.973l25.957 14.987zM173.046 139.672l-25.957 14.987v-29.973l25.957 14.986zM173.046 98.883l-25.957 14.986V83.8969l25.957 14.9861zM138.437 77.8704L112.48 92.8566V62.8842l25.957 14.9862zM138.437 118.66l-25.957 14.986v-29.972l25.957 14.986zM138.437 159.449l-25.957 14.986v-29.972l25.957 14.986zM103.828 98.8831L77.8708 113.869V83.8969l25.9572 14.9862zM103.828 58.0938L77.8708 73.08V43.1076l25.9572 14.9862zM103.828 139.672l-25.9572 14.987v-29.973l25.9572 14.986zM103.828 180.462l-25.9572 14.986v-29.973l25.9572 14.987z" fill="#9C73B0" fill-opacity=".2"/></svg>