<svg width="180" height="60" viewBox="0 0 180 60" fill="none" xmlns="http://www.w3.org/2000/svg"><rect width="180" height="60" rx="6" fill="#477AAA"/><path d="M44.3751 38.264c-1.1293 0-2.1267-.1907-2.992-.572-.8653-.396-1.5473-.9533-2.046-1.672-.4987-.7333-.7553-1.6207-.77-2.662h2.97c.0293.7187.286 1.3273.77 1.826.4987.484 1.1807.726 2.046.726.748 0 1.342-.176 1.782-.528.44-.3667.66-.8507.66-1.452 0-.6307-.198-1.122-.594-1.474-.3813-.352-.8947-.638-1.54-.858-.6453-.22-1.3347-.4547-2.068-.704-1.188-.4107-2.0973-.9387-2.728-1.584-.616-.6453-.924-1.5033-.924-2.574-.0147-.9093.198-1.6867.638-2.332.4547-.66 1.0707-1.166 1.848-1.518.7773-.3667 1.672-.55 2.684-.55 1.0267 0 1.9287.1833 2.706.55.792.3667 1.408.88 1.848 1.54.4547.66.6967 1.4447.726 2.354h-3.014c-.0147-.5427-.2273-1.0193-.638-1.43-.396-.4253-.9533-.638-1.672-.638-.616-.0147-1.1367.1393-1.562.462-.4107.308-.616.7627-.616 1.364 0 .5133.1613.924.484 1.232.3227.2933.7627.5427 1.32.748.5573.2053 1.1953.4253 1.914.66.7627.264 1.4593.572 2.09.924.6307.352 1.1367.8213 1.518 1.408.3813.572.572 1.3127.572 2.222 0 .8067-.2053 1.5547-.616 2.244-.4107.6893-1.0193 1.2467-1.826 1.672-.8067.4107-1.7967.616-2.97.616zM57.04 38c-1.144 0-2.0606-.2787-2.75-.836-.6893-.5573-1.034-1.5473-1.034-2.97v-4.752h-1.87v-2.354h1.87l.33-2.926h2.486v2.926h2.948v2.354h-2.948v4.774c0 .528.11.8947.33 1.1.2347.1907.6307.286 1.188.286h1.364V38H57.04zm8.1598.264c-.9387 0-1.7087-.1467-2.31-.44-.6013-.308-1.0487-.7113-1.342-1.21-.2933-.4987-.44-1.0487-.44-1.65 0-1.012.396-1.8333 1.188-2.464.792-.6307 1.98-.946 3.564-.946h2.772v-.264c0-.748-.2127-1.298-.638-1.65-.4253-.352-.9533-.528-1.584-.528-.572 0-1.0707.1393-1.496.418-.4253.264-.6893.66-.792 1.188h-2.75c.0733-.792.3373-1.4813.792-2.068.4693-.5867 1.0707-1.034 1.804-1.342.7333-.3227 1.5547-.484 2.464-.484 1.5547 0 2.7793.3887 3.674 1.166.8947.7773 1.342 1.8773 1.342 3.3V38h-2.398l-.264-1.76c-.3227.5867-.7773 1.0707-1.364 1.452-.572.3813-1.3127.572-2.222.572zm.638-2.2c.8067 0 1.43-.264 1.87-.792.4547-.528.7407-1.1807.858-1.958h-2.398c-.748 0-1.2833.1393-1.606.418-.3227.264-.484.594-.484.99 0 .4253.1613.7553.484.99.3227.2347.748.352 1.276.352zM74.1351 38V27.088h2.508l.264 2.046c.396-.704.9313-1.2613 1.606-1.672.6893-.4253 1.496-.638 2.42-.638v2.97h-.792c-.616 0-1.166.0953-1.65.286-.484.1907-.8654.5207-1.144.99-.264.4693-.396 1.122-.396 1.958V38h-2.816zm13.5846 0c-1.144 0-2.0606-.2787-2.75-.836-.6893-.5573-1.034-1.5473-1.034-2.97v-4.752h-1.87v-2.354h1.87l.33-2.926h2.486v2.926h2.948v2.354h-2.948v4.774c0 .528.11.8947.33 1.1.2347.1907.6307.286 1.188.286h1.364V38h-1.914zm9.706 0V22.6h2.8163l7.238 10.846V22.6h2.816V38h-2.816l-7.238-10.824V38h-2.8163zm21.0253.264c-1.056 0-2.009-.242-2.86-.726-.836-.484-1.503-1.1513-2.002-2.002-.484-.8653-.726-1.8627-.726-2.992s.249-2.1193.748-2.97c.499-.8653 1.166-1.54 2.002-2.024.851-.484 1.804-.726 2.86-.726 1.041 0 1.98.242 2.816.726.851.484 1.518 1.1587 2.002 2.024.499.8507.748 1.8407.748 2.97 0 1.1293-.249 2.1267-.748 2.992-.484.8507-1.151 1.518-2.002 2.002-.851.484-1.797.726-2.838.726zm0-2.442c.733 0 1.371-.2713 1.914-.814.543-.5573.814-1.3787.814-2.464s-.271-1.8993-.814-2.442c-.543-.5573-1.173-.836-1.892-.836-.748 0-1.393.2787-1.936.836-.528.5427-.792 1.3567-.792 2.442 0 1.0853.264 1.9067.792 2.464.543.5427 1.181.814 1.914.814zM128.304 38l-3.19-10.912h2.794l1.892 7.854 2.2-7.854h3.124l2.2 7.854 1.914-7.854h2.794L138.82 38h-2.926l-2.332-8.162L131.23 38h-2.926zM37.6211 40.75H142.384v1.1H37.6211v-1.1z" fill="#fff"/></svg>