<svg width="232" height="176" viewBox="0 0 232 176" fill="none" xmlns="http://www.w3.org/2000/svg"><path d="M.46 20L5.58 6h2.88l5.12 14h-2.72l-1.12-3.24H4.28L3.14 20H.46zm4.52-5.24h4.06L7 8.94l-2.02 5.82zM22.7691 20l-3.64-9.92h2.68l2.52 7.5 2.52-7.5h2.68l-3.66 9.92h-3.1zm9.7547-11.46c-.4667 0-.8534-.14-1.16-.42-.2934-.28-.44-.63333-.44-1.06 0-.42667.1466-.77333.44-1.04.3066-.28.6933-.42 1.16-.42.4666 0 .8466.14 1.14.42.3066.26667.46.61333.46 1.04s-.1534.78-.46 1.06c-.2934.28-.6734.42-1.14.42zM31.2438 20v-9.92h2.56V20h-2.56zm9.792.24c-.9334 0-1.7667-.2267-2.5-.68-.7334-.4533-1.3134-1.0733-1.74-1.86-.4267-.7867-.64-1.68-.64-2.68 0-1 .2133-1.8867.64-2.66.4266-.7867 1.0066-1.4 1.74-1.84.7333-.4533 1.5666-.68 2.5-.68.7466 0 1.4.14 1.96.42.56.28 1.0133.6733 1.36 1.18V5.6h2.56V20h-2.28l-.28-1.42c-.32.44-.7467.8267-1.28 1.16-.52.3333-1.2.5-2.04.5zm.54-2.24c.8266 0 1.5-.2733 2.02-.82.5333-.56.8-1.2733.8-2.14s-.2667-1.5733-.8-2.12c-.52-.56-1.1934-.84-2.02-.84-.8134 0-1.4867.2733-2.02.82-.5334.5467-.8 1.2533-.8 2.12s.2666 1.58.8 2.14c.5333.56 1.2066.84 2.02.84zm12.7669 2.24c-1 0-1.8867-.2133-2.66-.64-.7734-.4267-1.38-1.0267-1.82-1.8-.44-.7733-.66-1.6667-.66-2.68 0-1.0267.2133-1.94.64-2.74.44-.8 1.04-1.42 1.8-1.86.7733-.4533 1.68-.68 2.72-.68.9733 0 1.8333.2133 2.58.64.7466.4267 1.3266 1.0133 1.74 1.76.4266.7333.64 1.5533.64 2.46 0 .1467-.0067.3-.02.46 0 .16-.0067.3267-.02.5h-7.54c.0533.7733.32 1.38.8 1.82.4933.44 1.0866.66 1.78.66.52 0 .9533-.1133 1.3-.34.36-.24.6266-.5467.8-.92h2.6c-.1867.6267-.5 1.2-.94 1.72-.4267.5067-.96.9067-1.6 1.2-.6267.2933-1.34.44-2.14.44zm.02-8.32c-.6267 0-1.18.18-1.66.54-.48.3467-.7867.88-.92 1.6h4.94c-.04-.6533-.28-1.1733-.72-1.56-.44-.3867-.9867-.58-1.64-.58zm11.8731 8.32c-.96 0-1.8267-.22-2.6-.66-.76-.44-1.3667-1.0467-1.82-1.82-.44-.7867-.66-1.6933-.66-2.72 0-1.0267.2266-1.9267.68-2.7.4533-.7867 1.06-1.4 1.82-1.84.7733-.44 1.64-.66 2.6-.66.9466 0 1.8.22 2.56.66.7733.44 1.38 1.0533 1.82 1.84.4533.7733.68 1.6733.68 2.7 0 1.0267-.2267 1.9333-.68 2.72-.44.7733-1.0467 1.38-1.82 1.82-.7734.44-1.6334.66-2.58.66zm0-2.22c.6666 0 1.2466-.2467 1.74-.74.4933-.5067.74-1.2533.74-2.24 0-.9867-.2467-1.7267-.74-2.22-.4934-.5067-1.0667-.76-1.72-.76-.68 0-1.2667.2533-1.76.76-.48.4933-.72 1.2333-.72 2.22 0 .9867.24 1.7333.72 2.24.4933.4933 1.0733.74 1.74.74zm7.1489-2.74v-2.14h8.38v2.14h-8.38zM84.1516 20V5.6h2.56V20h-2.56zm9.9957.24c-1 0-1.8866-.2133-2.66-.64-.7733-.4267-1.38-1.0267-1.82-1.8-.44-.7733-.66-1.6667-.66-2.68 0-1.0267.2134-1.94.64-2.74.44-.8 1.04-1.42 1.8-1.86.7734-.4533 1.68-.68 2.72-.68.9734 0 1.8334.2133 2.58.64.7467.4267 1.3267 1.0133 1.74 1.76.4267.7333.64 1.5533.64 2.46 0 .1467-.0066.3-.02.46 0 .16-.0066.3267-.02.5h-7.54c.0534.7733.32 1.38.8 1.82.4934.44 1.0867.66 1.78.66.52 0 .9534-.1133 1.3-.34.36-.24.6267-.5467.8-.92h2.6c-.1866.6267-.5 1.2-.94 1.72-.4266.5067-.96.9067-1.6 1.2-.6266.2933-1.34.44-2.14.44zm.02-8.32c-.6266 0-1.18.18-1.66.54-.48.3467-.7866.88-.92 1.6h4.94c-.04-.6533-.28-1.1733-.72-1.56-.44-.3867-.9866-.58-1.64-.58zm11.6727 8.32c-.933 0-1.766-.2267-2.5-.68-.733-.4533-1.313-1.0733-1.74-1.86-.426-.7867-.64-1.68-.64-2.68 0-1 .214-1.8867.64-2.66.427-.7867 1.007-1.4 1.74-1.84.734-.4533 1.567-.68 2.5-.68.747 0 1.4.14 1.96.42.56.28 1.014.6733 1.36 1.18V5.6h2.56V20h-2.28l-.28-1.42c-.32.44-.746.8267-1.28 1.16-.52.3333-1.2.5-2.04.5zm.54-2.24c.827 0 1.5-.2733 2.02-.82.534-.56.8-1.2733.8-2.14s-.266-1.5733-.8-2.12c-.52-.56-1.193-.84-2.02-.84-.813 0-1.486.2733-2.02.82-.533.5467-.8 1.2533-.8 2.12s.267 1.58.8 2.14c.534.56 1.207.84 2.02.84zm12.713 6.4V10.08h2.28l.28 1.42c.32-.44.74-.8267 1.26-1.16.533-.3333 1.22-.5 2.06-.5.933 0 1.767.2267 2.5.68.733.4533 1.313 1.0733 1.74 1.86.427.7867.64 1.68.64 2.68 0 1-.213 1.8933-.64 2.68-.427.7733-1.007 1.3867-1.74 1.84-.733.44-1.567.66-2.5.66-.747 0-1.4-.14-1.96-.42-.56-.28-1.013-.6733-1.36-1.18v5.76h-2.56zm5.34-6.4c.813 0 1.487-.2733 2.02-.82.533-.5467.8-1.2533.8-2.12s-.267-1.58-.8-2.14-1.207-.84-2.02-.84c-.827 0-1.507.28-2.04.84-.52.5467-.78 1.2533-.78 2.12s.26 1.58.78 2.14c.533.5467 1.213.82 2.04.82zm7.707 2v-9.92h2.28l.24 1.86c.36-.64.847-1.1467 1.46-1.52.627-.3867 1.36-.58 2.2-.58v2.7h-.72c-.56 0-1.06.0867-1.5.26-.44.1733-.787.4733-1.04.9-.24.4267-.36 1.02-.36 1.78V20h-2.56zm12.514.24c-.96 0-1.827-.22-2.6-.66-.76-.44-1.367-1.0467-1.82-1.82-.44-.7867-.66-1.6933-.66-2.72 0-1.0267.226-1.9267.68-2.7.453-.7867 1.06-1.4 1.82-1.84.773-.44 1.64-.66 2.6-.66.946 0 1.8.22 2.56.66.773.44 1.38 1.0533 1.82 1.84.453.7733.68 1.6733.68 2.7 0 1.0267-.227 1.9333-.68 2.72-.44.7733-1.047 1.38-1.82 1.82-.774.44-1.634.66-2.58.66zm0-2.22c.666 0 1.246-.2467 1.74-.74.493-.5067.74-1.2533.74-2.24 0-.9867-.247-1.7267-.74-2.22-.494-.5067-1.067-.76-1.72-.76-.68 0-1.267.2533-1.76.76-.48.4933-.72 1.2333-.72 2.22 0 .9867.24 1.7333.72 2.24.493.4933 1.073.74 1.74.74zm10.944-.98c-.48 0-.927-.0533-1.34-.16l-.74.74c.226.12.533.22.92.3.386.08 1.013.16 1.88.24 1.32.12 2.28.4333 2.88.94.6.5067.9 1.2067.9 2.1 0 .5867-.16 1.14-.48 1.66-.32.5333-.814.96-1.48 1.28-.667.3333-1.52.5-2.56.5-1.414 0-2.554-.2667-3.42-.8-.867-.52-1.3-1.3067-1.3-2.36 0-.8933.433-1.6667 1.3-2.32-.267-.12-.5-.2467-.7-.38-.187-.1333-.354-.2733-.5-.42v-.46l1.74-1.84c-.774-.68-1.16-1.5533-1.16-2.62 0-.6667.16-1.2733.48-1.82.333-.5467.8-.98 1.4-1.3.6-.32 1.326-.48 2.18-.48.56 0 1.08.08 1.56.24h3.76v1.56l-1.7.12c.266.5067.4 1.0667.4 1.68 0 .6667-.16 1.2733-.48 1.82-.32.5467-.787.98-1.4 1.3-.6.32-1.314.48-2.14.48zm0-1.96c.52 0 .946-.14 1.28-.42.346-.28.52-.68.52-1.2 0-.52-.174-.92-.52-1.2-.334-.28-.76-.42-1.28-.42-.547 0-.987.14-1.32.42-.334.28-.5.68-.5 1.2 0 .52.166.92.5 1.2.333.28.773.42 1.32.42zm-2.4 6.14c0 .4933.226.86.68 1.1.466.2533 1.033.38 1.7.38.64 0 1.16-.1333 1.56-.4.4-.2533.6-.6.6-1.04 0-.36-.134-.66-.4-.9-.254-.24-.767-.3867-1.54-.44-.547-.04-1.054-.1-1.52-.18-.387.2133-.667.4467-.84.7-.16.2533-.24.5133-.24.78zm9.586-1.22v-9.92h2.28l.24 1.86c.36-.64.847-1.1467 1.46-1.52.627-.3867 1.36-.58 2.2-.58v2.7h-.72c-.56 0-1.06.0867-1.5.26-.44.1733-.786.4733-1.04.9-.24.4267-.36 1.02-.36 1.78V20h-2.56zm11.35.24c-.853 0-1.553-.1333-2.1-.4-.547-.28-.953-.6467-1.22-1.1-.267-.4533-.4-.9533-.4-1.5 0-.92.36-1.6667 1.08-2.24.72-.5733 1.8-.86 3.24-.86h2.52v-.24c0-.68-.193-1.18-.58-1.5-.387-.32-.867-.48-1.44-.48-.52 0-.973.1267-1.36.38-.387.24-.627.6-.72 1.08h-2.5c.067-.72.307-1.3467.72-1.88.427-.5333.973-.94 1.64-1.22.667-.29333 1.413-.44 2.24-.44 1.413 0 2.527.3533 3.34 1.06.813.7067 1.22 1.7067 1.22 3V20h-2.18l-.24-1.6c-.293.5333-.707.9733-1.24 1.32-.52.3467-1.193.52-2.02.52zm.58-2c.733 0 1.3-.24 1.7-.72.413-.48.673-1.0733.78-1.78h-2.18c-.68 0-1.167.1267-1.46.38-.293.24-.44.54-.44.9 0 .3867.147.6867.44.9.293.2133.68.32 1.16.32zm7.543 1.76v-9.92h2.26l.22 1.34c.32-.48.74-.86 1.26-1.14.533-.29333 1.147-.44 1.84-.44 1.533 0 2.62.5933 3.26 1.78.36-.5467.84-.98 1.44-1.3.613-.32 1.28-.48 2-.48 1.293 0 2.287.3867 2.98 1.16.693.7733 1.04 1.9067 1.04 3.4V20h-2.56v-5.36c0-.8533-.167-1.5067-.5-1.96-.32-.4533-.82-.68-1.5-.68-.693 0-1.253.2533-1.68.76-.413.5067-.62 1.2133-.62 2.12V20h-2.56v-5.36c0-.8533-.167-1.5067-.5-1.96-.333-.4533-.847-.68-1.54-.68-.68 0-1.233.2533-1.66.76-.413.5067-.62 1.2133-.62 2.12V20h-2.56zm18.731 0v-9.92h2.26l.22 1.34c.32-.48.74-.86 1.26-1.14.533-.29333 1.146-.44 1.84-.44 1.533 0 2.62.5933 3.26 1.78.36-.5467.84-.98 1.44-1.3.613-.32 1.28-.48 2-.48 1.293 0 2.286.3867 2.98 1.16.693.7733 1.04 1.9067 1.04 3.4V20h-2.56v-5.36c0-.8533-.167-1.5067-.5-1.96-.32-.4533-.82-.68-1.5-.68-.694 0-1.254.2533-1.68.76-.414.5067-.62 1.2133-.62 2.12V20h-2.56v-5.36c0-.8533-.167-1.5067-.5-1.96-.334-.4533-.847-.68-1.54-.68-.68 0-1.234.2533-1.66.76-.414.5067-.62 1.2133-.62 2.12V20h-2.56zm23.55.24c-1 0-1.887-.2133-2.66-.64-.773-.4267-1.38-1.0267-1.82-1.8-.44-.7733-.66-1.6667-.66-2.68 0-1.0267.213-1.94.64-2.74.44-.8 1.04-1.42 1.8-1.86.773-.4533 1.68-.68 2.72-.68.973 0 1.833.2133 2.58.64.747.4267 1.327 1.0133 1.74 1.76.427.7333.64 1.5533.64 2.46 0 .1467-.007.3-.02.46 0 .16-.007.3267-.02.5h-7.54c.053.7733.32 1.38.8 1.82.493.44 1.087.66 1.78.66.52 0 .953-.1133 1.3-.34.36-.24.627-.5467.8-.92h2.6c-.187.6267-.5 1.2-.94 1.72-.427.5067-.96.9067-1.6 1.2-.627.2933-1.34.44-2.14.44zm.02-8.32c-.627 0-1.18.18-1.66.54-.48.3467-.787.88-.92 1.6h4.94c-.04-.6533-.28-1.1733-.72-1.56-.44-.3867-.987-.58-1.64-.58zM3.968 73v-4.256L.32 61.8h1.52l2.8 5.664 2.8-5.664h1.504l-3.632 6.944V73H3.968zm8.627.192c-.7467 0-1.4187-.1707-2.016-.512-.59733-.3413-1.072-.8213-1.424-1.44-.34133-.6293-.512-1.3653-.512-2.208 0-.8427.176-1.5733.528-2.192.352-.6293.82667-1.1147 1.424-1.456.608-.3413 1.2853-.512 2.032-.512.7467 0 1.4187.1707 2.016.512.5973.3413 1.0667.8267 1.408 1.456.352.6187.528 1.3493.528 2.192 0 .8427-.176 1.5787-.528 2.208-.352.6187-.832 1.0987-1.44 1.44-.5973.3413-1.2693.512-2.016.512zm0-1.152c.4587 0 .8853-.112 1.28-.336.3947-.224.7147-.56.96-1.008.2453-.448.368-1.0027.368-1.664s-.1227-1.216-.368-1.664c-.2347-.448-.5493-.784-.944-1.008-.3947-.224-.816-.336-1.264-.336-.4587 0-.8853.112-1.28.336-.3947.224-.7147.56-.96 1.008-.2453.448-.368 1.0027-.368 1.664s.1227 1.216.368 1.664c.2453.448.56.784.944 1.008.3947.224.816.336 1.264.336zm8.7488 1.152c-.9387 0-1.6854-.2827-2.24-.848-.5547-.576-.832-1.456-.832-2.64v-4.64h1.344v4.496c0 1.6533.6773 2.48 2.032 2.48.6933 0 1.264-.2453 1.712-.736.4586-.5013.688-1.2107.688-2.128v-4.112h1.344V73h-1.216l-.096-1.424c-.2454.5013-.6134.896-1.104 1.184-.48.288-1.024.432-1.632.432zm11.3746-9.888c-.256 0-.4747-.0853-.656-.256-.1814-.1813-.272-.4053-.272-.672 0-.256.0906-.4693.272-.64.1813-.1707.4-.256.656-.256s.4693.0853.64.256c.1813.1707.272.384.272.64 0 .2667-.0907.4907-.272.672-.1707.1707-.384.256-.64.256zm-2.432 13.216v-1.152h.624c.3946 0 .6773-.0853.848-.256.1813-.16.272-.4373.272-.832v-9.216h1.344v9.248c0 .768-.192 1.328-.576 1.68-.384.352-.944.528-1.68.528h-.832zm8.323-3.328c-.9387 0-1.6854-.2827-2.24-.848-.5547-.576-.832-1.456-.832-2.64v-4.64h1.344v4.496c0 1.6533.6773 2.48 2.032 2.48.6933 0 1.264-.2453 1.712-.736.4586-.5013.688-1.2107.688-2.128v-4.112h1.344V73h-1.216l-.096-1.424c-.2454.5013-.6134.896-1.104 1.184-.48.288-1.024.432-1.632.432zm9.3002 0c-.9493 0-1.7386-.24-2.368-.72-.6293-.48-.9973-1.1307-1.104-1.952h1.376c.0854.416.304.7787.656 1.088.3627.2987.848.448 1.456.448.5654 0 .9814-.1173 1.248-.352.2667-.2453.4-.5333.4-.864 0-.48-.176-.8-.528-.96-.3413-.16-.8266-.304-1.456-.432-.4266-.0853-.8533-.208-1.28-.368-.4266-.16-.784-.384-1.072-.672-.288-.2987-.432-.688-.432-1.168 0-.6933.256-1.2587.768-1.696.5227-.448 1.2267-.672 2.112-.672.8427 0 1.5307.2133 2.064.64.544.416.8587 1.0133.944 1.792h-1.328c-.0533-.4053-.2293-.72-.528-.944-.288-.2347-.6773-.352-1.168-.352-.48 0-.8533.1013-1.12.304-.256.2027-.384.4693-.384.8 0 .32.1654.5707.496.752.3414.1813.8.336 1.376.464.4907.1067.9547.24 1.392.4.448.1493.8107.3787 1.088.688.288.2987.432.736.432 1.312.0107.7147-.2613 1.3067-.816 1.776-.544.4587-1.2853.688-2.224.688zM55.6463 73c-.7254 0-1.296-.176-1.712-.528-.416-.352-.624-.9867-.624-1.904V66.2h-1.3761v-1.136h1.3761l.176-1.904h1.168v1.904h2.336V66.2h-2.336v4.368c0 .5013.1013.8427.304 1.024.2026.1707.56.256 1.072.256h.832V73h-1.216zm10.9338.192c-.7573 0-1.44-.1707-2.048-.512-.5973-.352-1.072-.8373-1.424-1.456-.3413-.6293-.512-1.36-.512-2.192 0-.832.1707-1.5573.512-2.176.352-.6293.8267-1.1147 1.424-1.456.608-.352 1.2907-.528 2.048-.528.9387 0 1.728.2453 2.368.736.6507.4907 1.0614 1.1467 1.232 1.968h-1.376c-.1066-.4907-.368-.8693-.784-1.136-.416-.2773-.9013-.416-1.456-.416-.448 0-.8693.112-1.264.336-.3946.224-.7146.56-.96 1.008-.2453.448-.368 1.0027-.368 1.664s.1227 1.216.368 1.664c.2454.448.5654.7893.96 1.024.3947.224.816.336 1.264.336.5547 0 1.04-.1333 1.456-.4.416-.2773.6774-.6667.784-1.168h1.376c-.16.8-.5653 1.4507-1.216 1.952-.6506.5013-1.4453.752-2.384.752zm8.117 0c-.6613 0-1.2106-.112-1.648-.336-.4373-.224-.7626-.5227-.976-.896-.2133-.3733-.32-.7787-.32-1.216 0-.8107.3094-1.4347.928-1.872.6187-.4373 1.4614-.656 2.528-.656h2.144v-.096c0-.6933-.1813-1.216-.544-1.568-.3626-.3627-.848-.544-1.456-.544-.5226 0-.976.1333-1.36.4-.3733.256-.608.6347-.704 1.136h-1.376c.0534-.576.2454-1.0613.576-1.456.3414-.3947.7627-.6933 1.264-.896.5014-.2133 1.0347-.32 1.6-.32 1.1094 0 1.9414.2987 2.496.896.5654.5867.848 1.3707.848 2.352V73h-1.2l-.08-1.424c-.224.448-.5546.832-.992 1.152-.4266.3093-1.0026.464-1.728.464zm.208-1.136c.512 0 .9494-.1333 1.312-.4.3734-.2667.656-.6133.848-1.04.192-.4267.288-.8747.288-1.344v-.016h-2.032c-.7893 0-1.3493.1387-1.68.416-.32.2667-.48.6027-.48 1.008 0 .416.1494.752.448 1.008.3094.2453.7414.368 1.296.368zm5.8083.944v-7.936h1.216l.08 1.424c.256-.5013.624-.896 1.104-1.184.48-.288 1.024-.432 1.632-.432.9386 0 1.6853.288 2.24.864.5653.5653.848 1.44.848 2.624V73h-1.344v-4.496c0-1.6533-.6827-2.48-2.048-2.48-.6827 0-1.2534.2507-1.712.752-.448.4907-.672 1.1947-.672 2.112V73h-1.344zm8.5802-7.632l.928-3.568h1.504l-1.472 3.568h-.96zM96.4119 73c-.7254 0-1.296-.176-1.712-.528-.416-.352-.624-.9867-.624-1.904V66.2h-1.376v-1.136h1.376l.176-1.904h1.168v1.904h2.336V66.2h-2.336v4.368c0 .5013.1013.8427.304 1.024.2026.1707.56.256 1.072.256h.832V73h-1.216zm7.2861 0V61.48h1.344V73h-1.344zm7.115.192c-.758 0-1.43-.1707-2.016-.512-.587-.352-1.051-.8373-1.392-1.456-.331-.6187-.496-1.3493-.496-2.192 0-.832.165-1.5573.496-2.176.33-.6293.789-1.1147 1.376-1.456.597-.352 1.285-.528 2.064-.528.768 0 1.429.176 1.984.528.565.3413.997.7947 1.296 1.36.298.5653.448 1.1733.448 1.824 0 .1173-.006.2347-.016.352v.4h-6.32c.032.608.17 1.1147.416 1.52.256.3947.57.6933.944.896.384.2027.789.304 1.216.304.554 0 1.018-.128 1.392-.384.373-.256.645-.6027.816-1.04h1.328c-.214.736-.624 1.3493-1.232 1.84-.598.48-1.366.72-2.304.72zm0-7.184c-.64 0-1.211.1973-1.712.592-.491.384-.774.9493-.848 1.696h4.992c-.032-.7147-.278-1.2747-.736-1.68-.459-.4053-1.024-.608-1.696-.608zm8.181 7.184c-.661 0-1.211-.112-1.648-.336-.437-.224-.763-.5227-.976-.896-.213-.3733-.32-.7787-.32-1.216 0-.8107.309-1.4347.928-1.872s1.461-.656 2.528-.656h2.144v-.096c0-.6933-.181-1.216-.544-1.568-.363-.3627-.848-.544-1.456-.544-.523 0-.976.1333-1.36.4-.373.256-.608.6347-.704 1.136h-1.376c.053-.576.245-1.0613.576-1.456.341-.3947.763-.6933 1.264-.896.501-.2133 1.035-.32 1.6-.32 1.109 0 1.941.2987 2.496.896.565.5867.848 1.3707.848 2.352V73h-1.2l-.08-1.424c-.224.448-.555.832-.992 1.152-.427.3093-1.003.464-1.728.464zm.208-1.136c.512 0 .949-.1333 1.312-.4.373-.2667.656-.6133.848-1.04.192-.4267.288-.8747.288-1.344v-.016h-2.032c-.789 0-1.349.1387-1.68.416-.32.2667-.48.6027-.48 1.008 0 .416.149.752.448 1.008.309.2453.741.368 1.296.368zm5.808.944v-7.936h1.216l.112 1.52c.246-.5227.619-.9387 1.12-1.248.502-.3093 1.12-.464 1.856-.464v1.408h-.368c-.469 0-.901.0853-1.296.256-.394.16-.709.4373-.944.832-.234.3947-.352.9387-.352 1.632v4h-1.344zm5.813 0v-7.936h1.216l.08 1.424c.256-.5013.624-.896 1.104-1.184.48-.288 1.024-.432 1.632-.432.938 0 1.685.288 2.24.864.565.5653.848 1.44.848 2.624V73h-1.344v-4.496c0-1.6533-.683-2.48-2.048-2.48-.683 0-1.254.2507-1.712.752-.448.4907-.672 1.1947-.672 2.112V73h-1.344zm16.03.192c-.661 0-1.21-.112-1.648-.336-.437-.224-.762-.5227-.976-.896-.213-.3733-.32-.7787-.32-1.216 0-.8107.31-1.4347.928-1.872.619-.4373 1.462-.656 2.528-.656h2.144v-.096c0-.6933-.181-1.216-.544-1.568-.362-.3627-.848-.544-1.456-.544-.522 0-.976.1333-1.36.4-.373.256-.608.6347-.704 1.136h-1.376c.054-.576.246-1.0613.576-1.456.342-.3947.763-.6933 1.264-.896.502-.2133 1.035-.32 1.6-.32 1.11 0 1.942.2987 2.496.896.566.5867.848 1.3707.848 2.352V73h-1.2l-.08-1.424c-.224.448-.554.832-.992 1.152-.426.3093-1.002.464-1.728.464zm.208-1.136c.512 0 .95-.1333 1.312-.4.374-.2667.656-.6133.848-1.04.192-.4267.288-.8747.288-1.344v-.016h-2.032c-.789 0-1.349.1387-1.68.416-.32.2667-.48.6027-.48 1.008 0 .416.15.752.448 1.008.31.2453.742.368 1.296.368zm8.849 1.136c-.95 0-1.739-.24-2.368-.72-.63-.48-.998-1.1307-1.104-1.952h1.376c.085.416.304.7787.656 1.088.362.2987.848.448 1.456.448.565 0 .981-.1173 1.248-.352.266-.2453.4-.5333.4-.864 0-.48-.176-.8-.528-.96-.342-.16-.827-.304-1.456-.432-.427-.0853-.854-.208-1.28-.368-.427-.16-.784-.384-1.072-.672-.288-.2987-.432-.688-.432-1.168 0-.6933.256-1.2587.768-1.696.522-.448 1.226-.672 2.112-.672.842 0 1.53.2133 2.064.64.544.416.858 1.0133.944 1.792h-1.328c-.054-.4053-.23-.72-.528-.944-.288-.2347-.678-.352-1.168-.352-.48 0-.854.1013-1.12.304-.256.2027-.384.4693-.384.8 0 .32.165.5707.496.752.341.1813.8.336 1.376.464.49.1067.954.24 1.392.4.448.1493.81.3787 1.088.688.288.2987.432.736.432 1.312.01.7147-.262 1.3067-.816 1.776-.544.4587-1.286.688-2.224.688zm15.706 3.328v-4.832c-.256.384-.624.7307-1.104 1.04-.48.3093-1.083.464-1.808.464-.789 0-1.483-.1813-2.08-.544-.587-.3627-1.045-.8587-1.376-1.488-.32-.6293-.48-1.344-.48-2.144s.165-1.5093.496-2.128c.331-.6293.789-1.12 1.376-1.472.587-.3627 1.28-.544 2.08-.544.651 0 1.227.1333 1.728.4.501.2667.891.64 1.168 1.12l.128-1.328h1.216V76.52h-1.344zm-2.768-4.496c.533 0 1.003-.1227 1.408-.368.416-.256.736-.608.96-1.056.235-.448.352-.9707.352-1.568s-.117-1.12-.352-1.568c-.224-.448-.544-.7947-.96-1.04-.405-.256-.875-.384-1.408-.384-.523 0-.992.128-1.408.384-.405.2453-.725.592-.96 1.04-.224.448-.336.9707-.336 1.568s.112 1.12.336 1.568c.235.448.555.8.96 1.056.416.2453.885.368 1.408.368zm9.199 1.168c-.939 0-1.685-.2827-2.24-.848-.555-.576-.832-1.456-.832-2.64v-4.64h1.344v4.496c0 1.6533.677 2.48 2.032 2.48.693 0 1.264-.2453 1.712-.736.459-.5013.688-1.2107.688-2.128v-4.112h1.344V73h-1.216l-.096-1.424c-.245.5013-.613.896-1.104 1.184-.48.288-1.024.432-1.632.432zm7.076-9.888c-.267 0-.491-.0853-.672-.256-.171-.1813-.256-.4053-.256-.672 0-.256.085-.4693.256-.64.181-.1707.405-.256.672-.256.256 0 .475.0853.656.256.181.1707.272.384.272.64 0 .2667-.091.4907-.272.672-.181.1707-.4.256-.656.256zM184.451 73v-7.936h1.344V73h-1.344zm7.332.192c-.757 0-1.44-.1707-2.048-.512-.597-.352-1.072-.8373-1.424-1.456-.341-.6293-.512-1.36-.512-2.192 0-.832.171-1.5573.512-2.176.352-.6293.827-1.1147 1.424-1.456.608-.352 1.291-.528 2.048-.528.939 0 1.728.2453 2.368.736.651.4907 1.062 1.1467 1.232 1.968h-1.376c-.106-.4907-.368-.8693-.784-1.136-.416-.2773-.901-.416-1.456-.416-.448 0-.869.112-1.264.336-.394.224-.714.56-.96 1.008-.245.448-.368 1.0027-.368 1.664s.123 1.216.368 1.664c.246.448.566.7893.96 1.024.395.224.816.336 1.264.336.555 0 1.04-.1333 1.456-.4.416-.2773.678-.6667.784-1.168h1.376c-.16.8-.565 1.4507-1.216 1.952-.65.5013-1.445.752-2.384.752zM197.26 73V61.48h1.344v6.928l3.248-3.344h1.648l-3.52 3.584L203.948 73h-1.712l-3.632-4.112V73h-1.344zm8.063 0V61.48h1.344V73h-1.344zm4.411 3.52l1.968-4.288h-.464l-3.152-7.168h1.456l2.624 6.176 2.784-6.176h1.392l-5.2 11.456h-1.408zM2.704 97l-2.32-7.936h1.344l1.68 6.224 1.856-6.224h1.52l1.872 6.224 1.664-6.224h1.36L9.36 97H7.984l-1.952-6.544L4.08 97H2.704zm11.2785-9.696c-.2667 0-.4907-.0853-.672-.256-.1707-.1813-.256-.4053-.256-.672 0-.256.0853-.4693.256-.64.1813-.1707.4053-.256.672-.256.256 0 .4747.0853.656.256.1813.1707.272.384.272.64 0 .2667-.0907.4907-.272.672-.1813.1707-.4.256-.656.256zM13.3105 97v-7.936h1.344V97h-1.344zm6.8201 0c-.7253 0-1.296-.176-1.712-.528-.416-.352-.624-.9867-.624-1.904V90.2h-1.376v-1.136h1.376l.176-1.904h1.168v1.904h2.336V90.2h-2.336v4.368c0 .5013.1014.8427.304 1.024.2027.1707.56.256 1.072.256h.832V97h-1.216zm3.0515 0V85.48h1.344v4.944c.2667-.4907.6454-.8693 1.136-1.136.4907-.2773 1.024-.416 1.6-.416.9174 0 1.6534.288 2.208.864.5547.5653.832 1.44.832 2.624V97h-1.328v-4.496c0-1.6533-.6666-2.48-2-2.48-.6933 0-1.2746.2507-1.744.752-.4693.4907-.704 1.1947-.704 2.112V97h-1.344zm17.6307.192c-.6507 0-1.232-.1333-1.744-.4-.5014-.2667-.8854-.64-1.152-1.12L37.7888 97h-1.216V85.48h1.344v4.896c.256-.384.6186-.7307 1.088-1.04.48-.3093 1.088-.464 1.824-.464.7893 0 1.4773.1813 2.064.544.5866.3627 1.04.8587 1.36 1.488.3306.6293.496 1.344.496 2.144s-.1654 1.5147-.496 2.144c-.32.6187-.7787 1.1093-1.376 1.472-.5867.352-1.2747.528-2.064.528zm-.144-1.168c.5333 0 1.0026-.1227 1.408-.368.4053-.256.7253-.608.96-1.056.2346-.448.352-.9707.352-1.568s-.1174-1.12-.352-1.568c-.2347-.448-.5547-.7947-.96-1.04-.4054-.256-.8747-.384-1.408-.384-.5334 0-1.0027.128-1.408.384-.4054.2453-.7254.592-.96 1.04-.2347.448-.352.9707-.352 1.568s.1173 1.12.352 1.568c.2346.448.5546.8.96 1.056.4053.2453.8746.368 1.408.368zm5.9508.976V85.48h1.344V97h-1.344zm7.1629.192c-.7467 0-1.4187-.1707-2.016-.512-.5973-.3413-1.072-.8213-1.424-1.44-.3413-.6293-.512-1.3653-.512-2.208 0-.8427.176-1.5733.528-2.192.352-.6293.8267-1.1147 1.424-1.456.608-.3413 1.2853-.512 2.032-.512.7467 0 1.4187.1707 2.016.512.5973.3413 1.0667.8267 1.408 1.456.352.6187.528 1.3493.528 2.192 0 .8427-.176 1.5787-.528 2.208-.352.6187-.832 1.0987-1.44 1.44-.5973.3413-1.2693.512-2.016.512zm0-1.152c.4587 0 .8853-.112 1.28-.336.3947-.224.7147-.56.96-1.008.2453-.448.368-1.0027.368-1.664s-.1227-1.216-.368-1.664c-.2347-.448-.5493-.784-.944-1.008-.3947-.224-.816-.336-1.264-.336-.4587 0-.8853.112-1.28.336-.3947.224-.7147.56-.96 1.008-.2453.448-.368 1.0027-.368 1.664s.1227 1.216.368 1.664c.2453.448.56.784.944 1.008.3947.224.816.336 1.264.336zm8.645-1.536c-.448 0-.8587-.0587-1.232-.176l-.8.752c.1173.0853.2613.16.432.224.1813.0533.4373.1067.768.16.3307.0427.7947.0907 1.392.144 1.0667.0747 1.8293.32 2.288.736.4587.416.688.96.688 1.632 0 .4587-.128.896-.384 1.312-.2453.416-.6293.757-1.152 1.024-.512.267-1.1733.4-1.984.4-.7147 0-1.3493-.096-1.904-.288-.5547-.181-.9867-.464-1.296-.848-.3093-.3733-.464-.848-.464-1.424 0-.2987.08-.624.24-.976.16-.3413.4587-.6667.896-.976-.2347-.096-.4373-.1973-.608-.304-.16-.1173-.3093-.2453-.448-.384v-.368l1.36-1.344c-.6293-.5333-.944-1.2373-.944-2.112 0-.5227.1227-.9973.368-1.424.2453-.4267.6027-.7627 1.072-1.008.4693-.256 1.04-.384 1.712-.384.4587 0 .8747.064 1.248.192h2.928v1.008l-1.488.064c.3093.448.464.9653.464 1.552 0 .5227-.128.9973-.384 1.424-.2453.4267-.6027.768-1.072 1.024-.4587.2453-1.024.368-1.696.368zm0-1.104c.5653 0 1.0133-.144 1.344-.432.3413-.2987.512-.7253.512-1.28 0-.544-.1707-.96-.512-1.248-.3307-.2987-.7787-.448-1.344-.448-.576 0-1.0347.1493-1.376.448-.3307.288-.496.704-.496 1.248 0 .5547.1653.9813.496 1.28.3413.288.8.432 1.376.432zm-2.336 4.624c0 .5333.224.928.672 1.184.448.2667 1.008.4 1.68.4.6613 0 1.1893-.144 1.584-.432.4053-.288.608-.672.608-1.152 0-.3413-.1387-.64-.416-.896-.2773-.2453-.7893-.3893-1.536-.432-.5867-.0427-1.0933-.096-1.52-.16-.4373.2347-.7253.4853-.864.752-.1387.2773-.208.5227-.208.736zm11.0681-.832c-.9493 0-1.7386-.24-2.368-.72-.6293-.48-.9973-1.1307-1.104-1.952h1.376c.0854.416.304.7787.656 1.088.3627.2987.848.448 1.456.448.5654 0 .9814-.1173 1.248-.352.2667-.2453.4-.5333.4-.864 0-.48-.176-.8-.528-.96-.3413-.16-.8266-.304-1.456-.432-.4266-.0853-.8533-.208-1.28-.368-.4266-.16-.784-.384-1.072-.672-.288-.2987-.432-.688-.432-1.168 0-.6933.256-1.2587.768-1.696.5227-.448 1.2267-.672 2.112-.672.8427 0 1.5307.2133 2.064.64.544.416.8587 1.0133.944 1.792h-1.328c-.0533-.4053-.2293-.72-.528-.944-.288-.2347-.6773-.352-1.168-.352-.48 0-.8533.1013-1.12.304-.256.2027-.384.4693-.384.8 0 .32.1654.5707.496.752.3414.1813.8.336 1.376.464.4907.1067.9547.24 1.392.4.448.1493.8107.3787 1.088.688.288.2987.432.736.432 1.312.0107.7147-.2613 1.3067-.816 1.776-.544.4587-1.2853.688-2.224.688zm11.8344 0c-.6613 0-1.2107-.112-1.648-.336-.4373-.224-.7627-.5227-.976-.896-.2133-.3733-.32-.7787-.32-1.216 0-.8107.3093-1.4347.928-1.872s1.4613-.656 2.528-.656h2.144v-.096c0-.6933-.1813-1.216-.544-1.568-.3627-.3627-.848-.544-1.456-.544-.5227 0-.976.1333-1.36.4-.3733.256-.608.6347-.704 1.136H80.21c.0533-.576.2453-1.0613.576-1.456.3413-.3947.7627-.6933 1.264-.896.5013-.2133 1.0347-.32 1.6-.32 1.1093 0 1.9413.2987 2.496.896.5653.5867.848 1.3707.848 2.352V97h-1.2l-.08-1.424c-.224.448-.5547.832-.992 1.152-.4267.3093-1.0027.464-1.728.464zm.208-1.136c.512 0 .9493-.1333 1.312-.4.3733-.2667.656-.6133.848-1.04.192-.4267.288-.8747.288-1.344v-.016h-2.032c-.7893 0-1.3493.1387-1.68.416-.32.2667-.48.6027-.48 1.008 0 .416.1493.752.448 1.008.3093.2453.7413.368 1.296.368zm5.8083.944v-7.936h1.216l.08 1.424c.256-.5013.624-.896 1.104-1.184.48-.288 1.024-.432 1.632-.432.9386 0 1.6853.288 2.24.864.5653.5653.8479 1.44.8479 2.624V97h-1.3439v-4.496c0-1.6533-.6827-2.48-2.048-2.48-.6827 0-1.2534.2507-1.712.752-.448.4907-.672 1.1947-.672 2.112V97h-1.344zm12.7557.192c-.789 0-1.482-.1813-2.0795-.544-.5867-.3627-1.0453-.8587-1.376-1.488-.32-.6293-.48-1.344-.48-2.144s.1653-1.5093.496-2.128c.3307-.6293.7893-1.12 1.376-1.472.5865-.3627 1.2805-.544 2.0805-.544.65 0 1.226.1333 1.728.4.501.2667.89.64 1.168 1.12V85.48h1.344V97h-1.216l-.128-1.312c-.256.384-.624.7307-1.104 1.04-.48.3093-1.083.464-1.809.464zm.145-1.168c.533 0 1.002-.1227 1.408-.368.416-.256.736-.608.96-1.056.234-.448.352-.9707.352-1.568s-.118-1.12-.352-1.568c-.224-.448-.544-.7947-.96-1.04-.406-.256-.875-.384-1.408-.384-.523 0-.992.128-1.408.384-.406.2453-.7258.592-.9605 1.04-.224.448-.336.9707-.336 1.568s.112 1.12.336 1.568c.2347.448.5545.8.9605 1.056.416.2453.885.368 1.408.368zm13.673-1.52c-.448 0-.859-.0587-1.232-.176l-.8.752c.117.0853.261.16.432.224.181.0533.437.1067.768.16.33.0427.794.0907 1.392.144 1.066.0747 1.829.32 2.288.736.458.416.688.96.688 1.632 0 .4587-.128.896-.384 1.312-.246.416-.63.757-1.152 1.024-.512.267-1.174.4-1.984.4-.715 0-1.35-.096-1.904-.288-.555-.181-.987-.464-1.296-.848-.31-.3733-.464-.848-.464-1.424 0-.2987.08-.624.24-.976.16-.3413.458-.6667.896-.976-.235-.096-.438-.1973-.608-.304-.16-.1173-.31-.2453-.448-.384v-.368l1.36-1.344c-.63-.5333-.944-1.2373-.944-2.112 0-.5227.122-.9973.368-1.424.245-.4267.602-.7627 1.072-1.008.469-.256 1.04-.384 1.712-.384.458 0 .874.064 1.248.192h2.928v1.008l-1.488.064c.309.448.464.9653.464 1.552 0 .5227-.128.9973-.384 1.424-.246.4267-.603.768-1.072 1.024-.459.2453-1.024.368-1.696.368zm0-1.104c.565 0 1.013-.144 1.344-.432.341-.2987.512-.7253.512-1.28 0-.544-.171-.96-.512-1.248-.331-.2987-.779-.448-1.344-.448-.576 0-1.035.1493-1.376.448-.331.288-.496.704-.496 1.248 0 .5547.165.9813.496 1.28.341.288.8.432 1.376.432zm-2.336 4.624c0 .5333.224.928.672 1.184.448.2667 1.008.4 1.68.4.661 0 1.189-.144 1.584-.432.405-.288.608-.672.608-1.152 0-.3413-.139-.64-.416-.896-.278-.2453-.79-.3893-1.536-.432-.587-.0427-1.094-.096-1.52-.16-.438.2347-.726.4853-.864.752-.139.2773-.208.5227-.208.736zm10.924-.832c-.939 0-1.685-.2827-2.24-.848-.555-.576-.832-1.456-.832-2.64v-4.64h1.344v4.496c0 1.6533.677 2.48 2.032 2.48.693 0 1.264-.2453 1.712-.736.459-.5013.688-1.2107.688-2.128v-4.112h1.344V97h-1.216l-.096-1.424c-.245.5013-.613.896-1.104 1.184-.48.288-1.024.432-1.632.432zm7.076-9.888c-.267 0-.491-.0853-.672-.256-.171-.1813-.256-.4053-.256-.672 0-.256.085-.4693.256-.64.181-.1707.405-.256.672-.256.256 0 .475.0853.656.256.181.1707.272.384.272.64 0 .2667-.091.4907-.272.672-.181.1707-.4.256-.656.256zM130.576 97v-7.936h1.344V97h-1.344zm7.284.192c-.789 0-1.482-.1813-2.08-.544-.586-.3627-1.045-.8587-1.376-1.488-.32-.6293-.48-1.344-.48-2.144s.166-1.5093.496-2.128c.331-.6293.79-1.12 1.376-1.472.587-.3627 1.28-.544 2.08-.544.651 0 1.227.1333 1.728.4.502.2667.891.64 1.168 1.12V85.48h1.344V97H140.9l-.128-1.312c-.256.384-.624.7307-1.104 1.04-.48.3093-1.082.464-1.808.464zm.144-1.168c.534 0 1.003-.1227 1.408-.368.416-.256.736-.608.96-1.056.235-.448.352-.9707.352-1.568s-.117-1.12-.352-1.568c-.224-.448-.544-.7947-.96-1.04-.405-.256-.874-.384-1.408-.384-.522 0-.992.128-1.408.384-.405.2453-.725.592-.96 1.04-.224.448-.336.9707-.336 1.568s.112 1.12.336 1.568c.235.448.555.8.96 1.056.416.2453.886.368 1.408.368zm9.871 1.168c-.757 0-1.429-.1707-2.016-.512-.587-.352-1.051-.8373-1.392-1.456-.331-.6187-.496-1.3493-.496-2.192 0-.832.165-1.5573.496-2.176.331-.6293.789-1.1147 1.376-1.456.597-.352 1.285-.528 2.064-.528.768 0 1.429.176 1.984.528.565.3413.997.7947 1.296 1.36.299.5653.448 1.1733.448 1.824 0 .1173-.005.2347-.016.352v.4h-6.32c.032.608.171 1.1147.416 1.52.256.3947.571.6933.944.896.384.2027.789.304 1.216.304.555 0 1.019-.128 1.392-.384s.645-.6027.816-1.04h1.328c-.213.736-.624 1.3493-1.232 1.84-.597.48-1.365.72-2.304.72zm0-7.184c-.64 0-1.211.1973-1.712.592-.491.384-.773.9493-.848 1.696h4.992c-.032-.7147-.277-1.2747-.736-1.68-.459-.4053-1.024-.608-1.696-.608zm8.582 7.184c-.95 0-1.739-.24-2.368-.72-.63-.48-.998-1.1307-1.104-1.952h1.376c.085.416.304.7787.656 1.088.362.2987.848.448 1.456.448.565 0 .981-.1173 1.248-.352.266-.2453.4-.5333.4-.864 0-.48-.176-.8-.528-.96-.342-.16-.827-.304-1.456-.432-.427-.0853-.854-.208-1.28-.368-.427-.16-.784-.384-1.072-.672-.288-.2987-.432-.688-.432-1.168 0-.6933.256-1.2587.768-1.696.522-.448 1.226-.672 2.112-.672.842 0 1.53.2133 2.064.64.544.416.858 1.0133.944 1.792h-1.328c-.054-.4053-.23-.72-.528-.944-.288-.2347-.678-.352-1.168-.352-.48 0-.854.1013-1.12.304-.256.2027-.384.4693-.384.8 0 .32.165.5707.496.752.341.1813.8.336 1.376.464.49.1067.954.24 1.392.4.448.1493.81.3787 1.088.688.288.2987.432.736.432 1.312.01.7147-.262 1.3067-.816 1.776-.544.4587-1.286.688-2.224.688zm11.834 0c-.661 0-1.211-.112-1.648-.336-.437-.224-.763-.5227-.976-.896-.213-.3733-.32-.7787-.32-1.216 0-.8107.309-1.4347.928-1.872s1.461-.656 2.528-.656h2.144v-.096c0-.6933-.181-1.216-.544-1.568-.363-.3627-.848-.544-1.456-.544-.523 0-.976.1333-1.36.4-.373.256-.608.6347-.704 1.136h-1.376c.053-.576.245-1.0613.576-1.456.341-.3947.763-.6933 1.264-.896.501-.2133 1.035-.32 1.6-.32 1.109 0 1.941.2987 2.496.896.565.5867.848 1.3707.848 2.352V97h-1.2l-.08-1.424c-.224.448-.555.832-.992 1.152-.427.3093-1.003.464-1.728.464zm.208-1.136c.512 0 .949-.1333 1.312-.4.373-.2667.656-.6133.848-1.04.192-.4267.288-.8747.288-1.344v-.016h-2.032c-.789 0-1.349.1387-1.68.416-.32.2667-.48.6027-.48 1.008 0 .416.149.752.448 1.008.309.2453.741.368 1.296.368zm8.848 1.136c-.949 0-1.739-.24-2.368-.72-.629-.48-.997-1.1307-1.104-1.952h1.376c.085.416.304.7787.656 1.088.363.2987.848.448 1.456.448.565 0 .981-.1173 1.248-.352.267-.2453.4-.5333.4-.864 0-.48-.176-.8-.528-.96-.341-.16-.827-.304-1.456-.432-.427-.0853-.853-.208-1.28-.368-.427-.16-.784-.384-1.072-.672-.288-.2987-.432-.688-.432-1.168 0-.6933.256-1.2587.768-1.696.523-.448 1.227-.672 2.112-.672.843 0 1.531.2133 2.064.64.544.416.859 1.0133.944 1.792h-1.328c-.053-.4053-.229-.72-.528-.944-.288-.2347-.677-.352-1.168-.352-.48 0-.853.1013-1.12.304-.256.2027-.384.4693-.384.8 0 .32.165.5707.496.752.341.1813.8.336 1.376.464.491.1067.955.24 1.392.4.448.1493.811.3787 1.088.688.288.2987.432.736.432 1.312.011.7147-.261 1.3067-.816 1.776-.544.4587-1.285.688-2.224.688zm10.059 3.328l1.968-4.288h-.464l-3.152-7.168h1.456l2.624 6.176 2.784-6.176h1.392l-5.2 11.456h-1.408zm10.892-3.328c-.747 0-1.419-.1707-2.016-.512-.597-.3413-1.072-.8213-1.424-1.44-.341-.6293-.512-1.3653-.512-2.208 0-.8427.176-1.5733.528-2.192.352-.6293.827-1.1147 1.424-1.456.608-.3413 1.285-.512 2.032-.512.747 0 1.419.1707 2.016.512.597.3413 1.067.8267 1.408 1.456.352.6187.528 1.3493.528 2.192 0 .8427-.176 1.5787-.528 2.208-.352.6187-.832 1.0987-1.44 1.44-.597.3413-1.269.512-2.016.512zm0-1.152c.459 0 .885-.112 1.28-.336.395-.224.715-.56.96-1.008.245-.448.368-1.0027.368-1.664s-.123-1.216-.368-1.664c-.235-.448-.549-.784-.944-1.008-.395-.224-.816-.336-1.264-.336-.459 0-.885.112-1.28.336-.395.224-.715.56-.96 1.008-.245.448-.368 1.0027-.368 1.664s.123 1.216.368 1.664c.245.448.56.784.944 1.008.395.224.816.336 1.264.336zm8.749 1.152c-.939 0-1.685-.2827-2.24-.848-.555-.576-.832-1.456-.832-2.64v-4.64h1.344v4.496c0 1.6533.677 2.48 2.032 2.48.693 0 1.264-.2453 1.712-.736.459-.5013.688-1.2107.688-2.128v-4.112h1.344V97h-1.216l-.096-1.424c-.245.5013-.613.896-1.104 1.184-.48.288-1.024.432-1.632.432zm-202.295 24c-.75733 0-1.44-.171-2.048-.512-.59733-.352-1.072-.837-1.424-1.456-.341333-.629-.512-1.36-.512-2.192 0-.832.170667-1.557.512-2.176.352-.629.82667-1.115 1.424-1.456.608-.352 1.29067-.528 2.048-.528.93867 0 1.728.245 2.368.736.65067.491 1.06133 1.147 1.232 1.968H6.976c-.10667-.491-.368-.869-.784-1.136-.416-.277-.90133-.416-1.456-.416-.448 0-.86933.112-1.264.336-.39467.224-.71467.56-.96 1.008-.24533.448-.368 1.003-.368 1.664s.12267 1.216.368 1.664c.24533.448.56533.789.96 1.024.39467.224.816.336 1.264.336.55467 0 1.04-.133 1.456-.4.416-.277.67733-.667.784-1.168h1.376c-.16.8-.56533 1.451-1.216 1.952-.65067.501-1.44533.752-2.384.752zm8.117 0c-.6613 0-1.2107-.112-1.648-.336-.4373-.224-.7627-.523-.976-.896-.2133-.373-.32-.779-.32-1.216 0-.811.3093-1.435.928-1.872.6187-.437 1.4613-.656 2.528-.656h2.144v-.096c0-.693-.1813-1.216-.544-1.568-.3627-.363-.848-.544-1.456-.544-.5227 0-.976.133-1.36.4-.3733.256-.608.635-.704 1.136h-1.376c.0533-.576.2453-1.061.576-1.456.3413-.395.7627-.693 1.264-.896.5013-.213 1.0347-.32 1.6-.32 1.1093 0 1.9413.299 2.496.896.5653.587.848 1.371.848 2.352V121h-1.2l-.08-1.424c-.224.448-.5547.832-.992 1.152-.4267.309-1.0027.464-1.728.464zm.208-1.136c.512 0 .9493-.133 1.312-.4.3733-.267.656-.613.848-1.04.192-.427.288-.875.288-1.344v-.016h-2.032c-.7893 0-1.3493.139-1.68.416-.32.267-.48.603-.48 1.008 0 .416.1493.752.448 1.008.3093.245.7413.368 1.296.368zm5.8083.944v-7.936h1.216l.08 1.424c.256-.501.624-.896 1.104-1.184.48-.288 1.024-.432 1.632-.432.9386 0 1.6853.288 2.24.864.5653.565.8479 1.44.8479 2.624V121h-1.3439v-4.496c0-1.653-.6827-2.48-2.048-2.48-.6827 0-1.2534.251-1.712.752-.448.491-.672 1.195-.672 2.112V121h-1.344zm14.9906 0l-2.32-7.936h1.344l1.68 6.224 1.856-6.224h1.52l1.872 6.224 1.664-6.224h1.36l-2.32 7.936h-1.376l-1.952-6.544-1.952 6.544h-1.376zm11.2785-9.696c-.2667 0-.4907-.085-.672-.256-.1707-.181-.256-.405-.256-.672 0-.256.0853-.469.256-.64.1813-.171.4053-.256.672-.256.256 0 .4746.085.656.256.1813.171.272.384.272.64 0 .267-.0907.491-.272.672-.1814.171-.4.256-.656.256zm-.672 9.696v-7.936h1.344V121h-1.344zm6.8201 0c-.7253 0-1.296-.176-1.712-.528-.416-.352-.624-.987-.624-1.904V114.2h-1.376v-1.136h1.376l.176-1.904h1.168v1.904h2.336v1.136h-2.336v4.368c0 .501.1013.843.304 1.024.2027.171.56.256 1.072.256h.832V121h-1.216zm3.0515 0v-11.52h1.344v4.944c.2667-.491.6453-.869 1.136-1.136.4907-.277 1.024-.416 1.6-.416.9173 0 1.6533.288 2.208.864.5547.565.832 1.44.832 2.624V121h-1.328v-4.496c0-1.653-.6667-2.48-2-2.48-.6933 0-1.2747.251-1.744.752-.4693.491-.704 1.195-.704 2.112V121h-1.344zm15.6786 0l-3.008-7.936h1.408l2.384 6.64 2.4-6.64h1.376L71.5846 121h-1.552zm6.8718-9.696c-.2667 0-.4907-.085-.672-.256-.1707-.181-.256-.405-.256-.672 0-.256.0853-.469.256-.64.1813-.171.4053-.256.672-.256.256 0 .4746.085.656.256.1813.171.272.384.272.64 0 .267-.0907.491-.272.672-.1814.171-.4.256-.656.256zm-.672 9.696v-7.936h1.344V121h-1.344zm7.2841.192c-.7893 0-1.4827-.181-2.08-.544-.5867-.363-1.0453-.859-1.376-1.488-.32-.629-.48-1.344-.48-2.144s.1653-1.509.496-2.128c.3307-.629.7893-1.12 1.376-1.472.5867-.363 1.28-.544 2.08-.544.6507 0 1.2267.133 1.728.4.5013.267.8907.64 1.168 1.12v-4.912h1.344V121h-1.216l-.128-1.312c-.256.384-.624.731-1.104 1.04-.48.309-1.0827.464-1.808.464zm.144-1.168c.5333 0 1.0027-.123 1.408-.368.416-.256.736-.608.96-1.056.2347-.448.352-.971.352-1.568 0-.597-.1173-1.12-.352-1.568-.224-.448-.544-.795-.96-1.04-.4053-.256-.8747-.384-1.408-.384-.5227 0-.992.128-1.408.384-.4053.245-.7253.592-.96 1.04-.224.448-.336.971-.336 1.568 0 .597.112 1.12.336 1.568.2347.448.5547.8.96 1.056.416.245.8853.368 1.408.368zm9.8709 1.168c-.7574 0-1.4294-.171-2.016-.512-.5867-.352-1.0507-.837-1.392-1.456-.3307-.619-.496-1.349-.496-2.192 0-.832.1653-1.557.496-2.176.3306-.629.7893-1.115 1.376-1.456.5973-.352 1.2853-.528 2.064-.528.768 0 1.4293.176 1.984.528.5653.341.9973.795 1.296 1.36.2986.565.448 1.173.448 1.824 0 .117-.0054.235-.016.352v.4h-6.32c.032.608.1706 1.115.416 1.52.256.395.5706.693.944.896.384.203.7893.304 1.216.304.5546 0 1.0186-.128 1.392-.384.3733-.256.6453-.603.816-1.04h1.328c-.2134.736-.624 1.349-1.232 1.84-.5974.48-1.3654.72-2.304.72zm0-7.184c-.64 0-1.2107.197-1.712.592-.4907.384-.7734.949-.848 1.696h4.992c-.032-.715-.2774-1.275-.736-1.68-.4587-.405-1.024-.608-1.696-.608zm9.1576 7.184c-.747 0-1.419-.171-2.016-.512-.598-.341-1.0722-.821-1.4242-1.44-.3414-.629-.512-1.365-.512-2.208 0-.843.176-1.573.528-2.192.352-.629.8262-1.115 1.4242-1.456.608-.341 1.285-.512 2.032-.512.746 0 1.418.171 2.016.512.597.341 1.066.827 1.408 1.456.352.619.528 1.349.528 2.192 0 .843-.176 1.579-.528 2.208-.352.619-.832 1.099-1.44 1.44-.598.341-1.27.512-2.016.512zm0-1.152c.458 0 .885-.112 1.28-.336.394-.224.714-.56.96-1.008.245-.448.368-1.003.368-1.664s-.123-1.216-.368-1.664c-.235-.448-.55-.784-.944-1.008-.395-.224-.816-.336-1.264-.336-.459 0-.886.112-1.28.336-.395.224-.715.56-.96 1.008-.246.448-.368 1.003-.368 1.664s.122 1.216.368 1.664c.245.448.56.784.944 1.008.394.224.816.336 1.264.336zm6.141-2.144l-.16-8.096h1.456l-.16 8.096h-1.136zm.608 3.184c-.267 0-.491-.085-.672-.256-.171-.181-.256-.4-.256-.656s.085-.469.256-.64c.181-.181.405-.272.672-.272.256 0 .469.091.64.272.181.171.272.384.272.64s-.091.475-.272.656c-.171.171-.384.256-.64.256zm10.011-.08v-10.096h-3.344V109.8h8.032v1.104h-3.344V121h-1.344zm6.249 0v-11.52h1.344v4.944c.266-.491.645-.869 1.136-1.136.49-.277 1.024-.416 1.6-.416.917 0 1.653.288 2.208.864.554.565.832 1.44.832 2.624V121h-1.328v-4.496c0-1.653-.667-2.48-2-2.48-.694 0-1.275.251-1.744.752-.47.491-.704 1.195-.704 2.112V121h-1.344zm11.796.192c-.661 0-1.211-.112-1.648-.336-.437-.224-.763-.523-.976-.896-.213-.373-.32-.779-.32-1.216 0-.811.309-1.435.928-1.872.619-.437 1.461-.656 2.528-.656h2.144v-.096c0-.693-.181-1.216-.544-1.568-.363-.363-.848-.544-1.456-.544-.523 0-.976.133-1.36.4-.373.256-.608.635-.704 1.136h-1.376c.053-.576.245-1.061.576-1.456.341-.395.763-.693 1.264-.896.501-.213 1.035-.32 1.6-.32 1.109 0 1.941.299 2.496.896.565.587.848 1.371.848 2.352V121h-1.2l-.08-1.424c-.224.448-.555.832-.992 1.152-.427.309-1.003.464-1.728.464zm.208-1.136c.512 0 .949-.133 1.312-.4.373-.267.656-.613.848-1.04.192-.427.288-.875.288-1.344v-.016h-2.032c-.789 0-1.349.139-1.68.416-.32.267-.48.603-.48 1.008 0 .416.149.752.448 1.008.309.245.741.368 1.296.368zm8.726.944c-.726 0-1.296-.176-1.712-.528-.416-.352-.624-.987-.624-1.904V114.2h-1.377v-1.136h1.377l.176-1.904h1.168v1.904h2.336v1.136h-2.336v4.368c0 .501.101.843.304 1.024.202.171.56.256 1.072.256h.832V121h-1.216zm2.475-7.632l.928-3.568h1.504l-1.472 3.568h-.96zm6.335 7.824c-.95 0-1.739-.24-2.368-.72-.63-.48-.998-1.131-1.104-1.952h1.376c.085.416.304.779.656 1.088.362.299.848.448 1.456.448.565 0 .981-.117 1.248-.352.266-.245.4-.533.4-.864 0-.48-.176-.8-.528-.96-.342-.16-.827-.304-1.456-.432-.427-.085-.854-.208-1.28-.368-.427-.16-.784-.384-1.072-.672-.288-.299-.432-.688-.432-1.168 0-.693.256-1.259.768-1.696.522-.448 1.226-.672 2.112-.672.842 0 1.53.213 2.064.64.544.416.858 1.013.944 1.792h-1.328c-.054-.405-.23-.72-.528-.944-.288-.235-.678-.352-1.168-.352-.48 0-.854.101-1.12.304-.256.203-.384.469-.384.8 0 .32.165.571.496.752.341.181.8.336 1.376.464.49.107.954.24 1.392.4.448.149.81.379 1.088.688.288.299.432.736.432 1.312.01.715-.262 1.307-.816 1.776-.544.459-1.286.688-2.224.688zm10.794-.192l-2.32-7.936h1.344l1.68 6.224 1.856-6.224h1.52l1.872 6.224 1.664-6.224h1.36l-2.32 7.936h-1.376l-1.952-6.544-1.952 6.544h-1.376zm10.463 0v-11.52h1.344v4.944c.266-.491.645-.869 1.136-1.136.49-.277 1.024-.416 1.6-.416.917 0 1.653.288 2.208.864.554.565.832 1.44.832 2.624V121h-1.328v-4.496c0-1.653-.667-2.48-2-2.48-.694 0-1.275.251-1.744.752-.47.491-.704 1.195-.704 2.112V121h-1.344zm9.786 3.52l1.968-4.288h-.464l-3.152-7.168h1.456l2.624 6.176 2.784-6.176h1.392l-5.2 11.456h-1.408zm15.397-3.52c-.726 0-1.296-.176-1.712-.528-.416-.352-.624-.987-.624-1.904V114.2h-1.377v-1.136h1.377l.176-1.904h1.168v1.904h2.336v1.136h-2.336v4.368c0 .501.101.843.304 1.024.202.171.56.256 1.072.256h.832V121h-1.216zm3.051 0v-11.52h1.344v4.944c.267-.491.645-.869 1.136-1.136.491-.277 1.024-.416 1.6-.416.917 0 1.653.288 2.208.864.555.565.832 1.44.832 2.624V121h-1.328v-4.496c0-1.653-.667-2.48-2-2.48-.693 0-1.275.251-1.744.752-.469.491-.704 1.195-.704 2.112V121h-1.344zm12.724.192c-.757 0-1.429-.171-2.016-.512-.586-.352-1.05-.837-1.392-1.456-.33-.619-.496-1.349-.496-2.192 0-.832.166-1.557.496-2.176.331-.629.79-1.115 1.376-1.456.598-.352 1.286-.528 2.064-.528.768 0 1.43.176 1.984.528.566.341.998.795 1.296 1.36.299.565.448 1.173.448 1.824 0 .117-.005.235-.016.352v.4h-6.32c.032.608.171 1.115.416 1.52.256.395.571.693.944.896.384.203.79.304 1.216.304.555 0 1.019-.128 1.392-.384.374-.256.646-.603.816-1.04h1.328c-.213.736-.624 1.349-1.232 1.84-.597.48-1.365.72-2.304.72zm0-7.184c-.64 0-1.21.197-1.712.592-.49.384-.773.949-.848 1.696h4.992c-.032-.715-.277-1.275-.736-1.68-.458-.405-1.024-.608-1.696-.608zM1.184 145v-11.2h1.344v4.944h5.808V133.8H9.68V145H8.336v-5.152H2.528V145H1.184zm11.5954-9.696c-.2667 0-.4907-.085-.672-.256-.1707-.181-.256-.405-.256-.672 0-.256.0853-.469.256-.64.1813-.171.4053-.256.672-.256.256 0 .4746.085.656.256.1813.171.272.384.272.64 0 .267-.0907.491-.272.672-.1814.171-.4.256-.656.256zm-.672 9.696v-7.936h1.344V145h-1.344zm3.6841 0v-11.52h1.344v6.928l3.248-3.344h1.648l-3.52 3.584 3.968 4.352h-1.712l-3.632-4.112V145h-1.344zm11.0524.192c-.7574 0-1.4294-.171-2.016-.512-.5867-.352-1.0507-.837-1.392-1.456-.3307-.619-.496-1.349-.496-2.192 0-.832.1653-1.557.496-2.176.3306-.629.7893-1.115 1.376-1.456.5973-.352 1.2853-.528 2.064-.528.768 0 1.4293.176 1.984.528.5653.341.9973.795 1.296 1.36.2986.565.448 1.173.448 1.824 0 .117-.0054.235-.016.352v.4h-6.32c.032.608.1706 1.115.416 1.52.256.395.5706.693.944.896.384.203.7893.304 1.216.304.5546 0 1.0186-.128 1.392-.384.3733-.256.6453-.603.816-1.04h1.328c-.2134.736-.624 1.349-1.232 1.84-.5974.48-1.3654.72-2.304.72zm0-7.184c-.64 0-1.2107.197-1.712.592-.4907.384-.7734.949-.848 1.696h4.992c-.032-.715-.2774-1.275-.736-1.68-.4587-.405-1.024-.608-1.696-.608zm13.4237 7.184c-.8213 0-1.536-.149-2.144-.448-.608-.299-1.0773-.715-1.408-1.248-.3306-.533-.496-1.152-.496-1.856h1.408c0 .437.1014.843.304 1.216.2027.363.496.656.88.88.3947.213.88.32 1.456.32.7574 0 1.344-.181 1.76-.544.416-.363.624-.816.624-1.36 0-.448-.096-.805-.288-1.072-.192-.277-.4533-.501-.784-.672-.32-.171-.6933-.32-1.12-.448-.416-.128-.8533-.272-1.312-.432-.864-.299-1.504-.667-1.92-1.104-.416-.448-.624-1.029-.624-1.744-.0106-.597.128-1.125.416-1.584.288-.469.6934-.832 1.216-1.088.5334-.267 1.1627-.4 1.888-.4.7147 0 1.3334.133 1.856.4.5334.267.944.635 1.232 1.104.2987.469.4534 1.003.464 1.6h-1.408c0-.309-.08-.613-.24-.912-.16-.309-.4053-.56-.736-.752-.32-.192-.7253-.288-1.216-.288-.608-.011-1.1093.144-1.504.464-.384.32-.576.763-.576 1.328 0 .48.1334.848.4 1.104.2774.256.6614.469 1.152.64.4907.16 1.056.347 1.696.56.5334.192 1.0134.416 1.44.672.4267.256.7574.587.992.992.2454.405.368.923.368 1.552 0 .533-.1386 1.04-.416 1.52-.2773.469-.6986.853-1.264 1.152-.5546.299-1.2533.448-2.096.448zm5.682-.192v-11.2h6.928v1.104h-5.584v3.904h5.104v1.088h-5.104v4h5.584V145h-6.928zm14.1193.192c-1.0987 0-2.064-.24-2.896-.72-.8214-.491-1.4667-1.173-1.936-2.048-.4587-.875-.688-1.883-.688-3.024s.2293-2.144.688-3.008c.4693-.875 1.1146-1.557 1.936-2.048.832-.491 1.7973-.736 2.896-.736 1.1093 0 2.0746.245 2.896.736.832.491 1.4773 1.173 1.936 2.048.4586.864.688 1.867.688 3.008s-.2294 2.149-.688 3.024c-.4587.875-1.104 1.557-1.936 2.048-.8214.48-1.7867.72-2.896.72zm0-1.184c.8213 0 1.5413-.181 2.16-.544.6293-.373 1.1146-.901 1.456-1.584.352-.693.528-1.52.528-2.48s-.176-1.781-.528-2.464c-.3414-.683-.8267-1.205-1.456-1.568-.6187-.373-1.3387-.56-2.16-.56-.8214 0-1.5467.187-2.176.56-.6187.363-1.104.885-1.456 1.568-.3414.683-.512 1.504-.512 2.464s.1706 1.787.512 2.48c.352.683.8373 1.211 1.456 1.584.6293.363 1.3546.544 2.176.544zm10.9892.992l4.128-11.2h1.424l4.112 11.2h-1.424l-1.024-2.88h-4.768l-1.04 2.88h-1.408zm2.848-3.968h3.968l-1.984-5.536-1.984 5.536zm11.6115 4.16c-.7573 0-1.44-.171-2.048-.512-.5973-.352-1.072-.837-1.424-1.456-.3413-.629-.512-1.36-.512-2.192 0-.832.1707-1.557.512-2.176.352-.629.8267-1.115 1.424-1.456.608-.352 1.2907-.528 2.048-.528.9387 0 1.728.245 2.368.736.6507.491 1.0614 1.147 1.232 1.968h-1.376c-.1066-.491-.368-.869-.784-1.136-.416-.277-.9013-.416-1.456-.416-.448 0-.8693.112-1.264.336-.3946.224-.7146.56-.96 1.008-.2453.448-.368 1.003-.368 1.664s.1227 1.216.368 1.664c.2454.448.5654.789.96 1.024.3947.224.816.336 1.264.336.5547 0 1.04-.133 1.456-.4.416-.277.6774-.667.784-1.168h1.376c-.16.8-.5653 1.451-1.216 1.952-.6506.501-1.4453.752-2.384.752zm8.117 0c-.6613 0-1.2106-.112-1.648-.336-.4373-.224-.7626-.523-.976-.896-.2133-.373-.32-.779-.32-1.216 0-.811.3094-1.435.928-1.872.6187-.437 1.4614-.656 2.528-.656h2.144v-.096c0-.693-.1813-1.216-.544-1.568-.3626-.363-.848-.544-1.456-.544-.5226 0-.976.133-1.36.4-.3733.256-.608.635-.704 1.136h-1.376c.0534-.576.2454-1.061.576-1.456.3414-.395.7627-.693 1.264-.896.5014-.213 1.0347-.32 1.6-.32 1.1094 0 1.9414.299 2.496.896.5654.587.848 1.371.848 2.352V145h-1.2l-.08-1.424c-.224.448-.5546.832-.992 1.152-.4266.309-1.0026.464-1.728.464zm.208-1.136c.512 0 .9494-.133 1.312-.4.3734-.267.656-.613.848-1.04.192-.427.288-.875.288-1.344v-.016h-2.032c-.7893 0-1.3493.139-1.68.416-.32.267-.48.603-.48 1.008 0 .416.1494.752.448 1.008.3094.245.7414.368 1.296.368zm9.4084 1.136c-.789 0-1.483-.181-2.08-.544-.587-.363-1.045-.859-1.3761-1.488-.32-.629-.48-1.344-.48-2.144s.1653-1.509.496-2.128c.3311-.629.7891-1.12 1.3761-1.472.587-.363 1.28-.544 2.08-.544.651 0 1.227.133 1.728.4.501.267.891.64 1.168 1.12v-4.912h1.344V145h-1.216l-.128-1.312c-.256.384-.624.731-1.104 1.04-.48.309-1.083.464-1.808.464zm.144-1.168c.533 0 1.003-.123 1.408-.368.416-.256.736-.608.96-1.056.235-.448.352-.971.352-1.568 0-.597-.117-1.12-.352-1.568-.224-.448-.544-.795-.96-1.04-.405-.256-.875-.384-1.408-.384-.523 0-.992.128-1.408.384-.405.245-.725.592-.96 1.04-.224.448-.336.971-.336 1.568 0 .597.112 1.12.336 1.568.235.448.555.8.96 1.056.416.245.885.368 1.408.368zm9.871 1.168c-.758 0-1.43-.171-2.016-.512-.587-.352-1.051-.837-1.392-1.456-.331-.619-.496-1.349-.496-2.192 0-.832.165-1.557.496-2.176.33-.629.789-1.115 1.376-1.456.597-.352 1.285-.528 2.064-.528.768 0 1.429.176 1.984.528.565.341.997.795 1.296 1.36.298.565.448 1.173.448 1.824 0 .117-.006.235-.016.352v.4h-6.32c.032.608.17 1.115.416 1.52.256.395.57.693.944.896.384.203.789.304 1.216.304.554 0 1.018-.128 1.392-.384.373-.256.645-.603.816-1.04h1.328c-.214.736-.624 1.349-1.232 1.84-.598.48-1.366.72-2.304.72zm0-7.184c-.64 0-1.211.197-1.712.592-.491.384-.774.949-.848 1.696h4.992c-.032-.715-.278-1.275-.736-1.68-.459-.405-1.024-.608-1.696-.608zm5.541 6.992v-7.936h1.216l.096 1.152c.256-.427.597-.757 1.024-.992.427-.235.907-.352 1.44-.352.629 0 1.168.128 1.616.384.459.256.811.645 1.056 1.168.277-.48.656-.859 1.136-1.136.491-.277 1.019-.416 1.584-.416.949 0 1.707.288 2.272.864.565.565.848 1.44.848 2.624V145h-1.328v-4.496c0-.821-.165-1.44-.496-1.856-.331-.416-.805-.624-1.424-.624-.64 0-1.173.251-1.6.752-.416.491-.624 1.195-.624 2.112V145h-1.344v-4.496c0-.821-.165-1.44-.496-1.856-.331-.416-.805-.624-1.424-.624-.629 0-1.157.251-1.584.752-.416.491-.624 1.195-.624 2.112V145h-1.344zm14.942 3.52l1.968-4.288h-.464l-3.152-7.168h1.456l2.624 6.176 2.784-6.176h1.392l-5.2 11.456h-1.408zm13.077-13.216c-.266 0-.49-.085-.672-.256-.17-.181-.256-.405-.256-.672 0-.256.086-.469.256-.64.182-.171.406-.256.672-.256.256 0 .475.085.656.256.182.171.272.384.272.64 0 .267-.09.491-.272.672-.181.171-.4.256-.656.256zm-.672 9.696v-7.936h1.344V145h-1.344zm6.724.192c-.949 0-1.738-.24-2.368-.72-.629-.48-.997-1.131-1.104-1.952h1.376c.086.416.304.779.656 1.088.363.299.848.448 1.456.448.566 0 .982-.117 1.248-.352.267-.245.4-.533.4-.864 0-.48-.176-.8-.528-.96-.341-.16-.826-.304-1.456-.432-.426-.085-.853-.208-1.28-.368-.426-.16-.784-.384-1.072-.672-.288-.299-.432-.688-.432-1.168 0-.693.256-1.259.768-1.696.523-.448 1.227-.672 2.112-.672.843 0 1.531.213 2.064.64.544.416.859 1.013.944 1.792h-1.328c-.053-.405-.229-.72-.528-.944-.288-.235-.677-.352-1.168-.352-.48 0-.853.101-1.12.304-.256.203-.384.469-.384.8 0 .32.166.571.496.752.342.181.8.336 1.376.464.491.107.955.24 1.392.4.448.149.811.379 1.088.688.288.299.432.736.432 1.312.011.715-.261 1.307-.816 1.776-.544.459-1.285.688-2.224.688zm-148.126 24c-.75733 0-1.44-.171-2.048-.512-.59733-.352-1.072-.837-1.424-1.456-.341333-.629-.512-1.36-.512-2.192 0-.832.170667-1.557.512-2.176.352-.629.82667-1.115 1.424-1.456.608-.352 1.29067-.528 2.048-.528.93867 0 1.728.245 2.368.736.65067.491 1.06133 1.147 1.232 1.968H6.976c-.10667-.491-.368-.869-.784-1.136-.416-.277-.90133-.416-1.456-.416-.448 0-.86933.112-1.264.336-.39467.224-.71467.56-.96 1.008-.24533.448-.368 1.003-.368 1.664s.12267 1.216.368 1.664c.24533.448.56533.789.96 1.024.39467.224.816.336 1.264.336.55467 0 1.04-.133 1.456-.4.416-.277.67733-.667.784-1.168h1.376c-.16.8-.56533 1.451-1.216 1.952-.65067.501-1.44533.752-2.384.752zm9.093 0c-.7467 0-1.4187-.171-2.016-.512-.5973-.341-1.072-.821-1.424-1.44-.3413-.629-.512-1.365-.512-2.208 0-.843.176-1.573.528-2.192.352-.629.8267-1.115 1.424-1.456.608-.341 1.2853-.512 2.032-.512.7467 0 1.4187.171 2.016.512.5973.341 1.0667.827 1.408 1.456.352.619.528 1.349.528 2.192 0 .843-.176 1.579-.528 2.208-.352.619-.832 1.099-1.44 1.44-.5973.341-1.2693.512-2.016.512zm0-1.152c.4587 0 .8853-.112 1.28-.336.3947-.224.7147-.56.96-1.008.2453-.448.368-1.003.368-1.664s-.1227-1.216-.368-1.664c-.2347-.448-.5493-.784-.944-1.008-.3947-.224-.816-.336-1.264-.336-.4587 0-.8853.112-1.28.336-.3947.224-.7147.56-.96 1.008-.2453.448-.368 1.003-.368 1.664s.1227 1.216.368 1.664c.2453.448.56.784.944 1.008.3947.224.816.336 1.264.336zm5.8528.96v-7.936h1.216l.096 1.152c.256-.427.5973-.757 1.024-.992.4266-.235.9066-.352 1.44-.352.6293 0 1.168.128 1.616.384.4586.256.8106.645 1.056 1.168.2773-.48.656-.859 1.136-1.136.4906-.277 1.0186-.416 1.584-.416.9493 0 1.7066.288 2.272.864.5653.565.848 1.44.848 2.624V169h-1.328v-4.496c0-.821-.1654-1.44-.496-1.856-.3307-.416-.8054-.624-1.424-.624-.64 0-1.1734.251-1.6.752-.416.491-.624 1.195-.624 2.112V169h-1.344v-4.496c0-.821-.1654-1.44-.496-1.856-.3307-.416-.8054-.624-1.424-.624-.6294 0-1.1574.251-1.584.752-.416.491-.624 1.195-.624 2.112V169h-1.344zm14.3125 3.52v-11.456h1.216l.128 1.312c.256-.384.6186-.731 1.088-1.04.48-.309 1.088-.464 1.824-.464.7893 0 1.4773.181 2.064.544.5866.363 1.04.859 1.36 1.488.3306.629.496 1.344.496 2.144s-.1654 1.515-.496 2.144c-.32.619-.7787 1.109-1.376 1.472-.5867.352-1.2747.528-2.064.528-.6507 0-1.232-.133-1.744-.4-.5014-.267-.8854-.64-1.152-1.12v4.848h-1.344zm4.096-4.496c.5333 0 1.0026-.123 1.408-.368.4053-.256.7253-.608.96-1.056.2346-.448.352-.971.352-1.568 0-.597-.1174-1.12-.352-1.568-.2347-.448-.5547-.795-.96-1.04-.4054-.256-.8747-.384-1.408-.384-.5334 0-1.0027.128-1.408.384-.4054.245-.7254.592-.96 1.04-.2347.448-.352.971-.352 1.568 0 .597.1173 1.12.352 1.568.2346.448.5546.8.96 1.056.4053.245.8746.368 1.408.368zm5.9508.976v-11.52h1.344V169h-1.344zm7.1149.192c-.7573 0-1.4293-.171-2.016-.512-.5867-.352-1.0507-.837-1.392-1.456-.3307-.619-.496-1.349-.496-2.192 0-.832.1653-1.557.496-2.176.3307-.629.7893-1.115 1.376-1.456.5973-.352 1.2853-.528 2.064-.528.768 0 1.4293.176 1.984.528.5653.341.9973.795 1.296 1.36.2987.565.448 1.173.448 1.824 0 .117-.0053.235-.016.352v.4h-6.32c.032.608.1707 1.115.416 1.52.256.395.5707.693.944.896.384.203.7893.304 1.216.304.5547 0 1.0187-.128 1.392-.384.3733-.256.6453-.603.816-1.04h1.328c-.2133.736-.624 1.349-1.232 1.84-.5973.48-1.3653.72-2.304.72zm0-7.184c-.64 0-1.2107.197-1.712.592-.4907.384-.7733.949-.848 1.696h4.992c-.032-.715-.2773-1.275-.736-1.68s-1.024-.608-1.696-.608zM59.5838 169c-.7254 0-1.296-.176-1.712-.528-.416-.352-.624-.987-.624-1.904V162.2h-1.3761v-1.136h1.3761l.176-1.904h1.168v1.904h2.336v1.136h-2.336v4.368c0 .501.1013.843.304 1.024.2026.171.56.256 1.072.256h.832V169h-1.216zm6.4007.192c-.7573 0-1.4293-.171-2.016-.512-.5867-.352-1.0507-.837-1.392-1.456-.3307-.619-.496-1.349-.496-2.192 0-.832.1653-1.557.496-2.176.3307-.629.7893-1.115 1.376-1.456.5973-.352 1.2853-.528 2.064-.528.768 0 1.4293.176 1.984.528.5653.341.9973.795 1.296 1.36.2987.565.448 1.173.448 1.824 0 .117-.0053.235-.016.352v.4h-6.32c.032.608.1707 1.115.416 1.52.256.395.5707.693.944.896.384.203.7893.304 1.216.304.5547 0 1.0187-.128 1.392-.384.3733-.256.6453-.603.816-1.04h1.328c-.2133.736-.624 1.349-1.232 1.84-.5973.48-1.3653.72-2.304.72zm0-7.184c-.64 0-1.2107.197-1.712.592-.4907.384-.7733.949-.848 1.696h4.992c-.032-.715-.2773-1.275-.736-1.68s-1.024-.608-1.696-.608zM71.5259 169v-11.52h1.344V169h-1.344zm4.4109 3.52l1.968-4.288h-.464l-3.152-7.168h1.456l2.624 6.176 2.784-6.176h1.392l-5.2 11.456h-1.408zm14.341-3.52l-2.912-7.936h2.144l2.016 6 2.016-6h2.144L92.7578 169h-2.48zm7.8037-9.168c-.3733 0-.6827-.112-.928-.336-.2347-.224-.352-.507-.352-.848 0-.341.1173-.619.352-.832.2453-.224.5547-.336.928-.336.3733 0 .6773.112.912.336.2453.213.368.491.368.832 0 .341-.1227.624-.368.848-.2347.224-.5387.336-.912.336zM97.0575 169v-7.936h2.048V169h-2.048zm7.8335.192c-.747 0-1.413-.181-2-.544-.587-.363-1.051-.859-1.392-1.488-.341-.629-.512-1.344-.512-2.144s.171-1.509.512-2.128c.341-.629.805-1.12 1.392-1.472.587-.363 1.253-.544 2-.544.597 0 1.12.112 1.568.336.448.224.811.539 1.088.944v-4.672h2.048V169h-1.824l-.224-1.136c-.256.352-.597.661-1.024.928-.416.267-.96.4-1.632.4zm.432-1.792c.661 0 1.2-.219 1.616-.656.427-.448.64-1.019.64-1.712 0-.693-.213-1.259-.64-1.696-.416-.448-.955-.672-1.616-.672-.651 0-1.189.219-1.616.656-.427.437-.64 1.003-.64 1.696 0 .693.213 1.264.64 1.712.427.448.965.672 1.616.672zm10.214 1.792c-.8 0-1.51-.171-2.128-.512-.619-.341-1.104-.821-1.456-1.44-.352-.619-.528-1.333-.528-2.144 0-.821.17-1.552.512-2.192.352-.64.832-1.136 1.44-1.488.618-.363 1.344-.544 2.176-.544.778 0 1.466.171 2.064.512.597.341 1.061.811 1.392 1.408.341.587.512 1.243.512 1.968 0 .117-.006.24-.016.368 0 .128-.006.261-.016.4h-6.032c.042.619.256 1.104.64 1.456.394.352.869.528 1.424.528.416 0 .762-.091 1.04-.272.288-.192.501-.437.64-.736h2.08c-.15.501-.4.96-.752 1.376-.342.405-.768.725-1.28.96-.502.235-1.072.352-1.712.352zm.016-6.656c-.502 0-.944.144-1.328.432-.384.277-.63.704-.736 1.28h3.952c-.032-.523-.224-.939-.576-1.248-.352-.309-.79-.464-1.312-.464zm9.498 6.656c-.768 0-1.461-.176-2.08-.528-.608-.352-1.093-.837-1.456-1.456-.352-.629-.528-1.355-.528-2.176 0-.821.181-1.541.544-2.16.363-.629.848-1.12 1.456-1.472.619-.352 1.312-.528 2.08-.528.757 0 1.44.176 2.048.528.619.352 1.104.843 1.456 1.472.363.619.544 1.339.544 2.16 0 .821-.181 1.547-.544 2.176-.352.619-.837 1.104-1.456 1.456-.619.352-1.307.528-2.064.528zm0-1.776c.533 0 .997-.197 1.392-.592.395-.405.592-1.003.592-1.792 0-.789-.197-1.381-.592-1.776-.395-.405-.853-.608-1.376-.608-.544 0-1.013.203-1.408.608-.384.395-.576.987-.576 1.776s.192 1.387.576 1.792c.395.395.859.592 1.392.592zm5.719-2.192v-1.712h6.704v1.712h-6.704zm13.318 3.968c-.598 0-1.12-.112-1.568-.336-.448-.224-.811-.539-1.088-.944l-.224 1.088h-1.824v-11.52h2.048v4.72c.256-.352.592-.661 1.008-.928.426-.267.976-.4 1.648-.4.746 0 1.413.181 2 .544.586.363 1.05.859 1.392 1.488.341.629.512 1.344.512 2.144s-.171 1.515-.512 2.144c-.342.619-.806 1.109-1.392 1.472-.587.352-1.254.528-2 .528zm-.432-1.792c.65 0 1.189-.219 1.616-.656.426-.437.64-1.003.64-1.696 0-.693-.214-1.264-.64-1.712-.427-.448-.966-.672-1.616-.672-.662 0-1.206.224-1.632.672-.416.437-.624 1.003-.624 1.696 0 .693.208 1.264.624 1.712.426.437.97.656 1.632.656zm8.901 1.792c-.682 0-1.242-.107-1.68-.32-.437-.224-.762-.517-.976-.88-.213-.363-.32-.763-.32-1.2 0-.736.288-1.333.864-1.792.576-.459 1.44-.688 2.592-.688h2.016v-.192c0-.544-.154-.944-.464-1.2-.309-.256-.693-.384-1.152-.384-.416 0-.778.101-1.088.304-.309.192-.501.48-.576.864h-2c.054-.576.246-1.077.576-1.504.342-.427.779-.752 1.312-.976.534-.235 1.131-.352 1.792-.352 1.131 0 2.022.283 2.672.848.651.565.976 1.365.976 2.4V169h-1.744l-.192-1.28c-.234.427-.565.779-.992 1.056-.416.277-.954.416-1.616.416zm.464-1.6c.587 0 1.04-.192 1.36-.576.331-.384.539-.859.624-1.424h-1.744c-.544 0-.933.101-1.168.304-.234.192-.352.432-.352.72 0 .309.118.549.352.72.235.171.544.256.928.256zm9.315 1.6c-.704 0-1.323-.112-1.856-.336-.534-.235-.96-.555-1.28-.96-.32-.405-.512-.875-.576-1.408h2.064c.064.309.234.576.512.8.288.213.656.32 1.104.32.448 0 .773-.091.976-.272.213-.181.32-.389.32-.624 0-.341-.15-.571-.448-.688-.299-.128-.715-.251-1.248-.368-.342-.075-.688-.165-1.04-.272-.352-.107-.678-.24-.976-.4-.288-.171-.523-.384-.704-.64-.182-.267-.272-.592-.272-.976 0-.704.277-1.296.832-1.776.565-.48 1.354-.72 2.368-.72.938 0 1.685.219 2.24.656.565.437.901 1.04 1.008 1.808h-1.936c-.118-.587-.56-.88-1.328-.88-.384 0-.683.075-.896.224-.203.149-.304.336-.304.56 0 .235.154.421.464.56.309.139.72.267 1.232.384.554.128 1.061.272 1.52.432.469.149.842.379 1.12.688.277.299.416.731.416 1.296.01.491-.118.933-.384 1.328-.267.395-.651.704-1.152.928-.502.224-1.094.336-1.776.336zm8.982 0c-.8 0-1.509-.171-2.128-.512-.619-.341-1.104-.821-1.456-1.44-.352-.619-.528-1.333-.528-2.144 0-.821.171-1.552.512-2.192.352-.64.832-1.136 1.44-1.488.619-.363 1.344-.544 2.176-.544.779 0 1.467.171 2.064.512.597.341 1.061.811 1.392 1.408.341.587.512 1.243.512 1.968 0 .117-.005.24-.016.368 0 .128-.005.261-.016.4h-6.032c.043.619.256 1.104.64 1.456.395.352.869.528 1.424.528.416 0 .763-.091 1.04-.272.288-.192.501-.437.64-.736h2.08c-.149.501-.4.96-.752 1.376-.341.405-.768.725-1.28.96-.501.235-1.072.352-1.712.352zm.016-6.656c-.501 0-.944.144-1.328.432-.384.277-.629.704-.736 1.28h3.952c-.032-.523-.224-.939-.576-1.248-.352-.309-.789-.464-1.312-.464zm9.338 6.656c-.746 0-1.413-.181-2-.544-.586-.363-1.05-.859-1.392-1.488-.341-.629-.512-1.344-.512-2.144s.171-1.509.512-2.128c.342-.629.806-1.12 1.392-1.472.587-.363 1.254-.544 2-.544.598 0 1.12.112 1.568.336.448.224.811.539 1.088.944v-4.672h2.048V169h-1.824l-.224-1.136c-.256.352-.597.661-1.024.928-.416.267-.96.4-1.632.4zm.432-1.792c.662 0 1.2-.219 1.616-.656.427-.448.64-1.019.64-1.712 0-.693-.213-1.259-.64-1.696-.416-.448-.954-.672-1.616-.672-.65 0-1.189.219-1.616.656-.426.437-.64 1.003-.64 1.696 0 .693.214 1.264.64 1.712.427.448.966.672 1.616.672zm7.238 1.712c-.373 0-.683-.117-.928-.352-.235-.235-.352-.517-.352-.848 0-.341.117-.629.352-.864.245-.235.555-.352.928-.352s.677.117.912.352c.245.235.368.523.368.864 0 .331-.123.613-.368.848-.235.235-.539.352-.912.352z" fill="#000"/></svg>