<svg width="451" height="169" viewBox="0 0 451 169" fill="none" xmlns="http://www.w3.org/2000/svg"><path stroke="#477AAA" stroke-opacity=".4" d="M33 .5h385"/><path d="M55.0907 101v-9.8h1.176v4.326h5.082V91.2h1.176v9.8h-1.176v-4.508h-5.082V101h-1.176zm10.1459-8.484c-.2333 0-.4293-.0747-.588-.224-.1493-.1587-.224-.3547-.224-.588 0-.224.0747-.4107.224-.56.1587-.1493.3547-.224.588-.224.224 0 .4154.0747.574.224.1587.1493.238.336.238.56 0 .2333-.0793.4293-.238.588-.1586.1493-.35.224-.574.224zm-.588 8.484v-6.944h1.176V101h-1.176zm3.2237 0V90.92h1.176v6.062l2.842-2.926h1.442l-3.08 3.136 3.472 3.808h-1.498l-3.178-3.598V101h-1.176zm9.6708.168c-.6627 0-1.2507-.149-1.764-.448-.5134-.308-.9194-.7327-1.218-1.274-.2894-.5413-.434-1.1807-.434-1.918 0-.728.1446-1.3627.434-1.904.2893-.5507.6906-.9753 1.204-1.274.5226-.308 1.1246-.462 1.806-.462.672 0 1.2506.154 1.736.462.4946.2987.8726.6953 1.134 1.19.2613.4947.392 1.0267.392 1.596 0 .1027-.0047.2053-.014.308v.35h-5.53c.028.532.1493.9753.364 1.33.224.3453.4993.6067.826.784.336.177.6906.266 1.064.266.4853 0 .8913-.112 1.218-.336.3266-.224.5646-.5273.714-.91h1.162c-.1867.644-.546 1.181-1.078 1.61-.5227.42-1.1947.63-2.016.63zm0-6.286c-.56 0-1.0594.1727-1.498.518-.4294.336-.6767.8307-.742 1.484h4.368c-.028-.6253-.2427-1.1153-.644-1.47-.4014-.3547-.896-.532-1.484-.532zm3.9107 7.784l.812-3.094h1.218l-1.218 3.094h-.812zM88.0391 101l3.612-9.8h1.246l3.598 9.8h-1.246l-.896-2.52h-4.172l-.91 2.52h-1.232zm2.492-3.472h3.472l-1.736-4.844-1.736 4.844zM97.882 101V90.92h1.176V101h-1.176zm3.104 0v-6.944h1.064l.084 1.008c.224-.3733.522-.6627.896-.868.373-.2053.793-.308 1.26-.308.55 0 1.022.112 1.414.336.401.224.709.5647.924 1.022.242-.42.574-.7513.994-.994.429-.2427.891-.364 1.386-.364.83 0 1.493.252 1.988.756.494.4947.742 1.26.742 2.296V101h-1.162v-3.934c0-.7187-.145-1.26-.434-1.624-.29-.364-.705-.546-1.246-.546-.56 0-1.027.2193-1.4.658-.364.4293-.546 1.0453-.546 1.848V101h-1.176v-3.934c0-.7187-.145-1.26-.434-1.624-.29-.364-.705-.546-1.246-.546-.551 0-1.013.2193-1.386.658-.364.4293-.546 1.0453-.546 1.848V101h-1.176zm14.833.168c-.579 0-1.059-.098-1.442-.294-.383-.196-.667-.457-.854-.784-.187-.3267-.28-.6813-.28-1.064 0-.7093.271-1.2553.812-1.638.541-.3827 1.279-.574 2.212-.574h1.876v-.084c0-.6067-.159-1.064-.476-1.372-.317-.3173-.742-.476-1.274-.476-.457 0-.854.1167-1.19.35-.327.224-.532.5553-.616.994h-1.204c.047-.504.215-.9287.504-1.274.299-.3453.667-.6067 1.106-.784.439-.1867.905-.28 1.4-.28.971 0 1.699.2613 2.184.784.495.5133.742 1.1993.742 2.058V101h-1.05l-.07-1.246c-.196.392-.485.728-.868 1.008-.373.271-.877.406-1.512.406zm.182-.994c.448 0 .831-.117 1.148-.35.327-.2333.574-.5367.742-.91.168-.3733.252-.7653.252-1.176v-.014h-1.778c-.691 0-1.181.1213-1.47.364-.28.2333-.42.5273-.42.882 0 .364.131.658.392.882.271.215.649.322 1.134.322zm8.857.826v-9.8h3.22c.766 0 1.396.126 1.89.378.495.252.859.5927 1.092 1.022.243.4293.364.9147.364 1.456 0 .532-.116 1.0127-.35 1.442-.233.4293-.597.7747-1.092 1.036-.494.252-1.129.378-1.904.378h-2.044V101h-1.176zm1.176-5.082h2.016c.784 0 1.34-.1633 1.666-.49.336-.336.504-.7933.504-1.372 0-.588-.168-1.0453-.504-1.372-.326-.336-.882-.504-1.666-.504h-2.016v3.738zm8.844 5.25c-.579 0-1.06-.098-1.442-.294-.383-.196-.668-.457-.854-.784-.187-.3267-.28-.6813-.28-1.064 0-.7093.27-1.2553.812-1.638.541-.3827 1.278-.574 2.212-.574h1.876v-.084c0-.6067-.159-1.064-.476-1.372-.318-.3173-.742-.476-1.274-.476-.458 0-.854.1167-1.19.35-.327.224-.532.5553-.616.994h-1.204c.046-.504.214-.9287.504-1.274.298-.3453.667-.6067 1.106-.784.438-.1867.905-.28 1.4-.28.97 0 1.698.2613 2.184.784.494.5133.742 1.1993.742 2.058V101h-1.05l-.07-1.246c-.196.392-.486.728-.868 1.008-.374.271-.878.406-1.512.406zm.182-.994c.448 0 .83-.117 1.148-.35.326-.2333.574-.5367.742-.91.168-.3733.252-.7653.252-1.176v-.014h-1.778c-.691 0-1.181.1213-1.47.364-.28.2333-.42.5273-.42.882 0 .364.13.658.392.882.27.215.648.322 1.134.322zm5.082.826v-6.944h1.064l.098 1.33c.214-.4573.541-.8213.98-1.092.438-.2707.98-.406 1.624-.406v1.232h-.322c-.411 0-.789.0747-1.134.224-.346.14-.621.3827-.826.728-.206.3453-.308.8213-.308 1.428v3.5h-1.176zm5.086 0V90.92h1.176v6.062l2.842-2.926h1.442l-3.08 3.136L151.08 101h-1.498l-3.178-3.598V101h-1.176zm6.116 1.666l.812-3.094h1.218l-1.218 3.094h-.812zm9.218-1.652l-2.688-9.814h1.26l2.114 8.414 2.408-8.414h1.302l2.338 8.414 2.142-8.414h1.26l-2.744 9.8h-1.344l-2.338-8.092-2.394 8.092-1.316.014zm13.902.154c-.653 0-1.241-.149-1.764-.448-.523-.299-.938-.719-1.246-1.26-.299-.5507-.448-1.1947-.448-1.932 0-.7373.154-1.3767.462-1.918.308-.5507.723-.9753 1.246-1.274.532-.2987 1.125-.448 1.778-.448s1.241.1493 1.764.448c.523.2987.933.7233 1.232 1.274.308.5413.462 1.1807.462 1.918 0 .7373-.154 1.3813-.462 1.932-.308.541-.728.961-1.26 1.26-.523.299-1.111.448-1.764.448zm0-1.008c.401 0 .775-.098 1.12-.294.345-.196.625-.49.84-.882.215-.392.322-.8773.322-1.456s-.107-1.064-.322-1.456c-.205-.392-.481-.686-.826-.882-.345-.196-.714-.294-1.106-.294-.401 0-.775.098-1.12.294-.345.196-.625.49-.84.882-.215.392-.322.8773-.322 1.456s.107 1.064.322 1.456c.215.392.49.686.826.882.345.196.714.294 1.106.294zm8.285 1.008c-.653 0-1.241-.149-1.764-.448-.523-.299-.938-.719-1.246-1.26-.299-.5507-.448-1.1947-.448-1.932 0-.7373.154-1.3767.462-1.918.308-.5507.723-.9753 1.246-1.274.532-.2987 1.125-.448 1.778-.448s1.241.1493 1.764.448c.523.2987.933.7233 1.232 1.274.308.5413.462 1.1807.462 1.918 0 .7373-.154 1.3813-.462 1.932-.308.541-.728.961-1.26 1.26-.523.299-1.111.448-1.764.448zm0-1.008c.401 0 .775-.098 1.12-.294.345-.196.625-.49.84-.882.215-.392.322-.8773.322-1.456s-.107-1.064-.322-1.456c-.205-.392-.481-.686-.826-.882-.345-.196-.714-.294-1.106-.294-.401 0-.775.098-1.12.294-.345.196-.625.49-.84.882-.215.392-.322.8773-.322 1.456s.107 1.064.322 1.456c.215.392.49.686.826.882.345.196.714.294 1.106.294zm8.271 1.008c-.69 0-1.297-.159-1.82-.476-.513-.317-.914-.7513-1.204-1.302-.28-.5507-.42-1.176-.42-1.876s.145-1.3207.434-1.862c.29-.5507.691-.98 1.204-1.288.514-.3173 1.12-.476 1.82-.476.57 0 1.074.1167 1.512.35.439.2333.78.56 1.022.98V90.92h1.176V101h-1.064l-.112-1.148c-.224.336-.546.639-.966.91-.42.271-.947.406-1.582.406zm.126-1.022c.467 0 .878-.107 1.232-.322.364-.224.644-.532.84-.924.206-.392.308-.8493.308-1.372s-.102-.98-.308-1.372c-.196-.392-.476-.6953-.84-.91-.354-.224-.765-.336-1.232-.336-.457 0-.868.112-1.232.336-.354.2147-.634.518-.84.91-.196.392-.294.8493-.294 1.372s.098.98.294 1.372c.206.392.486.7.84.924.364.215.775.322 1.232.322zm6.915.854l-2.03-6.944h1.176l1.47 5.446 1.624-5.446h1.33l1.638 5.446 1.456-5.446h1.19l-2.03 6.944h-1.204l-1.708-5.726-1.708 5.726h-1.204zm11.219.168c-.579 0-1.059-.098-1.442-.294-.383-.196-.667-.457-.854-.784-.187-.3267-.28-.6813-.28-1.064 0-.7093.271-1.2553.812-1.638.541-.3827 1.279-.574 2.212-.574h1.876v-.084c0-.6067-.159-1.064-.476-1.372-.317-.3173-.742-.476-1.274-.476-.457 0-.854.1167-1.19.35-.327.224-.532.5553-.616.994h-1.204c.047-.504.215-.9287.504-1.274.299-.3453.667-.6067 1.106-.784.439-.1867.905-.28 1.4-.28.971 0 1.699.2613 2.184.784.495.5133.742 1.1993.742 2.058V101h-1.05l-.07-1.246c-.196.392-.485.728-.868 1.008-.373.271-.877.406-1.512.406zm.182-.994c.448 0 .831-.117 1.148-.35.327-.2333.574-.5367.742-.91.168-.3733.252-.7653.252-1.176v-.014h-1.778c-.691 0-1.181.1213-1.47.364-.28.2333-.42.5273-.42.882 0 .364.131.658.392.882.271.215.649.322 1.134.322zm5.633 3.906l1.722-3.752h-.406l-2.758-6.272h1.274l2.296 5.404 2.436-5.404h1.218l-4.55 10.024h-1.232zm10.798-3.08v-9.8h1.176v8.862h4.564V101h-5.74zm9.596.168c-.579 0-1.059-.098-1.442-.294-.383-.196-.667-.457-.854-.784-.187-.3267-.28-.6813-.28-1.064 0-.7093.271-1.2553.812-1.638.541-.3827 1.279-.574 2.212-.574h1.876v-.084c0-.6067-.159-1.064-.476-1.372-.317-.3173-.742-.476-1.274-.476-.457 0-.854.1167-1.19.35-.327.224-.532.5553-.616.994h-1.204c.047-.504.215-.9287.504-1.274.299-.3453.667-.6067 1.106-.784.439-.1867.905-.28 1.4-.28.971 0 1.699.2613 2.184.784.495.5133.742 1.1993.742 2.058V101h-1.05l-.07-1.246c-.196.392-.485.728-.868 1.008-.373.271-.877.406-1.512.406zm.182-.994c.448 0 .831-.117 1.148-.35.327-.2333.574-.5367.742-.91.168-.3733.252-.7653.252-1.176v-.014h-1.778c-.691 0-1.181.1213-1.47.364-.28.2333-.42.5273-.42.882 0 .364.131.658.392.882.271.215.649.322 1.134.322zm5.082.826v-6.944h1.064l.07 1.246c.224-.4387.546-.784.966-1.036.42-.252.896-.378 1.428-.378.821 0 1.475.252 1.96.756.495.4947.742 1.26.742 2.296V101h-1.176v-3.934c0-1.4467-.597-2.17-1.792-2.17-.597 0-1.097.2193-1.498.658-.392.4293-.588 1.0453-.588 1.848V101h-1.176zm11.134.168c-.663 0-1.251-.149-1.764-.448-.514-.308-.92-.7327-1.218-1.274-.29-.5413-.434-1.1807-.434-1.918 0-.728.144-1.3627.434-1.904.289-.5507.69-.9753 1.204-1.274.522-.308 1.124-.462 1.806-.462.672 0 1.25.154 1.736.462.494.2987.872.6953 1.134 1.19.261.4947.392 1.0267.392 1.596 0 .1027-.005.2053-.014.308v.35h-5.53c.028.532.149.9753.364 1.33.224.3453.499.6067.826.784.336.177.69.266 1.064.266.485 0 .891-.112 1.218-.336.326-.224.564-.5273.714-.91h1.162c-.187.644-.546 1.181-1.078 1.61-.523.42-1.195.63-2.016.63zm0-6.286c-.56 0-1.06.1727-1.498.518-.43.336-.677.8307-.742 1.484h4.368c-.028-.6253-.243-1.1153-.644-1.47-.402-.3547-.896-.532-1.484-.532zm3.911 7.784l.812-3.094h1.218l-1.218 3.094h-.812zm7.201-1.666v-9.8h1.176v8.862h4.564V101h-5.74zm9.819.168c-.821 0-1.474-.247-1.96-.742-.485-.504-.728-1.274-.728-2.31v-4.06h1.176v3.934c0 1.4467.593 2.17 1.778 2.17.607 0 1.106-.2147 1.498-.644.402-.4387.602-1.0593.602-1.862v-3.598h1.176V101h-1.064l-.084-1.246c-.214.439-.536.784-.966 1.036-.42.252-.896.378-1.428.378zm8.222-.168c-.635 0-1.134-.154-1.498-.462-.364-.308-.546-.8633-.546-1.666V95.05h-1.204v-.994h1.204l.154-1.666h1.022v1.666h2.044v.994h-2.044v3.822c0 .4387.089.7373.266.896.177.1493.49.224.938.224h.728V101h-1.064zm5.414 0c-.635 0-1.134-.154-1.498-.462-.364-.308-.546-.8633-.546-1.666V95.05h-1.204v-.994h1.204l.154-1.666h1.022v1.666h2.044v.994h-2.044v3.822c0 .4387.089.7373.266.896.177.1493.49.224.938.224h.728V101h-1.064zm5.601.168c-.663 0-1.251-.149-1.764-.448-.514-.308-.92-.7327-1.218-1.274-.29-.5413-.434-1.1807-.434-1.918 0-.728.144-1.3627.434-1.904.289-.5507.69-.9753 1.204-1.274.522-.308 1.124-.462 1.806-.462.672 0 1.25.154 1.736.462.494.2987.872.6953 1.134 1.19.261.4947.392 1.0267.392 1.596 0 .1027-.005.2053-.014.308v.35h-5.53c.028.532.149.9753.364 1.33.224.3453.499.6067.826.784.336.177.69.266 1.064.266.485 0 .891-.112 1.218-.336.326-.224.564-.5273.714-.91h1.162c-.187.644-.546 1.181-1.078 1.61-.523.42-1.195.63-2.016.63zm0-6.286c-.56 0-1.06.1727-1.498.518-.43.336-.677.8307-.742 1.484h4.368c-.028-.6253-.243-1.1153-.644-1.47-.402-.3547-.896-.532-1.484-.532zm4.849 6.118v-6.944h1.064l.098 1.33c.214-.4573.541-.8213.98-1.092.438-.2707.98-.406 1.624-.406v1.232h-.322c-.411 0-.789.0747-1.134.224-.346.14-.621.3827-.826.728-.206.3453-.308.8213-.308 1.428v3.5h-1.176zm6.485 0l-2.03-6.944h1.176l1.47 5.446 1.624-5.446h1.33l1.638 5.446 1.456-5.446h1.19l-2.03 6.944h-1.204l-1.708-5.726-1.708 5.726h-1.204zm12.059.168c-.653 0-1.241-.149-1.764-.448-.522-.299-.938-.719-1.246-1.26-.298-.5507-.448-1.1947-.448-1.932 0-.7373.154-1.3767.462-1.918.308-.5507.724-.9753 1.246-1.274.532-.2987 1.125-.448 1.778-.448.654 0 1.242.1493 1.764.448.523.2987.934.7233 1.232 1.274.308.5413.462 1.1807.462 1.918 0 .7373-.154 1.3813-.462 1.932-.308.541-.728.961-1.26 1.26-.522.299-1.11.448-1.764.448zm0-1.008c.402 0 .775-.098 1.12-.294.346-.196.626-.49.84-.882.215-.392.322-.8773.322-1.456s-.107-1.064-.322-1.456c-.205-.392-.48-.686-.826-.882-.345-.196-.714-.294-1.106-.294-.401 0-.774.098-1.12.294-.345.196-.625.49-.84.882-.214.392-.322.8773-.322 1.456s.108 1.064.322 1.456c.215.392.49.686.826.882.346.196.714.294 1.106.294zm5.122.84v-6.944h1.064l.098 1.33c.214-.4573.541-.8213.98-1.092.438-.2707.98-.406 1.624-.406v1.232h-.322c-.411 0-.789.0747-1.134.224-.346.14-.621.3827-.826.728-.206.3453-.308.8213-.308 1.428v3.5h-1.176zm7.829 0c-.634 0-1.134-.154-1.498-.462-.364-.308-.546-.8633-.546-1.666V95.05h-1.204v-.994h1.204l.154-1.666h1.022v1.666h2.044v.994h-2.044v3.822c0 .4387.089.7373.266.896.178.1493.49.224.938.224h.728V101h-1.064zm2.671 0V90.92h1.176v4.326c.233-.4293.564-.7607.994-.994.429-.2427.896-.364 1.4-.364.802 0 1.446.252 1.932.756.485.4947.728 1.26.728 2.296V101h-1.162v-3.934c0-1.4467-.584-2.17-1.75-2.17-.607 0-1.116.2193-1.526.658-.411.4293-.616 1.0453-.616 1.848V101h-1.176zm11.786 0v-9.8h1.176v8.862h4.564V101h-5.74zm7.356 0v-9.8h6.062v.966h-4.886v3.416h4.466v.952h-4.466v3.5h4.886V101h-6.062zm8.868 0v-8.484l-1.582.35v-.812l1.974-.854h.798v9.8h-1.19zm4.071 0l3.892-8.792h-5.376V91.2h6.58v.882l-3.85 8.918h-1.246zm13.69.168c-.672 0-1.256-.121-1.75-.364-.495-.243-.892-.574-1.19-.994-.29-.4293-.467-.9147-.532-1.456h1.148c.112.5413.373.98.784 1.316.41.3267.928.49 1.554.49.466 0 .868-.107 1.204-.322.336-.224.592-.5227.77-.896.186-.3733.28-.7887.28-1.246 0-.728-.206-1.316-.616-1.764-.411-.448-.943-.672-1.596-.672-.542 0-1.004.1213-1.386.364-.383.2427-.663.56-.84.952h-1.12l.84-5.376h5.138v1.022h-4.228l-.574 2.982c.224-.2707.532-.4947.924-.672.401-.1773.858-.266 1.372-.266.644 0 1.204.1493 1.68.448.485.2987.863.7047 1.134 1.218.27.5133.406 1.0967.406 1.75 0 .6253-.136 1.204-.406 1.736-.262.532-.649.957-1.162 1.274-.504.317-1.116.476-1.834.476zm5.24-.168v-9.8h5.964v.966h-4.788v3.444h4.074v.952h-4.074V101h-1.176zm7.478 0v-9.8h3.444c.691 0 1.26.112 1.708.336.458.2147.798.5133 1.022.896.224.3733.336.7933.336 1.26 0 .6347-.172 1.134-.518 1.498-.336.364-.742.616-1.218.756.364.0653.696.21.994.434.299.224.532.504.7.84.178.336.266.7047.266 1.106 0 .4947-.121.9473-.364 1.358-.242.401-.602.723-1.078.966-.476.233-1.054.35-1.736.35h-3.556zm1.176-5.516h2.184c.626 0 1.106-.1447 1.442-.434.336-.2987.504-.7093.504-1.232 0-.4947-.168-.8913-.504-1.19-.326-.2987-.821-.448-1.484-.448h-2.142v3.304zm0 4.536h2.254c.672 0 1.19-.154 1.554-.462.364-.3173.546-.756.546-1.316 0-.5507-.191-.9893-.574-1.316-.382-.336-.9-.504-1.554-.504h-2.226v3.598zM151.306 122v-8.834h-2.926v-.966h7.028v.966h-2.926V122h-1.176zm7.332.168c-.663 0-1.251-.149-1.764-.448-.514-.308-.92-.733-1.218-1.274-.29-.541-.434-1.181-.434-1.918 0-.728.144-1.363.434-1.904.289-.551.69-.975 1.204-1.274.522-.308 1.124-.462 1.806-.462.672 0 1.25.154 1.736.462.494.299.872.695 1.134 1.19.261.495.392 1.027.392 1.596 0 .103-.005.205-.014.308v.35h-5.53c.028.532.149.975.364 1.33.224.345.499.607.826.784.336.177.69.266 1.064.266.485 0 .891-.112 1.218-.336.326-.224.564-.527.714-.91h1.162c-.187.644-.546 1.181-1.078 1.61-.523.42-1.195.63-2.016.63zm0-6.286c-.56 0-1.06.173-1.498.518-.43.336-.677.831-.742 1.484h4.368c-.028-.625-.243-1.115-.644-1.47-.402-.355-.896-.532-1.484-.532zm4.849 6.118v-10.08h1.176V122h-1.176zm3.509.07c-.233 0-.429-.075-.588-.224-.149-.159-.224-.35-.224-.574 0-.224.075-.411.224-.56.159-.159.355-.238.588-.238.224 0 .411.079.56.238.159.149.238.336.238.56 0 .224-.079.415-.238.574-.149.149-.336.224-.56.224zm0-5.586c-.233 0-.429-.075-.588-.224-.149-.159-.224-.35-.224-.574 0-.224.075-.411.224-.56.159-.159.355-.238.588-.238.224 0 .411.079.56.238.159.149.238.336.238.56 0 .224-.079.415-.238.574-.149.149-.336.224-.56.224zm8.594 7.546c-.504-.485-.971-1.064-1.4-1.736-.429-.663-.775-1.409-1.036-2.24-.252-.84-.378-1.745-.378-2.716 0-.971.126-1.871.378-2.702.261-.84.607-1.591 1.036-2.254.429-.672.896-1.251 1.4-1.736h1.204v.112c-.859.84-1.549 1.825-2.072 2.954-.513 1.12-.77 2.329-.77 3.626 0 1.297.261 2.511.784 3.64.523 1.12 1.209 2.1 2.058 2.94v.112h-1.204zm2.619-5.6v-.994h2.674v-2.548h1.05v2.548h2.674v.994h-2.674v2.562h-1.05v-2.562h-2.674zm12.754 3.57v-2.1h-4.97v-.91l4.76-6.79h1.372v6.664h1.456v1.036h-1.456v2.1h-1.162zm-3.668-3.136h3.724v-5.362l-3.724 5.362zM199.44 122v-2.1h-4.97v-.91l4.76-6.79h1.372v6.664h1.456v1.036h-1.456v2.1h-1.162zm-3.668-3.136h3.724v-5.362l-3.724 5.362zm7.202 5.166v-.112c.85-.84 1.536-1.82 2.058-2.94.532-1.129.798-2.343.798-3.64 0-1.297-.261-2.506-.784-3.626-.522-1.129-1.208-2.114-2.058-2.954v-.112h1.19c.514.485.98 1.064 1.4 1.736.43.663.77 1.414 1.022 2.254.262.831.392 1.731.392 2.702 0 .971-.13 1.876-.392 2.716-.252.831-.592 1.577-1.022 2.24-.42.672-.886 1.251-1.4 1.736h-1.204zm13.24-1.862c-.868 0-1.619-.21-2.254-.63-.625-.429-1.106-1.022-1.442-1.778-.336-.765-.504-1.652-.504-2.66 0-1.008.168-1.89.504-2.646.336-.765.817-1.358 1.442-1.778.635-.429 1.386-.644 2.254-.644.868 0 1.615.215 2.24.644.626.42 1.106 1.013 1.442 1.778.336.756.504 1.638.504 2.646s-.168 1.895-.504 2.66c-.336.756-.816 1.349-1.442 1.778-.625.42-1.372.63-2.24.63zm0-1.036c.57 0 1.078-.159 1.526-.476.458-.327.812-.789 1.064-1.386.262-.607.392-1.33.392-2.17 0-.84-.13-1.559-.392-2.156-.252-.597-.606-1.055-1.064-1.372-.448-.327-.956-.49-1.526-.49-.578 0-1.092.163-1.54.49-.448.317-.802.775-1.064 1.372-.261.597-.392 1.316-.392 2.156 0 .84.131 1.563.392 2.17.262.597.616 1.059 1.064 1.386.448.317.962.476 1.54.476zm6.851.868v-8.484l-1.582.35v-.812l1.974-.854h.798v9.8h-1.19zm6.493.168c-.644 0-1.223-.117-1.736-.35-.513-.243-.919-.574-1.218-.994-.289-.429-.434-.924-.434-1.484 0-.597.173-1.134.518-1.61.355-.476.821-.793 1.4-.952-.532-.177-.943-.462-1.232-.854-.289-.392-.434-.821-.434-1.288 0-.476.126-.91.378-1.302.252-.401.611-.719 1.078-.952.467-.233 1.027-.35 1.68-.35s1.213.117 1.68.35c.467.233.826.551 1.078.952.252.392.378.826.378 1.302 0 .457-.145.887-.434 1.288-.289.392-.7.677-1.232.854.579.159 1.041.476 1.386.952.355.476.532 1.013.532 1.61 0 .56-.149 1.055-.448 1.484-.289.42-.691.751-1.204.994-.513.233-1.092.35-1.736.35zm0-5.81c.597 0 1.069-.149 1.414-.448.355-.308.532-.709.532-1.204 0-.551-.173-.966-.518-1.246-.345-.28-.821-.42-1.428-.42s-1.083.14-1.428.42c-.336.28-.504.695-.504 1.246 0 .495.173.896.518 1.204.345.299.817.448 1.414.448zm0 4.774c.737 0 1.288-.168 1.652-.504.373-.345.56-.798.56-1.358 0-.635-.201-1.115-.602-1.442-.401-.327-.938-.49-1.61-.49-.672 0-1.209.163-1.61.49-.401.327-.602.807-.602 1.442 0 .56.182 1.013.546 1.358.373.336.929.504 1.666.504zm8.839 1.036c-.709 0-1.307-.131-1.792-.392-.485-.271-.877-.63-1.176-1.078-.289-.448-.504-.947-.644-1.498-.131-.56-.196-1.129-.196-1.708 0-1.083.149-2.03.448-2.842.299-.821.728-1.461 1.288-1.918.569-.467 1.255-.7 2.058-.7.616 0 1.143.121 1.582.364.439.243.784.569 1.036.98.261.401.425.849.49 1.344h-1.092c-.103-.532-.331-.943-.686-1.232-.355-.289-.803-.434-1.344-.434-.737 0-1.358.35-1.862 1.05-.495.691-.761 1.773-.798 3.248.224-.439.579-.817 1.064-1.134.495-.327 1.087-.49 1.778-.49.56 0 1.083.131 1.568.392.495.261.896.63 1.204 1.106.308.467.462 1.017.462 1.652 0 .551-.135 1.078-.406 1.582s-.663.915-1.176 1.232c-.504.317-1.106.476-1.806.476zm-.084-1.036c.439 0 .831-.093 1.176-.28.345-.187.616-.443.812-.77.196-.336.294-.719.294-1.148 0-.663-.219-1.19-.658-1.582-.429-.401-.971-.602-1.624-.602-.439 0-.831.103-1.176.308-.345.196-.621.462-.826.798-.196.336-.294.7-.294 1.092 0 .42.098.798.294 1.134.205.327.481.583.826.77.345.187.737.28 1.176.28zm8.433 1.036c-.672 0-1.255-.121-1.75-.364-.495-.243-.891-.574-1.19-.994-.289-.429-.467-.915-.532-1.456h1.148c.112.541.373.98.784 1.316.411.327.929.49 1.554.49.467 0 .868-.107 1.204-.322.336-.224.593-.523.77-.896.187-.373.28-.789.28-1.246 0-.728-.205-1.316-.616-1.764-.411-.448-.943-.672-1.596-.672-.541 0-1.003.121-1.386.364s-.663.56-.84.952h-1.12l.84-5.376h5.138v1.022h-4.228l-.574 2.982c.224-.271.532-.495.924-.672.401-.177.859-.266 1.372-.266.644 0 1.204.149 1.68.448.485.299.863.705 1.134 1.218.271.513.406 1.097.406 1.75 0 .625-.135 1.204-.406 1.736-.261.532-.649.957-1.162 1.274-.504.317-1.115.476-1.834.476zm12.473 0c-.709 0-1.306-.131-1.792-.392-.485-.271-.877-.63-1.176-1.078-.289-.448-.504-.947-.644-1.498-.13-.56-.196-1.129-.196-1.708 0-1.083.15-2.03.448-2.842.299-.821.728-1.461 1.288-1.918.57-.467 1.256-.7 2.058-.7.616 0 1.144.121 1.582.364.439.243.784.569 1.036.98.262.401.425.849.49 1.344h-1.092c-.102-.532-.331-.943-.686-1.232-.354-.289-.802-.434-1.344-.434-.737 0-1.358.35-1.862 1.05-.494.691-.76 1.773-.798 3.248.224-.439.579-.817 1.064-1.134.495-.327 1.088-.49 1.778-.49.56 0 1.083.131 1.568.392.495.261.896.63 1.204 1.106.308.467.462 1.017.462 1.652 0 .551-.135 1.078-.406 1.582-.27.504-.662.915-1.176 1.232-.504.317-1.106.476-1.806.476zm-.084-1.036c.439 0 .831-.093 1.176-.28.346-.187.616-.443.812-.77.196-.336.294-.719.294-1.148 0-.663-.219-1.19-.658-1.582-.429-.401-.97-.602-1.624-.602-.438 0-.83.103-1.176.308-.345.196-.62.462-.826.798-.196.336-.294.7-.294 1.092 0 .42.098.798.294 1.134.206.327.481.583.826.77.346.187.738.28 1.176.28zm9.197 1.036c-.868 0-1.62-.21-2.254-.63-.626-.429-1.106-1.022-1.442-1.778-.336-.765-.504-1.652-.504-2.66 0-1.008.168-1.89.504-2.646.336-.765.816-1.358 1.442-1.778.634-.429 1.386-.644 2.254-.644.868 0 1.614.215 2.24.644.625.42 1.106 1.013 1.442 1.778.336.756.504 1.638.504 2.646s-.168 1.895-.504 2.66c-.336.756-.817 1.349-1.442 1.778-.626.42-1.372.63-2.24.63zm0-1.036c.569 0 1.078-.159 1.526-.476.457-.327.812-.789 1.064-1.386.261-.607.392-1.33.392-2.17 0-.84-.131-1.559-.392-2.156-.252-.597-.607-1.055-1.064-1.372-.448-.327-.957-.49-1.526-.49-.579 0-1.092.163-1.54.49-.448.317-.803.775-1.064 1.372-.262.597-.392 1.316-.392 2.156 0 .84.13 1.563.392 2.17.261.597.616 1.059 1.064 1.386.448.317.961.476 1.54.476zm9.707 1.036c-.868 0-1.62-.21-2.254-.63-.626-.429-1.106-1.022-1.442-1.778-.336-.765-.504-1.652-.504-2.66 0-1.008.168-1.89.504-2.646.336-.765.816-1.358 1.442-1.778.634-.429 1.386-.644 2.254-.644.868 0 1.614.215 2.24.644.625.42 1.106 1.013 1.442 1.778.336.756.504 1.638.504 2.646s-.168 1.895-.504 2.66c-.336.756-.817 1.349-1.442 1.778-.626.42-1.372.63-2.24.63zm0-1.036c.569 0 1.078-.159 1.526-.476.457-.327.812-.789 1.064-1.386.261-.607.392-1.33.392-2.17 0-.84-.131-1.559-.392-2.156-.252-.597-.607-1.055-1.064-1.372-.448-.327-.957-.49-1.526-.49-.579 0-1.092.163-1.54.49-.448.317-.803.775-1.064 1.372-.262.597-.392 1.316-.392 2.156 0 .84.13 1.563.392 2.17.261.597.616 1.059 1.064 1.386.448.317.961.476 1.54.476zm5.594.868v-.826c.663-.523 1.288-1.05 1.876-1.582.597-.541 1.125-1.073 1.582-1.596.467-.523.831-1.036 1.092-1.54.271-.504.406-.989.406-1.456 0-.345-.061-.667-.182-.966-.112-.299-.299-.537-.56-.714-.261-.187-.616-.28-1.064-.28-.429 0-.789.098-1.078.294-.289.187-.509.439-.658.756-.14.317-.21.658-.21 1.022h-1.134c0-.644.135-1.195.406-1.652.271-.467.639-.821 1.106-1.064.467-.243.994-.364 1.582-.364.868 0 1.577.247 2.128.742.56.485.84 1.213.84 2.184 0 .579-.145 1.153-.434 1.722-.289.56-.658 1.106-1.106 1.638-.448.523-.929 1.013-1.442 1.47-.504.457-.975.868-1.414 1.232h4.732v.98h-6.468zm11.167.168c-.644 0-1.222-.117-1.736-.35-.513-.243-.919-.574-1.218-.994-.289-.429-.434-.924-.434-1.484 0-.597.173-1.134.518-1.61.355-.476.822-.793 1.4-.952-.532-.177-.942-.462-1.232-.854-.289-.392-.434-.821-.434-1.288 0-.476.126-.91.378-1.302.252-.401.612-.719 1.078-.952.467-.233 1.027-.35 1.68-.35.654 0 1.214.117 1.68.35.467.233.826.551 1.078.952.252.392.378.826.378 1.302 0 .457-.144.887-.434 1.288-.289.392-.7.677-1.232.854.579.159 1.041.476 1.386.952.355.476.532 1.013.532 1.61 0 .56-.149 1.055-.448 1.484-.289.42-.69.751-1.204.994-.513.233-1.092.35-1.736.35zm0-5.81c.598 0 1.069-.149 1.414-.448.355-.308.532-.709.532-1.204 0-.551-.172-.966-.518-1.246-.345-.28-.821-.42-1.428-.42-.606 0-1.082.14-1.428.42-.336.28-.504.695-.504 1.246 0 .495.173.896.518 1.204.346.299.817.448 1.414.448zm0 4.774c.738 0 1.288-.168 1.652-.504.374-.345.56-.798.56-1.358 0-.635-.2-1.115-.602-1.442-.401-.327-.938-.49-1.61-.49-.672 0-1.208.163-1.61.49-.401.327-.602.807-.602 1.442 0 .56.182 1.013.546 1.358.374.336.929.504 1.666.504zm6.004.868v-8.484l-1.582.35v-.812l1.974-.854h.798v9.8h-1.19z" fill="#18232A"/><path d="M216 33.5c0-6.9043-5.596-12.5-12.5-12.5S191 26.5957 191 33.5 196.596 46 203.5 46c.073 0 .146 0 .22-.0049v-9.7265h-2.686v-3.1299h2.686V30.834c0-2.6709 1.631-4.126 4.013-4.126 1.143 0 2.124.083 2.408.1221v2.7929H208.5c-1.294 0-1.548.6153-1.548 1.5186v1.9922h3.101l-.406 3.1299h-2.695v9.2529C212.177 44.0176 216 39.208 216 33.5zM248.5 21c-6.903 0-12.5 5.5975-12.5 12.5S241.597 46 248.5 46 261 40.4025 261 33.5 255.403 21 248.5 21zm5.707 9.7462c.006.123.009.2466.009.3708 0 3.7912-2.886 8.163-8.164 8.1632-1.62 0-3.128-.4749-4.397-1.2888.224.0265.453.0397.684.0397 1.344 0 2.581-.4585 3.563-1.2281-1.256-.0233-2.315-.8528-2.68-1.9928.175.0335.355.0518.539.0518.262 0 .516-.0352.757-.1011-1.313-.2628-2.302-1.423-2.302-2.8123v-.0367c.387.215.829.3443 1.3.3588-.77-.514-1.277-1.3927-1.277-2.3882 0-.5256.142-1.0181.389-1.4421 1.415 1.736 3.529 2.8778 5.914 2.9978-.05-.2102-.075-.4292-.075-.6543 0-1.5838 1.285-2.8688 2.869-2.8688.826 0 1.571.3488 2.095.9066.653-.129 1.267-.3678 1.822-.6964-.215.6697-.67 1.2316-1.262 1.5869.58-.0694 1.133-.2234 1.647-.4519-.384.5755-.87 1.0809-1.431 1.4859z" fill="#18232A" fill-opacity=".6"/></svg>