<svg width="187" height="194" viewBox="0 0 187 194" fill="none" xmlns="http://www.w3.org/2000/svg"><g clip-path="url(#clip0)"><path fill-rule="evenodd" clip-rule="evenodd" d="M119.931 47.4241c-8.844-21.275-18.479-38.70528-26.0164-40.25855C74.5369 3.17164 4.42632 82.5176.093979 93.4285-1.70505 97.9591 22.564 106.573 51.7021 114.423c-5.0314 6.26-8.4118 11.033-9.2614 13.173-4.3323 10.91 142.5183 45.501 144.4763 36.079 1.958-9.423-31.278-118.3483-50.656-122.3422-3.792-.7814-9.526 1.6283-16.33 6.0916v-.0003z" fill="#FAFAFA"/><g opacity=".05"><mask id="a" maskUnits="userSpaceOnUse" x="3" y="17" width="167" height="167"><path opacity=".05" d="M135.242 17.8653L3.36706 118.596 169.8 183.146 135.242 17.8653z" fill="#fff"/></mask><g opacity=".05" mask="url(#a)"><path opacity=".05" fill-rule="evenodd" clip-rule="evenodd" d="M133.365-2.77337l-4.622 4.68645 5.599 1.81407-.977-6.50052zm-9.905-3.20938l-4.623 4.68645 5.599 1.814072-.976-6.500522zm1.513 11.43073l-4.622 4.68582 5.599 1.8141-.977-6.49992zm-9.906-3.20939l-4.622 4.68585 5.599 1.81397-.977-6.49982zm-9.906-3.209378L100.54 3.71505l5.598 1.81398-.977-6.499818zM95.2556-4.18027L90.634.505672l5.5987 1.813978-.9771-6.49992zM126.916 17.0176l-4.622 4.6862 5.599 1.814-.977-6.5002zm-9.905-3.2094l-4.622 4.6862 5.599 1.8141-.977-6.5003zm-9.906-3.2094l-4.622 4.6862 5.599 1.814-.977-6.5002zm-9.9053-3.20933l-4.622 4.68613 5.5984 1.8139-.9764-6.50003zm-9.9059-3.20948l-4.6217 4.68624 5.5987 1.81397-.977-6.50021zM77.3886.970706l-4.622 4.686144 5.5984 1.81388-.9764-6.500024zM67.4827-2.23878l-4.622 4.68615 5.599 1.81407-.977-6.50022zm-9.9055-3.20938l-4.622 4.686147 5.599 1.814073-.977-6.50022zM118.524 25.2387l-4.622 4.6861 5.599 1.8141-.977-6.5002zm-9.906-3.2094l-4.622 4.6861 5.599 1.814-.977-6.5001zm-9.9052-3.2094l-4.6221 4.6861 5.5987 1.814-.9766-6.5001zm-9.9059-3.2095l-4.6217 4.6863 5.5987 1.8139-.977-6.5002zm-10.3362-3.3489l-4.622 4.6862 5.599 1.814-.977-6.5002zm-9.9055-3.20937l-4.622 4.68617 5.599 1.814-.977-6.50017zm-9.9059-3.20949L54.0379 10.529l5.5984 1.8139-.977-6.50026zm-9.9052-3.20928l-4.622 4.68615 5.5987 1.81397-.9767-6.50012zM38.8482-.576122L34.2265 4.11012l5.5987 1.81398-.977-6.500222zM120.468 36.8086l-4.622 4.6858 5.599 1.8141-.977-6.4999zm-9.906-3.2094l-4.622 4.6859 5.599 1.814-.977-6.4999zm-9.906-3.2094l-4.6215 4.6859 5.5985 1.814-.977-6.4999zm-9.9051-3.2093l-4.6219 4.6858 5.5984 1.8139-.9765-6.4997zM80.845 23.971l-4.6216 4.6859 5.5987 1.814-.9771-6.4999zm-9.9052-3.2093l-4.6219 4.6858 5.5984 1.8139-.9765-6.4997zm-9.9059-3.2095l-4.6219 4.6859 5.599 1.814-.9771-6.4999zm-9.9055-3.2094l-4.6219 4.6859 5.599 1.814-.9771-6.4999zm-9.9056-3.2094l-4.6219 4.6859 5.599 1.8141-.9771-6.5zm-9.9055-3.20934l-4.6219 4.68584 5.5987 1.814-.9768-6.49984zM112.075 45.0296l-4.622 4.6859 5.599 1.8141-.977-6.5zm-9.905-3.2093l-4.6224 4.6858 5.5984 1.814-.976-6.4998zm-9.906-3.2094l-4.622 4.6858 5.5987 1.814-.9767-6.4998zm-9.9059-3.2095l-4.6216 4.6859 5.5987 1.814-.9771-6.4999zm-10.3362-3.3489L67.4 36.7383l5.599 1.8141-.9771-6.4999zm-9.9055-3.2094l-4.6219 4.6858 5.599 1.8141-.9771-6.4999zm-9.9059-3.2095l-4.6213 4.6861 5.5984 1.8138-.9771-6.4999zm-9.9052-3.2093l-4.6219 4.6859 5.5987 1.814-.9768-6.4999zm-9.9059-3.2094l-4.6216 4.6859 5.5987 1.814-.9771-6.4999zm81.6196 37.3844l-4.622 4.6861 5.599 1.8141-.977-6.5002zm-9.906-3.2094l-4.6217 4.6861 5.5987 1.8141-.977-6.5002zm-9.9053-3.2094l-4.622 4.6862 5.5987 1.8139-.9767-6.5001zm-9.9055-3.2094l-4.622 4.6862 5.5984 1.8139-.9764-6.5001zm-9.9059-3.2095l-4.6217 4.6863 5.5987 1.814-.977-6.5003zm-9.9052-3.2092l-4.622 4.6861 5.5984 1.8139-.9764-6.5zm-9.9059-3.2095l-4.622 4.6861 5.599 1.8141-.977-6.5002zm-9.9055-3.2094l-4.622 4.6862 5.599 1.814-.977-6.5002zm-9.9056-3.2094l-4.622 4.6862 5.599 1.814-.977-6.5002zm-9.9055-3.2094l-4.622 4.6862 5.5987 1.814-.9767-6.5002zM106.377 64.0446l-4.622 4.6857 5.598 1.8134-.976-6.4991zm-9.9042-3.2083l-4.6209 4.6858 5.5977 1.8133-.9768-6.4991zm-9.9033-3.2082l-4.6215 4.6856 5.5976 1.8134-.9761-6.499zm-9.904-3.2084l-4.6212 4.6857 5.5977 1.8134-.9765-6.4991zM66.3313 51.072l-4.6212 4.6857 5.5977 1.8133-.9765-6.499zm-9.9036-3.2083l-4.6215 4.6856 5.5979 1.8135-.9764-6.4991zm-9.9037-3.2083l-4.6215 4.6856 5.598 1.8135-.9765-6.4991zm-9.9036-3.2082l-4.6215 4.6856 5.5976 1.8133-.9761-6.4989zm-9.9037-3.2083l-4.6215 4.6856 5.5977 1.8133-.9762-6.4989zm81.6023 37.3739l-4.621 4.686 5.598 1.8133-.977-6.4993zm-9.9033-3.2083l-4.6216 4.6859 5.5983 1.8135-.9767-6.4994zm-9.9036-3.2083l-4.6216 4.6859 5.5979 1.8135-.9763-6.4994zm-9.9037-3.2083l-4.6216 4.686 5.5977 1.8133-.9761-6.4993zm-9.9036-3.2082l-4.6216 4.6859 5.5976 1.8133-.976-6.4992zm-9.904-3.2084l-4.6213 4.686 5.5977 1.8134-.9764-6.4994zm-9.9036-3.2083l-4.6213 4.686 5.5976 1.8134-.9763-6.4994zm-9.9037-3.2083l-4.6216 4.686 5.598 1.8134-.9764-6.4994zm-9.9036-3.2082l-4.6216 4.6859 5.5979 1.8134-.9763-6.4993zm-9.9037-3.2083l-4.6216 4.6859 5.598 1.8135-.9764-6.4994zm80.7415 37.0952l-4.6216 4.6859 5.5979 1.8135-.9763-6.4994zm-9.904-3.2083l-4.6209 4.6861 5.5976 1.8133-.9767-6.4994zm-9.9033-3.2082l-4.6216 4.6859 5.5976 1.8133-.976-6.4992zm-9.904-3.2084l-4.6212 4.686 5.5976 1.8134-.9764-6.4994zm-10.3341-3.3477l-4.6213 4.686 5.5976 1.8133-.9763-6.4993zm-9.9037-3.2083l-4.6216 4.6859 5.598 1.8134-.9764-6.4993zm-9.9036-3.2083l-4.6216 4.6859 5.5979 1.8135-.9763-6.4994zm-9.9037-3.2083l-4.6216 4.686 5.5976 1.8133-.976-6.4993zm-9.9036-3.2082l-4.6216 4.6859 5.5976 1.8133-.976-6.4992zM101.87 95.4018l-4.6211 4.6862 5.5981 1.813-.977-6.4992zm-9.9034-3.2082l-4.6216 4.6859 5.5982 1.8135-.9766-6.4994zm-9.9037-3.2083l-4.6216 4.6859 5.598 1.8135-.9764-6.4994zm-9.9036-3.2083l-4.6216 4.6859 5.5976 1.8134-.976-6.4993zm-9.9037-3.2083l-4.6216 4.686 5.5977 1.8133-.9761-6.4993zm-9.904-3.2083l-4.6212 4.686 5.5976 1.8133-.9764-6.4993zm-9.9036-3.2083l-4.6213 4.686 5.5977 1.8134-.9764-6.4994zm-9.9036-3.2083l-4.6216 4.6859 5.5979 1.8135-.9763-6.4994zm-9.9037-3.2083l-4.6216 4.686 5.598 1.8134-.9764-6.4994zm-9.9036-3.2082l-4.62164 4.6859 5.59794 1.8134-.9763-6.4993zm80.7414 37.0957l-4.6215 4.685 5.598 1.814-.9765-6.499zm-9.9039-3.209l-4.6209 4.686 5.5976 1.813-.9767-6.499zm-9.9034-3.208l-4.6215 4.686 5.5977 1.813-.9762-6.499zm-9.9039-3.2084l-4.6212 4.6857 5.5976 1.8137-.9764-6.4994zm-10.3342-3.3478l-4.6212 4.6858 5.5976 1.8133-.9764-6.4991zm-9.9037-3.2082l-4.6215 4.6856 5.598 1.8134-.9765-6.499zm-9.9036-3.2083l-4.6215 4.6856 5.5979 1.8134-.9764-6.499zm-9.9037-3.2083l-4.6215 4.6856 5.5977 1.8134-.9762-6.499zm-9.9036-3.2083l-4.62152 4.6857 5.59762 1.8133-.9761-6.499zm81.6026 37.3743l-4.6214 4.686 5.5977 1.813-.9763-6.499zm-9.9036-3.209l-4.6217 4.687 5.5982 1.813-.9765-6.5zm-9.9037-3.208l-4.6217 4.686 5.598 1.814-.9763-6.5zm-9.9036-3.208l-4.6217 4.686 5.5976 1.813-.9759-6.499zm-9.9037-3.208l-4.6217 4.686 5.5977 1.813-.976-6.499zm-9.9039-3.2089l-4.6214 4.6859 5.5976 1.814-.9762-6.4999zm-9.9037-3.2082l-4.6214 4.6861 5.5977 1.814-.9763-6.5001zm-9.9036-3.2083l-4.6217 4.6862 5.5979 1.8135-.9762-6.4997zm-9.9037-3.2083l-4.6217 4.6862 5.598 1.8135-.9763-6.4997zM6.28798 86.316l-4.62169 4.6863 5.59793 1.8134-.97624-6.4997zm80.74142 37.095l-4.6216 4.686 5.5979 1.814-.9763-6.5zm-9.9039-3.208l-4.6211 4.686 5.5976 1.814-.9765-6.5zm-9.9034-3.208l-4.6216 4.686 5.5976 1.813-.976-6.499zm-9.9039-3.209l-4.6214 4.687 5.5976 1.813-.9762-6.5zm-10.3342-3.347l-4.6214 4.686 5.5977 1.813-.9763-6.499zm-9.9036-3.209l-4.6217 4.687 5.5979 1.813-.9762-6.5zm-9.9037-3.208l-4.6217 4.686 5.598 1.814-.9763-6.5zm-9.9036-3.208l-4.6217 4.686 5.5976 1.813-.9759-6.499zm-9.90369-3.2085l-4.6217 4.6865 5.59765 1.813-.97595-6.4995zM88.972 134.98l-4.6213 4.686 5.5976 1.813-.9763-6.499zm-9.9037-3.209l-4.6216 4.686 5.5983 1.814-.9767-6.5zm-9.9036-3.208l-4.6216 4.686 5.5979 1.814-.9763-6.5zm-9.9037-3.208l-4.6216 4.686 5.5976 1.813-.976-6.499zm-9.9036-3.208l-4.6216 4.686 5.5976 1.813-.976-6.499zm-9.904-3.209l-4.6213 4.686 5.5976 1.814-.9763-6.5zm-9.9037-3.208l-4.6212 4.686 5.5976 1.813-.9764-6.499zm-9.9036-3.208l-4.6216 4.686 5.5979 1.813-.9763-6.499zm-9.90365-3.209l-4.62159 4.686 5.59794 1.814-.97635-6.5zm-9.903644-3.208l-4.621596 4.686 5.597935 1.813-.976339-6.499zM80.5803 143.2l-4.6216 4.686 5.5979 1.814-.9763-6.5zm-9.904-3.208l-4.621 4.686 5.5977 1.813-.9767-6.499zm-9.9033-3.208l-4.6216 4.686 5.5976 1.813-.976-6.499zm-9.904-3.209l-4.6213 4.686 5.5977 1.814-.9764-6.5zm-10.3342-3.347l-4.6213 4.686 5.5977 1.813-.9764-6.499zm-9.9036-3.209l-4.6216 4.686 5.5979 1.814-.9763-6.5zm-9.9037-3.208l-4.6216 4.686 5.598 1.814-.9764-6.5zm-9.9036-3.208l-4.62161 4.686 5.59761 1.813-.976-6.499zm-9.903668-3.208l-4.621602 4.686 5.59765 1.813-.976048-6.499zM82.5228 154.769l-4.6213 4.686 5.5976 1.813-.9763-6.499zm-9.9037-3.209l-4.6216 4.686 5.5983 1.814-.9767-6.5zm-9.9036-3.208l-4.6216 4.686 5.5979 1.814-.9763-6.5zm-9.9037-3.208l-4.6216 4.686 5.5977 1.813-.9761-6.499zm-9.9036-3.208l-4.6216 4.686 5.5976 1.813-.976-6.499zm-9.904-3.209l-4.6213 4.686 5.5977 1.814-.9764-6.5zm-9.9036-3.208l-4.6213 4.686 5.5976 1.813-.9763-6.499zm-9.9037-3.208l-4.62157 4.686 5.59797 1.813-.9764-6.499zm-9.90363-3.209l-4.62158 4.686 5.59794 1.814-.97636-6.5zM182.692.877058l-4.621 4.685682 5.598 1.81335-.977-6.499032zm-9.903-3.208118l-4.621 4.68568 5.597 1.81335-.976-6.49903zm-9.903-3.20811l-4.621 4.685675 5.597 1.813257-.976-6.498932zm20.888 17.70507l-4.622 4.6857 5.598 1.8134-.976-6.4991zm-9.903-3.20807l-4.622 4.68567 5.598 1.8133-.976-6.49897zm-9.904-3.20812l-4.621 4.68569 5.597 1.8132-.976-6.49889zm-9.903-3.20821l-4.621 4.68577 5.597 1.81326-.976-6.49903zm-9.903-3.208121L139.54 4.01915l5.597 1.81326-.976-6.499031zM186.147 23.8732l-4.621 4.6855 5.597 1.8132-.976-6.4987zm-9.904-3.2081l-4.621 4.6854 5.598 1.8133-.977-6.4987zm-9.903-3.2081l-4.621 4.6854 5.598 1.8133-.977-6.4987zm-9.903-3.2081l-4.621 4.6853 5.597 1.8133-.976-6.4986zm-9.903-3.2082l-4.621 4.6854 5.597 1.8133-.976-6.4987zm-9.903-3.20806L132.01 12.518l5.597 1.8133-.976-6.49866zm51.027 27.46896l-4.62 4.6854 5.597 1.8133-.977-6.4987zm-10.333-3.3476l-4.621 4.6854 5.597 1.8133-.976-6.4987zm-9.903-3.2081l-4.621 4.6853 5.597 1.8133-.976-6.4986zm-9.903-3.2081l-4.622 4.6853 5.598 1.8133-.976-6.4986zm-9.904-3.2083l-4.621 4.6855 5.598 1.8133-.977-6.4988zm-9.903-3.2081l-4.621 4.6855 5.598 1.8133-.977-6.4988zm51.889 27.7477l-4.621 4.6861 5.597 1.8132-.976-6.4993zm-9.903-3.2081l-4.621 4.686 5.597 1.8133-.976-6.4993zm-9.903-3.2082l-4.622 4.686 5.598 1.8134-.976-6.4994zm-9.903-3.2081l-4.622 4.686 5.598 1.8134-.976-6.4994zm-9.903-3.2081l-4.622 4.686 5.597 1.8132-.975-6.4992zm-9.904-3.2082l-4.621 4.6861 5.597 1.8132-.976-6.4993zm-9.903-3.208l-4.621 4.686 5.597 1.8132-.976-6.4992zm60.931 30.6773l-4.621 4.6855 5.597 1.8133-.976-6.4988zm-9.903-3.2081l-4.621 4.6855 5.597 1.8132-.976-6.4987zm-10.334-3.3476l-4.621 4.6854 5.597 1.8134-.976-6.4988zm-9.903-3.2081l-4.621 4.6854 5.597 1.8132-.976-6.4986zm-9.903-3.2081l-4.621 4.6854 5.597 1.8132-.976-6.4986zm-9.904-3.2082l-4.621 4.6855 5.598 1.8132-.977-6.4987zm-9.903-3.2081l-4.621 4.6854 5.598 1.8133-.977-6.4987zm51.889 27.7476l-4.621 4.6858 5.597 1.8133-.976-6.4991zm-9.903-3.2081l-4.621 4.6858 5.597 1.8132-.976-6.499zm-9.903-3.2081l-4.621 4.6857 5.597 1.8133-.976-6.499zm-9.903-3.2081l-4.621 4.6856 5.597 1.8134-.976-6.499zm-9.903-3.2081l-4.622 4.6856 5.598 1.8133-.976-6.4989zm-9.904-3.2083l-4.621 4.6858 5.598 1.8133-.977-6.4991zm-9.902-3.208l-4.622 4.6857 5.598 1.8133-.976-6.499zm60.93 30.6771l-4.621 4.6857 5.597 1.8133-.976-6.499zm-9.903-3.2081l-4.621 4.6857 5.597 1.8133-.976-6.499zm-10.334-3.3476l-4.621 4.6857 5.598 1.8133-.977-6.499zm-9.903-3.2081l-4.621 4.6856 5.597 1.8133-.976-6.4989zm-9.903-3.2082L140 69.7992l5.597 1.8133-.976-6.499zm-9.903-3.2082l-4.621 4.6858 5.597 1.8133-.976-6.4991zm-9.903-3.2081l-4.621 4.6858 5.597 1.8132-.976-6.499zm61.792 30.9562l-4.621 4.6854 5.597 1.8132-.976-6.4986zm-9.904-3.2082l-4.621 4.6854 5.598 1.8133-.977-6.4987zm-9.903-3.2081l-4.621 4.6854 5.598 1.8133-.977-6.4987zm-9.903-3.2082l-4.621 4.6854 5.598 1.8134-.977-6.4988zm-9.903-3.2081l-4.621 4.6854 5.597 1.8133-.976-6.4987zm-9.903-3.2081l-4.621 4.6854 5.597 1.8132-.976-6.4986zm-9.903-3.2082l-4.621 4.6855 5.597 1.8132-.976-6.4987zm-9.903-3.208l-4.622 4.6853 5.598 1.8133-.976-6.4986zM188.039 101.467l-4.621 4.686 5.598 1.813-.977-6.499zm-9.903-3.2086l-4.622 4.6856 5.598 1.814-.976-6.4996zm-9.904-3.2083l-4.621 4.686 5.597 1.8129-.976-6.4989zm-10.334-3.3477l-4.622 4.6859 5.598 1.8134-.976-6.4993zm-9.904-3.2083l-4.622 4.6859 5.598 1.8134-.976-6.4993zm-9.904-3.2083l-4.621 4.6859 5.597 1.8134-.976-6.4993zm-9.904-3.2084l-4.621 4.6861 5.598 1.8133-.977-6.4994zm-9.903-3.2082l-4.621 4.686 5.597 1.8133-.976-6.4993zm71.699 34.1658l-4.622 4.686 5.598 1.813-.976-6.499zm-9.904-3.208l-4.621 4.686 5.597 1.813-.976-6.499zm-9.904-3.208l-4.621 4.686 5.598 1.813-.977-6.499zm-9.903-3.209l-4.622 4.686 5.598 1.814-.976-6.5zm-9.904-3.208l-4.622 4.686 5.598 1.813-.976-6.499zm-9.904-3.2083l-4.621 4.6863 5.598 1.813-.977-6.4993zm-9.903-3.2083l-4.622 4.6859 5.598 1.8137-.976-6.4996zm-9.904-3.2084l-4.621 4.6861 5.597 1.8133-.976-6.4994zm-9.904-3.2081l-4.621 4.6859 5.598 1.8133-.977-6.4992zm80.742 37.0951l-4.622 4.686 5.598 1.813-.976-6.499zm-9.904-3.208l-4.621 4.686 5.597 1.813-.976-6.499zm-9.904-3.209l-4.621 4.686 5.598 1.814-.977-6.5zm-9.903-3.208l-4.622 4.686 5.598 1.814-.976-6.5zm-10.334-3.348l-4.622 4.686 5.598 1.814-.976-6.5zm-9.904-3.208l-4.622 4.686 5.598 1.813-.976-6.499zm-9.904-3.208l-4.621 4.686 5.597 1.813-.976-6.499zm-9.904-3.208l-4.621 4.686 5.598 1.813-.977-6.499zm-9.903-3.2088l-4.622 4.6858 5.598 1.814-.976-6.4998zm71.699 34.1658l-4.622 4.686 5.598 1.813-.976-6.499zm-9.904-3.208l-4.621 4.686 5.597 1.813-.976-6.499zm-9.904-3.208l-4.621 4.685 5.598 1.814-.977-6.499zm-9.903-3.209l-4.622 4.686 5.598 1.813-.976-6.499zm-9.904-3.208l-4.622 4.686 5.598 1.813-.976-6.499zm-9.904-3.208l-4.621 4.685 5.598 1.814-.977-6.499zm-9.903-3.209l-4.622 4.686 5.598 1.813-.976-6.499zm-9.904-3.208l-4.622 4.686 5.598 1.813-.976-6.499zm-9.904-3.208l-4.6212 4.686 5.5972 1.813-.976-6.499zm80.742 37.095l-4.622 4.686 5.598 1.813-.976-6.499zm-9.904-3.209l-4.621 4.687 5.597 1.813-.976-6.5zm-9.904-3.208l-4.621 4.687 5.598 1.813-.977-6.5zm-9.903-3.208l-4.622 4.686 5.598 1.814-.976-6.5zm-10.335-3.348l-4.621 4.686 5.598 1.814-.977-6.5zm-9.903-3.208l-4.622 4.686 5.598 1.813-.976-6.499zm-9.904-3.208l-4.622 4.686 5.598 1.813-.976-6.499zm-9.904-3.209l-4.621 4.687 5.597 1.813-.976-6.5zm-9.903-3.208l-4.622 4.686 5.598 1.814-.976-6.5zm81.602 37.374l-4.621 4.686 5.598 1.814-.977-6.5zm-9.903-3.208l-4.622 4.686 5.598 1.814-.976-6.5zm-9.904-3.208l-4.622 4.686 5.598 1.813-.976-6.499zm-9.904-3.209l-4.621 4.687 5.597 1.813-.976-6.5zm-9.904-3.208l-4.621 4.686 5.598 1.814-.977-6.5zm-9.903-3.208l-4.622 4.686 5.598 1.813-.976-6.499zm-9.904-3.208l-4.622 4.686 5.598 1.813-.976-6.499zm-9.903-3.209l-4.622 4.686 5.597 1.814-.975-6.5zm-9.904-3.208l-4.622 4.686 5.598 1.814-.976-6.5zm-9.9038-3.208l-4.6217 4.686 5.5977 1.813-.976-6.499zm80.7418 37.095l-4.622 4.686 5.598 1.813-.976-6.499zm-9.904-3.208l-4.622 4.686 5.598 1.813-.976-6.499zm-9.904-3.209l-4.621 4.686 5.597 1.814-.976-6.5zm-9.904-3.208l-4.621 4.686 5.598 1.813-.977-6.499zm-10.334-3.348l-4.621 4.686 5.598 1.814-.977-6.5zm-9.903-3.208l-4.622 4.686 5.598 1.813-.976-6.499zm-9.904-3.208l-4.622 4.686 5.598 1.813-.976-6.499zm-9.904-3.209l-4.621 4.686 5.597 1.814-.976-6.5zm-9.9037-3.208l-4.6212 4.686 5.5976 1.813-.9764-6.499zm81.6027 37.374l-4.621 4.686 5.598 1.814-.977-6.5zm-9.903-3.208l-4.622 4.686 5.598 1.813-.976-6.499zm-9.904-3.208l-4.622 4.686 5.598 1.813-.976-6.499zm-9.904-3.209l-4.621 4.686 5.597 1.814-.976-6.5zm-9.904-3.208l-4.621 4.686 5.598 1.814-.977-6.5zm-9.903-3.208l-4.622 4.686 5.598 1.813-.976-6.499zm-9.904-3.208l-4.622 4.686 5.598 1.813-.976-6.499zm-9.904-3.209l-4.621 4.686 5.597 1.814-.976-6.5zm-9.904-3.208l-4.6209 4.686 5.5979 1.813-.977-6.499zm-9.903-3.208l-4.6216 4.686 5.5977 1.813-.9761-6.499zm80.742 37.095l-4.622 4.686 5.598 1.813-.976-6.499zm-9.904-3.208l-4.622 4.686 5.598 1.813-.976-6.499zm-9.904-3.209l-4.621 4.686 5.597 1.814-.976-6.5zm-9.904-3.208l-4.621 4.686 5.598 1.813-.977-6.499zm-10.334-3.348l-4.622 4.686 5.598 1.814-.976-6.5zm-9.904-3.208l-4.621 4.686 5.597 1.813-.976-6.499zm-9.903-3.208l-4.622 4.686 5.598 1.813-.976-6.499zm-9.904-3.209l-4.6215 4.686 5.5975 1.814-.976-6.5zm-9.9038-3.208l-4.6213 4.686 5.5976 1.814-.9763-6.5zm71.6988 34.166l-4.621 4.686 5.598 1.813-.977-6.499zm-9.903-3.208l-4.622 4.685 5.598 1.814-.976-6.499zm-9.904-3.208l-4.621 4.685 5.597 1.814-.976-6.499zm-9.904-3.209l-4.621 4.686 5.598 1.813-.977-6.499zm-9.904-3.208l-4.621 4.686 5.598 1.813-.977-6.499zm-9.903-3.208l-4.622 4.685 5.598 1.814-.976-6.499zm-9.904-3.209l-4.621 4.686 5.597 1.813-.976-6.499zm-9.9038-3.208l-4.6212 4.686 5.5977 1.813-.9765-6.499zm-9.9033-3.208l-4.6215 4.685 5.5976 1.814-.9761-6.499z" fill="#15232B"/></g></g><path fill-rule="evenodd" clip-rule="evenodd" d="M140.181 91.2566c3.774 0 6.862 2.8175 6.862 6.2606v16.2498c0 3.787-3.397 6.886-7.547 6.886h-14.403c-1.871 0-3.401-1.397-3.401-3.103V94.3596c0-1.7067 1.53-3.103 3.401-3.103h15.088z" fill="#523B5D"/><path fill-rule="evenodd" clip-rule="evenodd" d="M99.663 182.679c-.9471.015-1.9058.138-2.8514.26-1.3336.173-2.6381.685-3.5309 1.491 0 0-.4999.513-.6706.784-.796 1.263-.4901 3.002.9196 3.84 1.41.838 3.7915.376 4.3359-.972.3963-.982-.228-2.098-1.2371-2.727-.5128-.32-1.1044-.531-1.7287-.67 1.0843-.99 2.9712-1.225 5.1322-1.203 1.298.783 5.253 1.352 9.93 1.352.466 0 .925-.005 1.376-.016l.908.519c-1.255-.203-2.69.139-3.389 1.033-1.168 1.492.055 3.763 2.165 4.199 2.12.437 4.501-1.022 4.566-2.797.052-1.418-1.385-2.705-3.059-2.997 3.95-.185 6.996-.787 7.673-1.537.797.008 2.257.054 3.001.279 1.056.319 1.704 1.029 1.352 1.899-.21.518-.784.889-1.044 1.392-.623 1.202 1.135 2.595 2.694 2.284 1.56-.311 2.418-1.846 2.024-3.111-.394-1.264-1.751-2.213-3.244-2.692-1.494-.478-3.128-.563-4.731-.641l-.009.009c-.64-.849-4.308-1.52-8.93-1.63l2.164-32.26-2.827-.158-2.175 32.421c-4.6.121-8.227.798-8.8137 1.649h-.0003z" fill="#3A3B39"/><path fill-rule="evenodd" clip-rule="evenodd" d="M110.291 151.129c-15.3899 0-17.5796-6.206-17.5796-6.206l39.0626.388c-3.214 5.094-6.093 5.818-21.483 5.818z" fill="#523B5D"/><path fill-rule="evenodd" clip-rule="evenodd" d="M83.8751 116.101l8.6905 2.467 5.4863-25.9608-8.899-3.8347-5.2778 27.3285z" fill="#D4A181"/><path fill-rule="evenodd" clip-rule="evenodd" d="M37.8913 160.873l-6.8106-1.293 8.797 6.723 6.9526-8.727-3.547-3.297-5.392 6.594z" fill="#3A3B39"/><path fill-rule="evenodd" clip-rule="evenodd" d="M86.0424 98.0242c0-.6975-.6202-1.2632-1.3854-1.2632l-19.5088-1.4659c-.7649 0-1.3857.5654-1.3857 1.2629v19.182h22.2802V98.0242h-.0003z" fill="#B3E0D0"/><path fill-rule="evenodd" clip-rule="evenodd" d="M74.9029 103.84c1.4609 0 2.6455 1.079 2.6455 2.41 0 1.332-1.1843 2.411-2.6455 2.411-1.4611 0-2.6458-1.079-2.6458-2.411 0-1.331 1.1847-2.41 2.6458-2.41z" fill="#FFFFFE"/><path fill-rule="evenodd" clip-rule="evenodd" d="M63.9987 190.437l-5.5332 3.491h9.2227v-10.731h-3.6891l-.0004 7.24z" fill="#3A3B39"/><path fill-rule="evenodd" clip-rule="evenodd" d="M71.0936 129.714L47.6818 159.58l-6.1013-4.525s15.8915-41.632 26.1078-42.149c2.96 5.956 4.5161 11.64 3.4053 16.808z" fill="#00A650"/><path fill-rule="evenodd" clip-rule="evenodd" d="M126.671 61.7398c-1.345 1.9282-3.287 3.479-5.632 4.2336-5.109 1.3966-12.054-.7703-13.391-5.7425 2.934-.8944 5.166-1.2393 5.166-1.2393l.789-3.4907s-1.575-.8405-2.355-2.0686c-.78-1.2284 3.574-10.3432 3.574-10.3432l7.281.5816-1.902 7.0571s2.866-2.8446 3.433-1.2929c.568 1.5513-3.291 3.103-3.291 3.103l-.762 5.6694c-.138.8035.404 1.575 1.263 1.7945 1.965.5028 3.908 1.0826 5.827 1.738z" fill="#D4A181"/><path fill-rule="evenodd" clip-rule="evenodd" d="M104.811 61.2086c.933-.3607 1.879-.6869 2.837-.978 1.337 4.9722 8.282 7.1391 13.39 5.7424 2.346-.7543 4.288-2.305 5.633-4.2335 1.055.3607 2.101.7487 3.136 1.1634-3.087 4.0357-7.968 6.6094-13.877 5.9147-4.962-.4524-9.49-3.2769-11.119-7.609z" fill="#FFFFFE"/><path fill-rule="evenodd" clip-rule="evenodd" d="M104.811 61.2086c1.629 4.3321 6.156 7.1569 11.119 7.609 5.909.6947 10.79-1.8793 13.877-5.9147 1.739.6988 3.505 1.5067 5.137 2.4237 6.668 3.7495-.284 67.4904-.284 67.4904l-46.256-13.446 4.8016-28.2644-4.0523-2.3341s3.9036-14.7351 5.0682-18.5327c1.3774-4.492 6.2005-7.3293 10.5895-9.0312z" fill="#E73A5E"/><path fill-rule="evenodd" clip-rule="evenodd" d="M90.2567 112.112l-3.7898-1.503.7071 4.089 4.6846 1.687-1.6019-4.273z" fill="#D4A181"/><path fill-rule="evenodd" clip-rule="evenodd" d="M97.021 117.778c1.792.574 2.8399 2.269 2.4499 3.963l-19.1076-5.689 3.973-2.241 12.6847 3.967z" fill="#B3E0D0"/><path fill-rule="evenodd" clip-rule="evenodd" d="M128.999 84.979l-1.718 40.339h1.718V84.979z" fill="#CC395D"/><path fill-rule="evenodd" clip-rule="evenodd" d="M112.383 51.2339s1.135-3.2323 2.128-3.2323c.994 0-.709 3.6203-.709 3.6203l-1.419-.388z" fill="#AE8369"/><path fill-rule="evenodd" clip-rule="evenodd" d="M119.137 50.7271s.482-4.9233 1.547-6.087c0 0-5.933.2584-7.081-1.7454-1.149-2.0038.78-3.9435 3.54-2.521 2.76 1.4221 5.527.5169 4.96 3.2967 0 0 3.556 1.2693 1.064 4.0079-2.412 2.6506-2.966 3.0492-2.966 3.0492h-1.064v-.0004z" fill="#4E4E4E"/><path fill-rule="evenodd" clip-rule="evenodd" d="M117.243 48.0016c.294 0 .532.217.532.485s-.238.485-.532.485c-.294 0-.532-.217-.532-.485s.238-.485.532-.485zm-3.64-.9694c.294 0 .532.217.532.4847 0 .268-.238.485-.532.485-.294 0-.532-.217-.532-.485s.238-.485.532-.485v.0003z" fill="#3F2C48"/><path fill-rule="evenodd" clip-rule="evenodd" d="M118.78 47.357c-.161-.3085-.472-.552-.855-.6684-.383-.1162-.792-.0916-1.124.067l.265.4579c.195-.0935.443-.1063.68-.0342.237.0721.426.2176.521.3989l.513-.2212zm-3.67-1.0536c-.355-.4894-1.059-.7163-1.673-.5398l.171.4933c.365-.1053.817.0408 1.028.3318l.474-.2853zm.324 8.5507s-2.342-.7757-2.696-2.1978c0 0-1.52 1.2285-2.569.5817 0 0 1.646-2.3918 3.633-1.6161 0 0 1.916 1.2284 1.632 3.2322z" fill="#4E4E4E"/><path fill-rule="evenodd" clip-rule="evenodd" d="M112.383 61.1894l-.72-1.9831 1.151-.2147-.431 2.1978zm8.173-9.7026l2.199-1.1652c.067-.0358.091-.1149.051-.1768-.021-.0303-.052-.0518-.088-.0604-.036-.0086-.073-.0037-.106.0138l-2.198 1.1653c-.068.0357-.091.1149-.052.1764.014.0201.032.0366.053.0478.022.0113.046.017.07.0167.025 0 .049-.006.071-.0176z" fill="#AE8369"/><path fill-rule="evenodd" clip-rule="evenodd" d="M141.329 80.3246c.402 4.3659.636 10.3547.767 16.5069-4.786 1.0944-9.152.8337-13.097-.7884l-.015-5.5906 5.96-25.1259s5.108 1.1637 6.385 14.998z" fill="#E73A5E"/><path fill-rule="evenodd" clip-rule="evenodd" d="M142.156 100.106c-4.285.624-8.679.258-13.148-.7755l-.009-3.2874 13.097.7881c.023 1.0915.043 2.1831.06 3.2748z" fill="#FFFFFE"/><path fill-rule="evenodd" clip-rule="evenodd" d="M60.3099 136.954c.132 6.348 2.8376 48.484 2.8376 48.484h6.1013l4.2569-39.175h36.6633l-39.0754-16.549s-10.916.893-10.7837 7.24z" fill="#008B44"/><path fill-rule="evenodd" clip-rule="evenodd" d="M131.68 145.229c-5.009 3.749-17.878 5.947-34.479-2.198-16.6011-8.146-26.1074-13.317-26.1074-13.317l-3.4053-16.808c10.2159-.517 68.8157 19.911 68.8157 19.911s.185 8.662-4.824 12.412z" fill="#00A650"/><path fill-rule="evenodd" clip-rule="evenodd" d="M65.1342 126.61l2.9795 3.606 2.9799-.502-5.9594-3.104z" fill="#008B44"/><path fill-rule="evenodd" clip-rule="evenodd" d="M129.079 125.103l-.071-25.7725 13.148.7755c.192 12.276.024 24.177.024 24.177s.284 11.895-10.074 10.602c-10.358-1.292-33.0606-17.383-33.0606-17.383l-2.9792 1.077-3.5002-1.465 5.8647-3.275 30.6483 11.263v.001z" fill="#D4A181"/><path fill-rule="evenodd" clip-rule="evenodd" d="M89.1529 88.7725l-.5386 2.7888 4.1764 1.9859.4146-2.4406-4.0524-2.3341z" fill="#FFFFFE"/><path fill-rule="evenodd" clip-rule="evenodd" d="M96.2548 75.5406l-4.3962 14.7903 1.3467.7757 3.0495-15.566z" fill="#CC395D"/><path fill-rule="evenodd" clip-rule="evenodd" d="M86.9115 110.926L89.6196 112l.1132-.238-2.7075-1.074-.1138.238zm8.3124 7.217l.1384.226 2.7593-1.407-.1388-.225-2.7589 1.406zm2.6276-2.298l-.1663-.21c-.2081.137-3.2988 2.014-3.3298 2.033l.1572.216c.1279-.078 3.1263-1.9 3.3389-2.039zm-4.5031 1.524l.1618.213 3.2436-2.049-.1618-.212-3.2436 2.048zm-3.5264-4.097l1.0075 2.654.2701-.085-1.0078-2.654-.2698.085zm-.7957-.004l.796 2.339.2717-.076-.7959-2.34-.2718.077zm-1.1149-.006l.5632 1.92.2749-.067-.5626-1.92-.2755.067z" fill="#AE8369"/><path fill-rule="evenodd" clip-rule="evenodd" d="M103.041 108.871l.202.483 6.209-2.15-.202-.484-6.209 2.151zm-3.2121-4.802l.4201.348 2.837-2.844-.42-.348-2.8371 2.844zm-5.1813-.101l.5661.034.2838-3.879-.5661-.034-.2838 3.879z" fill="#FFFFFE"/><path fill-rule="evenodd" clip-rule="evenodd" d="M51.6248 85.7094c.6879 0 1.3585-.2154 1.902-.6209.6984-.5217 1.0989-1.2926 1.0989-2.1152V43.8555c0-1.3634-1.0747-2.5006-2.556-2.7045L3.79274 34.5097c-.86628-.1194-1.74406.111-2.40831.6311-.664887.5201-1.045288 1.276-1.045288 2.0737v36.994c0 1.3002 1.016518 2.4285 2.417258 2.6828l48.2767 8.7648c.1969.0357.3948.0533.5914.0533" fill="#6B4F7C"/><path fill-rule="evenodd" clip-rule="evenodd" d="M21.7979 46.043c-.0001.2953-.0643.5871-.1884.8551-.124.2681-.3049.5061-.5302.6975-.2253.1914-.4895.3317-.7744.4111-.2849.0795-.5837.0962-.8757.0491L8.99554 46.3714c-.67075-.1083-1.28099-.4513-1.72145-.9677-.44045-.5165-.68237-1.1725-.68239-1.8508.00001-.299.06529-.5945.19128-.8659s.30968-.5121.53829-.7054c.22861-.1933.49667-.3347.78553-.4141.28885-.0795.59157-.0952.88714-.0461l10.43686 1.7332c.6613.1098 1.2622.4503 1.6956.9609.4335.5105.6714 1.158.6715 1.8272v.0003zm-4.6648 9.2852c.011-.1751-.0437-.348-.1534-.485s-.2667-.2284-.4402-.2562l-9.58499-1.5351c-.08023-.0128-.16225-.0088-.24081.0119-.07857.0207-.15194.0576-.2154.1082-.06345.0507-.1156.114-.15308.186-.03747.072-.05946.1509-.06454.2319-.01104.1751.04365.348.15339.485.10975.1371.26668.2284.44022.2562l9.58491 1.5348c.0803.0128.1623.0088.2409-.0119.0785-.0207.1519-.0575.2154-.1082.0634-.0507.1156-.114.153-.186.0375-.0719.0595-.1509.0646-.2319v.0003zm-.0691 4.2451c.0111-.1752-.0437-.3481-.1535-.4852-.1098-.137-.2668-.2283-.4404-.2561l-9.58463-1.5347c-.08026-.0129-.16231-.0089-.24092.0118-.07861.0206-.15202.0575-.21551.1081a.58326.58326 0 00-.15316.186.581455.581455 0 00-.06456.232c-.01095.1751.04381.348.15361.485s.26677.2282.44031.2559l9.58466 1.5351c.0802.0129.1623.0089.2409-.0117.0786-.0207.152-.0576.2155-.1082.0635-.0507.1157-.114.1532-.186.0375-.072.0595-.1511.0645-.232zm-.0693 4.2453c.011-.1751-.0437-.348-.1534-.485-.1098-.1371-.2667-.2284-.4402-.2562l-9.58499-1.5348c-.08023-.0128-.16227-.0088-.24084.0119-.07857.0207-.15194.0576-.2154.1082-.06345.0507-.11558.114-.15305.186-.03748.072-.05946.1509-.06454.2319-.01096.175.04375.3479.15348.4848.10974.137.26664.2283.44012.2561l9.58492 1.5348c.0802.0128.1622.0088.2408-.0119.0785-.0207.1519-.0575.2153-.1081.0635-.0506.1156-.114.1531-.1859.0375-.0719.0595-.1509.0647-.2318zm-.0691 4.245c.011-.175-.0438-.3479-.1536-.4849-.1098-.137-.2668-.2282-.4403-.256L6.74675 65.788c-.08021-.0129-.16221-.0088-.24076.0118-.07855.0207-.15191.0575-.21536.1081-.06345.0507-.1156.114-.15309.1859a.580673.580673 0 00-.06464.2318c-.01104.1752.04369.3481.1535.4852.10981.137.26684.2283.44043.256l9.58467 1.5348c.0802.0129.1623.0089.2409-.0118.0786-.0206.152-.0575.2155-.1081.0635-.0507.1157-.1141.1532-.1861.0375-.072.0594-.151.0645-.232zm-.0693 4.2454c.0109-.1751-.0438-.3479-.1535-.4849-.1098-.1369-.2667-.2282-.4401-.256l-9.585-1.5351c-.08023-.0128-.16227-.0088-.24084.0119-.07857.0207-.15194.0575-.21539.1082-.06346.0506-.1156.114-.15308.186-.03748.0719-.05946.1509-.06454.2319-.01096.175.04377.3478.15351.4848.10973.137.26662.2283.44009.2561l9.58495 1.5351c.0803.0128.1623.0087.2408-.0119.0786-.0207.152-.0576.2154-.1082.0635-.0507.1156-.114.1531-.186.0375-.072.0595-.151.0646-.2319z" fill="#FFFFFE"/><path fill-rule="evenodd" clip-rule="evenodd" d="M100.151 76.0888c.875-.6796 1.401-1.6694 1.442-2.7154l2.466-61.9424c.08-2.02076-1.592-3.72241-3.808-3.87365L31.3463 2.85668c-1.1377-.07786-2.2715.28302-3.1083.9901-.8372.70676-1.317 1.70803-1.317 2.74759V65.8591c0 1.8922 1.5557 3.4914 3.6188 3.7205l66.4393 7.379c.1647.0183.3302.0275.4958.0275.9747 0 1.9285-.3159 2.6761-.8973z" fill="#3F2C48"/><path fill-rule="evenodd" clip-rule="evenodd" d="M45.4058 52.9779c0 1.8554-1.4544 3.3647-3.2423 3.3647-1.7878 0-3.2423-1.5093-3.2423-3.3647 0-1.8551 1.4545-3.3644 3.2423-3.3644 1.7879 0 3.2423 1.5093 3.2423 3.3644zm-7.5654.0108c.001.4928.0856.9819.2503 1.4464l-.8343.2361c.1888.5526.4697 1.0695.8308 1.5288l.7288-.4742c.3203.3943.7071.7296 1.1431.9907l-.5191.6944c.5431.3369 1.1445.5695 1.7732.686l.1879-.8395c.2481.0446.5022.0689.7624.0689.2701 0 .5338-.0262.7908-.074l.195.8382a5.138602 5.138602 0 001.7668-.6978l-.5236-.6902c.4339-.2644.8182-.6024 1.1357-.9987l.732.4703c.3579-.4612.6355-.9793.8209-1.5325l-.8362-.2323c.1603-.4603.2421-.9441.242-1.4314l-.0003-.0089.865-.0013c-.0013-.5724-.0946-1.1359-.2772-1.6733l-.8352.2352a4.356638 4.356638 0 00-.7225-1.2923l.7301-.4729c-.3772-.4821-.8314-.8902-1.3499-1.2131l-.5207.693c-.4434-.267-.9316-.4513-1.441-.544l.1905-.8392c-.6398-.1193-1.2963-.1185-1.9359.0023l.1928.8385c-.5179.0957-1.0038.2834-1.4398.5469l-.5223-.6918c-.517.3234-.973.7352-1.347 1.2164l.731.4713c-.3119.3871-.5552.8246-.7195 1.2935l-.8356-.2339c-.1816.5377-.274 1.1008-.274 1.6736l.865.0108zm4.3231 1.3667c-.7128 0-1.293-.6178-1.293-1.3775 0-.7594.5802-1.3772 1.293-1.3772.7128 0 1.293.6178 1.293 1.3772s-.5802 1.3775-1.293 1.3775zm0-3.7384c-1.309 0-2.3738 1.059-2.3738 2.3609 0 1.3018 1.0648 2.3612 2.3738 2.3612 1.309 0 2.3738-1.0594 2.3738-2.3612 0-1.3019-1.0645-2.3612-2.3738-2.3612v.0003z" fill="#FFFFFE"/><path fill-rule="evenodd" clip-rule="evenodd" d="M93.8721 26.89c.0092-.084.0015-.1689-.0225-.2499-.024-.081-.064-.1564-.1176-.2218-.0536-.0654-.1197-.1194-.1944-.159-.0747-.0396-.1566-.064-.2409-.0716l-17.8836-1.6311c-.1724-.0158-.3441.0367-.4781.146-.134.1093-.2197.2668-.2386.4385-.0093.084-.0017.169.0224.25.024.0811.064.1565.1175.2219.0536.0654.1197.1195.1945.1592a.6373.6373 0 00.241.0715l17.8836 1.6312c.1724.0157.3441-.0368.4782-.1461.134-.1094.2197-.267.2385-.4388z" fill="#E73A5E"/><path fill-rule="evenodd" clip-rule="evenodd" d="M93.7493 31.1619c.0092-.084.0016-.1689-.0224-.2499-.024-.081-.064-.1563-.1175-.2217-.0536-.0654-.1196-.1195-.1943-.1591-.0747-.0396-.1566-.064-.2409-.0716l-17.8835-1.6312c-.1724-.0157-.3441.0367-.4781.146-.134.1094-.2197.2668-.2386.4386-.0093.084-.0017.169.0224.25.024.081.0639.1564.1175.2219.0536.0654.1197.1195.1945.1591.0747.0396.1567.064.241.0716l17.8836 1.6308c.1723.0158.344-.0367.478-.146.1341-.1093.2198-.2668.2386-.4385h-.0003zm-.1221 4.2718a.63433.63433 0 00-.0223-.25c-.0241-.081-.064-.1565-.1176-.2219a.636569.636569 0 00-.1945-.1591c-.0747-.0397-.1567-.064-.241-.0716l-17.8832-1.6312c-.1725-.0157-.3442.0368-.4782.1462-.1341.1093-.2197.2669-.2385.4387-.0092.084-.0016.1689.0224.2499.024.0809.064.1563.1175.2217.0536.0654.1196.1194.1943.1591.0747.0396.1566.0639.2408.0716l17.8836 1.6311c.1724.0158.3441-.0366.4781-.146.134-.1093.2197-.2668.2386-.4385z" fill="#00A650"/><path fill-rule="evenodd" clip-rule="evenodd" d="M93.5051 39.7052c.0092-.084.0016-.1689-.0224-.2499-.0241-.081-.0641-.1564-.1176-.2218-.0536-.0654-.1197-.1194-.1944-.159-.0748-.0396-.1567-.064-.241-.0716l-17.8836-1.6311c-.1723-.0158-.344.0366-.4781.146-.134.1093-.2197.2668-.2385.4385a.63433.63433 0 00.0223.25c.024.081.064.1565.1176.2219.0535.0654.1197.1195.1944.1591.0748.0397.1567.064.241.0716l17.8836 1.6312c.1725.0157.3442-.0368.4782-.1462.1341-.1093.2197-.2669.2385-.4387z" fill="#E73A5E"/><path fill-rule="evenodd" clip-rule="evenodd" d="M93.3827 43.977a.635399.635399 0 00-.0224-.2498c-.0241-.081-.064-.1563-.1176-.2217-.0535-.0654-.1195-.1195-.1943-.1591-.0747-.0396-.1565-.064-.2408-.0716L74.924 41.6436c-.1724-.0157-.344.0367-.4781.146-.134.1093-.2197.2668-.2386.4386-.0092.0839-.0017.1689.0223.2499.0241.081.064.1564.1175.2218.0536.0655.1196.1196.1944.1592.0747.0396.1566.064.2409.0717l17.8836 1.6308c.1724.0157.344-.0367.4781-.146.134-.1093.2197-.2668.2386-.4386z" fill="#FFFFFE"/><path fill-rule="evenodd" clip-rule="evenodd" d="M59.8023 12.3984c.0092-.0839.0016-.1689-.0225-.2499-.024-.081-.064-.1564-.1175-.2217a.636569.636569 0 00-.1945-.1591c-.0747-.0396-.1566-.0639-.2409-.0716L41.3433 10.065c-.1724-.0157-.344.0367-.4781.146-.134.1093-.2197.2668-.2386.4386-.0092.0839-.0016.1689.0224.25.024.081.064.1564.1176.2218.0535.0655.1196.1196.1944.1592.0748.0396.1567.0639.241.0716l17.8836 1.6311c.1724.0157.3442-.0367.4782-.1461s.2197-.267.2385-.4388zm-.1221 4.2719c.0092-.084.0016-.169-.0225-.25-.024-.0809-.064-.1563-.1176-.2217-.0535-.0654-.1196-.1195-.1944-.1591-.0747-.0396-.1566-.0639-.2409-.0715l-17.8836-1.6312c-.1724-.0157-.344.0367-.4781.146-.134.1094-.2197.2668-.2386.4386-.0092.0839-.0017.1689.0224.2499.024.081.0639.1564.1174.2219.0536.0654.1197.1195.1944.1591.0747.0397.1566.064.2409.0717l17.8836 1.6308c.1724.0158.344-.0367.4781-.146.134-.1093.2197-.2668.2386-.4385h.0003z" fill="#E73A5E"/><path fill-rule="evenodd" clip-rule="evenodd" d="M59.5574 20.9421a.63433.63433 0 00-.0223-.25c-.024-.081-.0639-.1564-.1175-.2218-.0535-.0654-.1196-.1195-.1943-.1592-.0748-.0396-.1566-.064-.2409-.0716l-17.8836-1.6309c-.1724-.0157-.3441.0367-.4781.146-.134.1094-.2197.2668-.2386.4386-.0092.084-.0016.1689.0225.2499.024.081.064.1564.1176.2218.0535.0654.1196.1194.1944.159.0747.0396.1566.0639.2409.0716l17.8833 1.6311c.1723.0158.344-.0367.478-.146.1341-.1093.2198-.2668.2386-.4385zm-.1221 4.2715c.0092-.084.0015-.1689-.0225-.2498-.0241-.081-.0641-.1563-.1176-.2217-.0536-.0653-.1197-.1194-.1944-.159-.0747-.0395-.1566-.0639-.2408-.0715l-17.8836-1.6315c-.1725-.0157-.3442.0368-.4782.1462-.1341.1094-.2197.2669-.2385.4387-.0092.084-.0016.1689.0224.2499.0241.081.0641.1564.1176.2218.0536.0654.1197.1195.1944.159.0748.0396.1567.064.241.0716l17.8836 1.6311c.1723.0158.344-.0366.478-.146.1341-.1093.2197-.2668.2386-.4385v-.0003z" fill="#FB9300"/><path fill-rule="evenodd" clip-rule="evenodd" d="M59.3129 29.4854c.0092-.0839.0016-.1689-.0225-.2498-.024-.081-.0639-.1564-.1175-.2218-.0535-.0653-.1196-.1194-.1943-.159-.0747-.0397-.1566-.064-.2408-.0717L40.8542 27.152c-.1724-.0158-.344.0367-.4781.146-.134.1093-.2197.2668-.2386.4385-.0092.084-.0016.169.0224.25.024.0811.064.1565.1176.2219.0535.0654.1196.1195.1944.1591.0748.0397.1567.064.241.0716L58.5962 30.07c.1723.0157.344-.0367.4781-.146.134-.1094.2197-.2669.2386-.4386z" fill="#E73A5E"/><path fill-rule="evenodd" clip-rule="evenodd" d="M82.0943 64.4682l5.3472-3.6534-4.4327-4.7549-1.0836.8366 3.4565 3.7077-4.1406 2.8296.8532 1.0344zm-12.5958-.9269l1.0836-.8369-3.4564-3.7077 4.1408-2.8293-.8535-1.0344-5.3466 3.6534 4.4321 4.7549zm8.3606 2.5392l1.2934-.5357-5.6883-11.3815-1.2934.5354 5.6883 11.3818z" fill="#FFFFFE"/><mask id="b" maskUnits="userSpaceOnUse" x="94" y="0" width="27" height="19"><path d="M120.701.077515H94.0383V18.4175h26.6627V.077515z" fill="#fff"/></mask><g mask="url(#b)"><path fill-rule="evenodd" clip-rule="evenodd" d="M117.052 18.4163c.665 0 1.3-.2105 1.815-.6078.594-.4569.947-1.0976.995-1.8038l.834-12.34384c.046-.69304-.209-1.35896-.719-1.87491-.51-.51627-1.21-.817798-1.972-.848748L96.9868.078879C96.2097.04729 95.472.299363 94.9097.78883c-.562.48915-.8717 1.14868-.8717 1.85704V13.9103c0 1.3184 1.0862 2.4167 2.5263 2.5549l20.1837 1.9368c.102.0096.203.0143.304.0143" fill="#E73A5E"/></g><path fill-rule="evenodd" clip-rule="evenodd" d="M116.871 5.21056c.009-.08399.001-.16898-.023-.25-.024-.08103-.064-.15646-.117-.22188-.054-.06542-.12-.11952-.195-.15914-.075-.03962-.157-.06396-.241-.07159L98.4119 2.87714c-.1724-.01575-.3441.03667-.4781.146-.134.10932-.2197.2668-.2386.43855a.635482.635482 0 00.0224.24984c.0241.08097.064.15634.1175.22172.0536.06539.1196.11947.1943.15908.0748.03962.1566.06397.2409.07165l17.8837 1.63113c.172.01575.344-.03668.478-.146s.22-.2668.239-.43855zm-.123 4.27183c.01-.08399.002-.16898-.022-.25001-.024-.08102-.064-.15645-.118-.22187-.053-.06542-.119-.11952-.194-.15914-.075-.03962-.157-.06396-.241-.07159L98.2895 7.14864c-.1725-.01574-.3442.03673-.4782.14612-.1341.10939-.2197.26695-.2385.43876a.635832.635832 0 00.0224.24991c.0241.08098.0641.15637.1176.22176a.637351.637351 0 00.1944.15905.63812.63812 0 00.241.07157l17.8838 1.63109c.172.0158.344-.0366.478-.14596.134-.10933.22-.26681.238-.43855zm-.122 4.27151c.009-.0839.002-.1689-.022-.2498-.024-.081-.064-.1564-.118-.2218-.053-.0654-.12-.1194-.194-.159a.640267.640267 0 00-.241-.0717l-17.8837-1.6311c-.1723-.0158-.344.0367-.478.146-.1341.1093-.2197.2668-.2386.4385a.63433.63433 0 00.0223.25c.024.081.0639.1564.1175.2218.0535.0654.1196.1195.1943.1592.0748.0396.1567.064.2409.0716l17.8833 1.6312c.173.0157.344-.0368.479-.1461.134-.1094.219-.267.238-.4388z" fill="#FFFFFE"/><path fill-rule="evenodd" clip-rule="evenodd" d="M19.9505 20.0401c0 2.4393-1.9125 4.4237-4.2633 4.4237-2.351 0-4.2636-1.9847-4.2636-4.4237 0-2.4397 1.9126-4.4241 4.2636-4.4241 2.3508 0 4.2633 1.9847 4.2633 4.4241zm-9.9477.0137c.0012.6479.1125 1.2909.3292 1.9017l-1.09739.3111c.24838.7267.61787 1.4063 1.09289 2.0102l.9577-.6238c.4212.5183.93.9592 1.5034 1.3025l-.6828.9129c.714.4432 1.5048.7493 2.3316.9023l.2474-1.104c.3308.06.6662.0904 1.0024.0906.3488-.0002.6968-.0328 1.0396-.0973l.2567 1.1021c.8247-.1588 1.6125-.4699 2.3229-.9174l-.6882-.9077c.5704-.3476 1.0757-.7918 1.4931-1.3127l.9622.618a6.82336 6.82336 0 001.0798-2.0149l-1.0996-.3057c.2105-.6051.3181-1.2411.318-1.8816l-.0003-.0122 1.137-.0016c-.0013-.753-.1237-1.4932-.3644-2.2003l-1.0977.3095c-.2172-.6163-.5386-1.191-.95-1.6991l.9596-.6219c-.4931-.6317-1.0937-1.1717-1.7744-1.5954l-.6847.9116c-.583-.3511-1.2251-.5934-1.895-.715l.2503-1.104c-.8413-.1568-1.7045-.1557-2.5454.0031l.2535 1.1028c-.6809.1254-1.3202.3727-1.8934.7189l-.6863-.9094c-.6799.425-1.2795.9662-1.7712 1.5989l.9609.62c-.4102.5089-.7301 1.0841-.9459 1.7007l-1.09831-.3073c-.23938.7091-.36107 1.4524-.36026 2.2007l1.13707.0137zm5.6844 1.797c-.9375 0-1.7005-.8123-1.7005-1.8107 0-.9988.763-1.8111 1.7005-1.8111.9373 0 1.7003.8123 1.7003 1.8111 0 .9987-.763 1.8107-1.7006 1.8107h.0003zm0-4.9154c-1.7213 0-3.1214 1.3925-3.1214 3.1047 0 1.7118 1.4001 3.1046 3.1214 3.1046 1.7211 0 3.1212-1.3928 3.1212-3.1046 0-1.7122-1.4001-3.1047-3.1212-3.1047z" fill="#523B5D"/></g><defs><clipPath id="clip0"><path fill="#fff" transform="matrix(-1 0 0 1 187 0)" d="M0 0h187v194H0z"/></clipPath></defs></svg>