<svg width="92" height="54" viewBox="0 0 92 54" fill="none" xmlns="http://www.w3.org/2000/svg"><path fill-rule="evenodd" clip-rule="evenodd" d="M44.0864 11.8346l-6.8059 4.9386c-.4532.2647-.6301 1.0524-.6301 1.4062v35.1162c.0001.0835.0165.1662.0482.2432.0317.0771.0782.1471.1368.206.0585.0589.1279.1055.2043.1372.0764.0317.1582.0479.2408.0475h6.8059c.0826.0002.1643-.016.2407-.0477.0763-.0318.1457-.0784.2042-.1373.0586-.0588.105-.1288.1368-.2058.0318-.077.0483-.1596.0485-.2431V12.4677c0-.3489-.1041-.8678-.6302-.6331zm16.56 30.4813c-1.4701-1.9034-1.2987-1.7325.2202-3.6302 5.2902-6.6079 7.5362-9.0513 8.212-9.9864.1401-.1943.281-.319-.1826-.6776-1.0553-.8153-3.7-2.7891-4.5415-3.4813-.1898-.157-.3956-.0931-.5461.0697-.5997.6476-2.1147 2.3146-7.7452 7.9469-2.4957 2.496-2.0818 2.5632-2.0818-.3133V17.4459c0-.3505-.2578-.6403-.6589-.9051l-6.2527-4.8219c-.5364-.1765-.7558.1077-.7558.4582l.0096 41.1185c.0002.0836.0167.1662.0485.2433s.0784.1471.137.2059c.0586.0589.1281.1055.2045.1372.0764.0317.1583.0479.2409.0475h6.3968c.0826.0004.1644-.0158.2408-.0475.0763-.0317.1458-.0783.2043-.1372.0586-.0589.105-.1289.1368-.206.0317-.077.0481-.1597.0482-.2432 0 0-.0696-5.0915-.0176-4.5394-.1641-1.7366.0849-1.7957 1.5582-.3441 1.0409 1.0274 3.3237 3.7379 4.4086 4.9102.6013.6477.8063.6161 1.2931.6097 1.7087-.0235 6.0189-.0065 7.5378-.0098.4732 0 .751-.2704.4612-.7108-1.2339-1.8766-5.476-6.8799-8.5763-10.8955zM34.43 18.8028l-6.7715 4.2706c-.4524.2648-.6822.6016-.6822 1.4274l.0521 12.4345h-6.8388v-7.9858a.642063.642063 0 00-.0482-.2433.63588.63588 0 00-.1367-.2062c-.0585-.0589-.128-.1056-.2044-.1374-.0764-.0318-.1582-.0481-.2408-.0478l-6.7531 4.3718c-.4003.2647-.6309.6541-.6309 1.0047v19.6043c.0002.0836.0167.1662.0485.2433s.0784.1471.137.2059c.0586.0589.1281.1055.2045.1372.0765.0317.1583.0479.2409.0475h6.7531c.0826.0004.1644-.0158.2408-.0475s.1458-.0783.2043-.1372c.0586-.0589.1051-.1289.1368-.206.0317-.077.0481-.1597.0482-.2432v-7.8919h6.8388v7.8919c.0002.0835.0167.1661.0484.2431.0318.077.0783.147.1368.2058.0585.0589.1279.1055.2043.1373.0763.0317.1581.0479.2406.0477H34.43c.0826.0004.1644-.0158.2408-.0475s.1458-.0783.2044-.1372c.0585-.0589.105-.1289.1367-.206.0318-.077.0482-.1597.0483-.2432v-33.858c-.0001-.0836-.0165-.1663-.0483-.2434-.0317-.0771-.0781-.1471-.1367-.2061-.0585-.0589-.1279-.1056-.2043-.1374-.0764-.0318-.1583-.0481-.2409-.0479zM.092163 50.981v2.9388l10.060737-.0299-.0064-8.9768L.092163 50.981zM86.7275 34.4976c.0826.0003.1645-.016.2408-.0478.0764-.0318.1459-.0785.2044-.1374.0585-.059.105-.129.1367-.2062.0318-.0771.0482-.1598.0483-.2433v-5.0195c0-.3505-.2819-.846-.6302-.846H71.0859c-.3483 0-.6301.4955-.6301.846v24.4498a.64156.64156 0 00.0482.2432c.0317.0771.0782.1471.1368.2059.0585.0589.1279.1056.2043.1373.0764.0317.1582.0478.2408.0475h15.6392c.0826.0002.1645-.016.2409-.0478.0763-.0318.1458-.0785.2043-.1375.0585-.0589.105-.129.1367-.2061.0318-.0771.0481-.1598.0483-.2433v-5.6178c-.0002-.0835-.0165-.1662-.0483-.2433-.0317-.0771-.0782-.1472-.1367-.2061-.0585-.059-.128-.1057-.2043-.1375-.0764-.0318-.1583-.048-.2409-.0478h-8.6243v-3.2408h8.6243c.0826.0002.1645-.0161.2409-.0479.0763-.0318.1458-.0785.2043-.1374.0585-.059.105-.129.1367-.2061.0318-.0771.0481-.1598.0483-.2433v-4.7896c-.0003-.0835-.0167-.1661-.0485-.2431-.0318-.077-.0783-.147-.1368-.2058-.0585-.0589-.1279-.1055-.2042-.1373-.0764-.0317-.1582-.0479-.2407-.0477h-8.6243v-3.2465l8.6267.0032z" fill="#477AAA"/><path fill-rule="evenodd" clip-rule="evenodd" d="M91.081 2.46196c-2.302.62015-7.9741 2.03209-10.1544 2.52108-.4805.10768-.7607.23074-.4476.53757.6653.64768 1.9112 1.84507 1.9112 1.84507L70.2277 17.5998S59.4463 10.4624 46.9867.945589c-1.5646-1.194962-1.3412-1.2403-2.8826-.182968C36.0347 6.28811.065857 30.7112.065857 30.7112v8.0684S35.4014 16.0875 44.7031 9.20508c1.2066-.89055.9144-.63553 2.1266.28903 12.9649 9.88599 23.631 17.42249 23.631 17.42249l16.7754-14.5727s.924.9853 1.5437 1.6046c.4003.4048.5084.3959.6606-.132.5741-1.9835 1.8544-8.07811 2.3692-10.54251.2402-1.14234.3331-1.09863-.7286-.81203z" fill="#477AAA"/><path fill-rule="evenodd" clip-rule="evenodd" d="M10.1144 34.437L.092084 40.9898.08728 49.0364 10.148 42.8786l-.0336-8.4416zm77.1511-19.8756L73.6609 26.4017h13.6687l-.0641-11.8403z" fill="#477AAA"/></svg>