<svg width="419" height="39" viewBox="0 0 419 39" fill="none" xmlns="http://www.w3.org/2000/svg"><path d="M9.21 30.36c-1.54 0-2.9-.26-4.08-.78-1.18-.54-2.11-1.3-2.79-2.28-.68-1-1.03-2.21-1.05-3.63h4.05c.04.98.39 1.81 1.05 2.49.68.66 1.61.99 2.79.99 1.02 0 1.83-.24 2.43-.72.6-.5.9-1.16.9-1.98 0-.86-.27-1.53-.81-2.01-.52-.48-1.22-.87-2.1-1.17-.88-.3-1.82-.62-2.82-.96-1.62-.56-2.86-1.28-3.72-2.16-.84-.88-1.26-2.05-1.26-3.51-.02-1.24.27-2.3.87-3.18.62-.9 1.46-1.59 2.52-2.07 1.06-.5 2.28-.75 3.66-.75 1.4 0 2.63.25 3.69.75 1.08.5 1.92 1.2 2.52 2.1.62.9.95 1.97.99 3.21h-4.11c-.02-.74-.31-1.39-.87-1.95-.54-.58-1.3-.87-2.28-.87-.84-.02-1.55.19-2.13.63-.56.42-.84 1.04-.84 1.86 0 .7.22 1.26.66 1.68.44.4 1.04.74 1.8 1.02s1.63.58 2.61.9c1.04.36 1.99.78 2.85 1.26.86.48 1.55 1.12 2.07 1.92.52.78.78 1.79.78 3.03 0 1.1-.28 2.12-.84 3.06-.56.94-1.39 1.7-2.49 2.28-1.1.56-2.45.84-4.05.84zM19.9404 30V9h13.71v3.09h-9.87v5.76h8.97v3h-8.97v6.06h9.87V30h-13.71zm27.1837.36c-2.1 0-3.94-.46-5.52-1.38-1.56-.92-2.79-2.19-3.69-3.81-.88-1.64-1.32-3.53-1.32-5.67s.44-4.02 1.32-5.64c.9-1.64 2.13-2.92 3.69-3.84 1.58-.92 3.42-1.38 5.52-1.38 2.08 0 3.91.46 5.49 1.38 1.58.92 2.81 2.2 3.69 3.84.88 1.62 1.32 3.5 1.32 5.64 0 2.14-.44 4.03-1.32 5.67-.88 1.62-2.11 2.89-3.69 3.81-1.58.92-3.41 1.38-5.49 1.38zm0-3.45c2 0 3.59-.66 4.77-1.98 1.2-1.32 1.8-3.13 1.8-5.43s-.6-4.11-1.8-5.43c-1.18-1.32-2.77-1.98-4.77-1.98-2 0-3.6.66-4.8 1.98-1.2 1.32-1.8 3.13-1.8 5.43s.6 4.11 1.8 5.43c1.2 1.32 2.8 1.98 4.8 1.98zm26.1689 7.44c-1.12-1.12-2.12-2.42-3-3.9-.86-1.46-1.55-3.07-2.07-4.83-.5-1.76-.75-3.63-.75-5.61 0-1.98.25-3.85.75-5.61.52-1.76 1.21-3.37 2.07-4.83.88-1.48 1.88-2.78 3-3.9h3.84v.36c-1.8 1.9-3.23 4.05-4.29 6.45-1.06 2.38-1.59 4.89-1.59 7.53 0 2.64.53 5.16 1.59 7.56 1.06 2.38 2.49 4.52 4.29 6.42v.36h-3.84zM80.7455 30V18.33h-2.04v-3.21h2.04v-1.74c0-1.8.45-3.08 1.35-3.84.92-.76 2.16-1.14 3.72-1.14h1.65v3.27h-1.05c-.66 0-1.13.13-1.41.39s-.42.7-.42 1.32v1.74h9.6V30h-3.84V18.33h-5.76V30h-3.84zm11.55-17.01c-.7 0-1.28-.21-1.74-.63-.44-.42-.66-.95-.66-1.59 0-.64.22-1.16.66-1.56.46-.42 1.04-.63 1.74-.63s1.27.21 1.71.63c.46.4.69.92.69 1.56s-.23 1.17-.69 1.59c-.44.42-1.01.63-1.71.63zM98.2488 30V15.12h3.3902l.3 2.52c.46-.88 1.12-1.58 1.98-2.1.88-.52 1.91-.78 3.09-.78 1.84 0 3.27.58 4.29 1.74 1.02 1.16 1.53 2.86 1.53 5.1V30h-3.84v-8.04c0-1.28-.26-2.26-.78-2.94-.52-.68-1.33-1.02-2.43-1.02-1.08 0-1.97.38-2.67 1.14-.68.76-1.02 1.82-1.02 3.18V30h-3.8402zm23.3822.36c-1.28 0-2.33-.2-3.15-.6-.82-.42-1.43-.97-1.83-1.65-.4-.68-.6-1.43-.6-2.25 0-1.38.54-2.5 1.62-3.36 1.08-.86 2.7-1.29 4.86-1.29h3.78v-.36c0-1.02-.29-1.77-.87-2.25-.58-.48-1.3-.72-2.16-.72-.78 0-1.46.19-2.04.57-.58.36-.94.9-1.08 1.62h-3.75c.1-1.08.46-2.02 1.08-2.82.64-.8 1.46-1.41 2.46-1.83 1-.44 2.12-.66 3.36-.66 2.12 0 3.79.53 5.01 1.59 1.22 1.06 1.83 2.56 1.83 4.5V30h-3.27l-.36-2.4c-.44.8-1.06 1.46-1.86 1.98-.78.52-1.79.78-3.03.78zm.87-3c1.1 0 1.95-.36 2.55-1.08.62-.72 1.01-1.61 1.17-2.67h-3.27c-1.02 0-1.75.19-2.19.57-.44.36-.66.81-.66 1.35 0 .58.22 1.03.66 1.35.44.32 1.02.48 1.74.48zM133.815 30V8.4h3.84V30h-3.84zm7.764 0V8.4h3.84V30h-3.84zm9.624 6.6l3.45-7.59h-.9l-5.79-13.89h4.17l4.17 10.47 4.35-10.47h4.08l-9.45 21.48h-4.08zm15.05-2.25v-.36c1.8-1.9 3.23-4.04 4.29-6.42 1.06-2.4 1.59-4.92 1.59-7.56 0-2.64-.53-5.15-1.59-7.53-1.06-2.4-2.49-4.55-4.29-6.45v-.36h3.84c1.12 1.12 2.11 2.42 2.97 3.9.88 1.46 1.57 3.07 2.07 4.83.52 1.76.78 3.63.78 5.61 0 1.98-.26 3.85-.78 5.61-.5 1.76-1.19 3.37-2.07 4.83-.86 1.48-1.85 2.78-2.97 3.9h-3.84zm25.251-3.99c-1.28 0-2.33-.2-3.15-.6-.82-.42-1.43-.97-1.83-1.65-.4-.68-.6-1.43-.6-2.25 0-1.38.54-2.5 1.62-3.36 1.08-.86 2.7-1.29 4.86-1.29h3.78v-.36c0-1.02-.29-1.77-.87-2.25-.58-.48-1.3-.72-2.16-.72-.78 0-1.46.19-2.04.57-.58.36-.94.9-1.08 1.62h-3.75c.1-1.08.46-2.02 1.08-2.82.64-.8 1.46-1.41 2.46-1.83 1-.44 2.12-.66 3.36-.66 2.12 0 3.79.53 5.01 1.59 1.22 1.06 1.83 2.56 1.83 4.5V30h-3.27l-.36-2.4c-.44.8-1.06 1.46-1.86 1.98-.78.52-1.79.78-3.03.78zm.87-3c1.1 0 1.95-.36 2.55-1.08.62-.72 1.01-1.61 1.17-2.67h-3.27c-1.02 0-1.75.19-2.19.57-.44.36-.66.81-.66 1.35 0 .58.22 1.03.66 1.35.44.32 1.02.48 1.74.48zm18.604 3c-1.52 0-2.86-.33-4.02-.99-1.16-.66-2.08-1.58-2.76-2.76-.66-1.18-.99-2.53-.99-4.05s.33-2.87.99-4.05c.68-1.18 1.6-2.1 2.76-2.76 1.16-.66 2.5-.99 4.02-.99 1.9 0 3.5.5 4.8 1.5 1.3.98 2.13 2.34 2.49 4.08h-4.05c-.2-.72-.6-1.28-1.2-1.68-.58-.42-1.27-.63-2.07-.63-1.06 0-1.96.4-2.7 1.2-.74.8-1.11 1.91-1.11 3.33 0 1.42.37 2.53 1.11 3.33.74.8 1.64 1.2 2.7 1.2.8 0 1.49-.2 2.07-.6.6-.4 1-.97 1.2-1.71h4.05c-.36 1.68-1.19 3.03-2.49 4.05-1.3 1.02-2.9 1.53-4.8 1.53zm17.989 0c-1.52 0-2.86-.33-4.02-.99-1.16-.66-2.08-1.58-2.76-2.76-.66-1.18-.99-2.53-.99-4.05s.33-2.87.99-4.05c.68-1.18 1.6-2.1 2.76-2.76 1.16-.66 2.5-.99 4.02-.99 1.9 0 3.5.5 4.8 1.5 1.3.98 2.13 2.34 2.49 4.08h-4.05c-.2-.72-.6-1.28-1.2-1.68-.58-.42-1.27-.63-2.07-.63-1.06 0-1.96.4-2.7 1.2-.74.8-1.11 1.91-1.11 3.33 0 1.42.37 2.53 1.11 3.33.74.8 1.64 1.2 2.7 1.2.8 0 1.49-.2 2.07-.6.6-.4 1-.97 1.2-1.71h4.05c-.36 1.68-1.19 3.03-2.49 4.05-1.3 1.02-2.9 1.53-4.8 1.53zm17.928 0c-1.5 0-2.83-.32-3.99-.96-1.16-.64-2.07-1.54-2.73-2.7-.66-1.16-.99-2.5-.99-4.02 0-1.54.32-2.91.96-4.11.66-1.2 1.56-2.13 2.7-2.79 1.16-.68 2.52-1.02 4.08-1.02 1.46 0 2.75.32 3.87.96 1.12.64 1.99 1.52 2.61 2.64.64 1.1.96 2.33.96 3.69 0 .22-.01.45-.03.69 0 .24-.01.49-.03.75h-11.31c.08 1.16.48 2.07 1.2 2.73.74.66 1.63.99 2.67.99.78 0 1.43-.17 1.95-.51.54-.36.94-.82 1.2-1.38h3.9c-.28.94-.75 1.8-1.41 2.58-.64.76-1.44 1.36-2.4 1.8-.94.44-2.01.66-3.21.66zm.03-12.48c-.94 0-1.77.27-2.49.81-.72.52-1.18 1.32-1.38 2.4h7.41c-.06-.98-.42-1.76-1.08-2.34-.66-.58-1.48-.87-2.46-.87zm16.82 12.48c-1.32 0-2.48-.21-3.48-.63-1-.44-1.8-1.04-2.4-1.8-.6-.76-.96-1.64-1.08-2.64h3.87c.12.58.44 1.08.96 1.5.54.4 1.23.6 2.07.6.84 0 1.45-.17 1.83-.51.4-.34.6-.73.6-1.17 0-.64-.28-1.07-.84-1.29-.56-.24-1.34-.47-2.34-.69-.64-.14-1.29-.31-1.95-.51-.66-.2-1.27-.45-1.83-.75-.54-.32-.98-.72-1.32-1.2-.34-.5-.51-1.11-.51-1.83 0-1.32.52-2.43 1.56-3.33 1.06-.9 2.54-1.35 4.44-1.35 1.76 0 3.16.41 4.2 1.23 1.06.82 1.69 1.95 1.89 3.39h-3.63c-.22-1.1-1.05-1.65-2.49-1.65-.72 0-1.28.14-1.68.42-.38.28-.57.63-.57 1.05 0 .44.29.79.87 1.05.58.26 1.35.5 2.31.72 1.04.24 1.99.51 2.85.81.88.28 1.58.71 2.1 1.29.52.56.78 1.37.78 2.43.02.92-.22 1.75-.72 2.49-.5.74-1.22 1.32-2.16 1.74-.94.42-2.05.63-3.33.63zm15.761 0c-1.32 0-2.48-.21-3.48-.63-1-.44-1.8-1.04-2.4-1.8-.6-.76-.96-1.64-1.08-2.64h3.87c.12.58.44 1.08.96 1.5.54.4 1.23.6 2.07.6.84 0 1.45-.17 1.83-.51.4-.34.6-.73.6-1.17 0-.64-.28-1.07-.84-1.29-.56-.24-1.34-.47-2.34-.69-.64-.14-1.29-.31-1.95-.51-.66-.2-1.27-.45-1.83-.75-.54-.32-.98-.72-1.32-1.2-.34-.5-.51-1.11-.51-1.83 0-1.32.52-2.43 1.56-3.33 1.06-.9 2.54-1.35 4.44-1.35 1.76 0 3.16.41 4.2 1.23 1.06.82 1.69 1.95 1.89 3.39h-3.63c-.22-1.1-1.05-1.65-2.49-1.65-.72 0-1.28.14-1.68.42-.38.28-.57.63-.57 1.05 0 .44.29.79.87 1.05.58.26 1.35.5 2.31.72 1.04.24 1.99.51 2.85.81.88.28 1.58.71 2.1 1.29.52.56.78 1.37.78 2.43.02.92-.22 1.75-.72 2.49-.5.74-1.22 1.32-2.16 1.74-.94.42-2.05.63-3.33.63zm11.682-17.55c-.7 0-1.28-.21-1.74-.63-.44-.42-.66-.95-.66-1.59 0-.64.22-1.16.66-1.56.46-.42 1.04-.63 1.74-.63s1.27.21 1.71.63c.46.4.69.92.69 1.56s-.23 1.17-.69 1.59c-.44.42-1.01.63-1.71.63zM289.268 30V15.12h3.84V30h-3.84zm16.668.36c-1.12 0-2.1-.21-2.94-.63-.84-.42-1.52-1.01-2.04-1.77l-.42 2.04h-3.42V8.4h3.84v8.85c.48-.66 1.11-1.24 1.89-1.74.8-.5 1.83-.75 3.09-.75 1.4 0 2.65.34 3.75 1.02 1.1.68 1.97 1.61 2.61 2.79.64 1.18.96 2.52.96 4.02 0 1.5-.32 2.84-.96 4.02-.64 1.16-1.51 2.08-2.61 2.76-1.1.66-2.35.99-3.75.99zm-.81-3.36c1.22 0 2.23-.41 3.03-1.23.8-.82 1.2-1.88 1.2-3.18 0-1.3-.4-2.37-1.2-3.21-.8-.84-1.81-1.26-3.03-1.26-1.24 0-2.26.42-3.06 1.26-.78.82-1.17 1.88-1.17 3.18 0 1.3.39 2.37 1.17 3.21.8.82 1.82 1.23 3.06 1.23zm11.56 3V8.4h3.84V30h-3.84zm14.994.36c-1.5 0-2.83-.32-3.99-.96-1.16-.64-2.07-1.54-2.73-2.7-.66-1.16-.99-2.5-.99-4.02 0-1.54.32-2.91.96-4.11.66-1.2 1.56-2.13 2.7-2.79 1.16-.68 2.52-1.02 4.08-1.02 1.46 0 2.75.32 3.87.96 1.12.64 1.99 1.52 2.61 2.64.64 1.1.96 2.33.96 3.69 0 .22-.01.45-.03.69 0 .24-.01.49-.03.75h-11.31c.08 1.16.48 2.07 1.2 2.73.74.66 1.63.99 2.67.99.78 0 1.43-.17 1.95-.51.54-.36.94-.82 1.2-1.38h3.9c-.28.94-.75 1.8-1.41 2.58-.64.76-1.44 1.36-2.4 1.8-.94.44-2.01.66-3.21.66zm.03-12.48c-.94 0-1.77.27-2.49.81-.72.52-1.18 1.32-1.38 2.4h7.41c-.06-.98-.42-1.76-1.08-2.34-.66-.58-1.48-.87-2.46-.87zM356.158 30c-1.56 0-2.81-.38-3.75-1.14-.94-.76-1.41-2.11-1.41-4.05v-6.48h-2.55v-3.21h2.55l.45-3.99h3.39v3.99h4.02v3.21h-4.02v6.51c0 .72.15 1.22.45 1.5.32.26.86.39 1.62.39h1.86V30h-2.61zm12.756.36c-1.44 0-2.74-.33-3.9-.99-1.14-.66-2.05-1.57-2.73-2.73-.66-1.18-.99-2.54-.99-4.08s.34-2.89 1.02-4.05c.68-1.18 1.59-2.1 2.73-2.76 1.16-.66 2.46-.99 3.9-.99 1.42 0 2.7.33 3.84.99 1.16.66 2.07 1.58 2.73 2.76.68 1.16 1.02 2.51 1.02 4.05s-.34 2.9-1.02 4.08c-.66 1.16-1.57 2.07-2.73 2.73-1.16.66-2.45.99-3.87.99zm0-3.33c1 0 1.87-.37 2.61-1.11.74-.76 1.11-1.88 1.11-3.36s-.37-2.59-1.11-3.33c-.74-.76-1.6-1.14-2.58-1.14-1.02 0-1.9.38-2.64 1.14-.72.74-1.08 1.85-1.08 3.33s.36 2.6 1.08 3.36c.74.74 1.61 1.11 2.61 1.11zm23.332 3.33c-1.28 0-2.33-.2-3.15-.6-.82-.42-1.43-.97-1.83-1.65-.4-.68-.6-1.43-.6-2.25 0-1.38.54-2.5 1.62-3.36 1.08-.86 2.7-1.29 4.86-1.29h3.78v-.36c0-1.02-.29-1.77-.87-2.25-.58-.48-1.3-.72-2.16-.72-.78 0-1.46.19-2.04.57-.58.36-.94.9-1.08 1.62h-3.75c.1-1.08.46-2.02 1.08-2.82.64-.8 1.46-1.41 2.46-1.83 1-.44 2.12-.66 3.36-.66 2.12 0 3.79.53 5.01 1.59 1.22 1.06 1.83 2.56 1.83 4.5V30h-3.27l-.36-2.4c-.44.8-1.06 1.46-1.86 1.98-.78.52-1.79.78-3.03.78zm.87-3c1.1 0 1.95-.36 2.55-1.08.62-.72 1.01-1.61 1.17-2.67h-3.27c-1.02 0-1.75.19-2.19.57-.44.36-.66.81-.66 1.35 0 .58.22 1.03.66 1.35.44.32 1.02.48 1.74.48zM404.43 30V8.4h3.84V30h-3.84zm7.764 0V8.4h3.84V30h-3.84z" fill="#18232A"/></svg>