<svg width="304" height="114" viewBox="0 0 304 114" fill="none" xmlns="http://www.w3.org/2000/svg"><path d="M10.164 44V17.732H1.188V13.2h23.628v4.532h-9.02V44h-5.632zm18.6921 0V12.32h5.632v13.2c.7333-1.2027 1.716-2.1413 2.948-2.816 1.2613-.704 2.6987-1.056 4.312-1.056 2.6987 0 4.7813.8507 6.248 2.552 1.496 1.7013 2.244 4.1947 2.244 7.48V44h-5.588V32.208c0-1.8773-.3813-3.3147-1.144-4.312-.7333-.9973-1.9067-1.496-3.52-1.496-1.584 0-2.904.5573-3.96 1.672-1.0267 1.1147-1.54 2.6693-1.54 4.664V44h-5.632zm37.3735.528c-2.2 0-4.1506-.4693-5.852-1.408-1.7013-.9387-3.036-2.2587-4.004-3.96-.968-1.7013-1.452-3.6667-1.452-5.896 0-2.2587.4694-4.268 1.408-6.028.968-1.76 2.288-3.124 3.96-4.092 1.7014-.9973 3.696-1.496 5.984-1.496 2.1414 0 4.0334.4693 5.676 1.408 1.6427.9387 2.9187 2.2293 3.828 3.872.9387 1.6133 1.408 3.4173 1.408 5.412 0 .3227-.0146.66-.044 1.012 0 .352-.0146.7187-.044 1.1h-16.588c.1174 1.7013.704 3.036 1.76 4.004 1.0854.968 2.3907 1.452 3.916 1.452 1.144 0 2.0974-.2493 2.86-.748.792-.528 1.3787-1.2027 1.76-2.024h5.72c-.4106 1.3787-1.1 2.64-2.068 3.784-.9386 1.1147-2.112 1.9947-3.52 2.64-1.3786.6453-2.948.968-4.708.968zm.044-18.304c-1.3786 0-2.596.396-3.652 1.188-1.056.7627-1.7306 1.936-2.024 3.52h10.868c-.088-1.4373-.616-2.5813-1.584-3.432-.968-.8507-2.1706-1.276-3.608-1.276zM92.5389 44V13.2h5.632v12.804h13.8161V13.2h5.632V44h-5.632V30.58H98.1709V44h-5.632zm33.9701-25.212c-1.026 0-1.877-.308-2.552-.924-.645-.616-.968-1.3933-.968-2.332 0-.9387.323-1.7013.968-2.288.675-.616 1.526-.924 2.552-.924 1.027 0 1.863.308 2.508.924.675.5867 1.012 1.3493 1.012 2.288 0 .9387-.337 1.716-1.012 2.332-.645.616-1.481.924-2.508.924zM123.693 44V22.176h5.632V44h-5.632zm11.511 0V12.32h5.632v18.7l7.744-8.844h6.688l-8.932 9.944L156.72 44h-7.04l-8.844-10.956V44h-5.632zm33.807.528c-2.2 0-4.151-.4693-5.852-1.408-1.701-.9387-3.036-2.2587-4.004-3.96-.968-1.7013-1.452-3.6667-1.452-5.896 0-2.2587.469-4.268 1.408-6.028.968-1.76 2.288-3.124 3.96-4.092 1.701-.9973 3.696-1.496 5.984-1.496 2.141 0 4.033.4693 5.676 1.408 1.643.9387 2.919 2.2293 3.828 3.872.939 1.6133 1.408 3.4173 1.408 5.412 0 .3227-.015.66-.044 1.012 0 .352-.015.7187-.044 1.1h-16.588c.117 1.7013.704 3.036 1.76 4.004 1.085.968 2.391 1.452 3.916 1.452 1.144 0 2.097-.2493 2.86-.748.792-.528 1.379-1.2027 1.76-2.024h5.72c-.411 1.3787-1.1 2.64-2.068 3.784-.939 1.1147-2.112 1.9947-3.52 2.64-1.379.6453-2.948.968-4.708.968zm.044-18.304c-1.379 0-2.596.396-3.652 1.188-1.056.7627-1.731 1.936-2.024 3.52h10.868c-.088-1.4373-.616-2.5813-1.584-3.432-.968-.8507-2.171-1.276-3.608-1.276zm36.781 18.304c-2.259 0-4.253-.3813-5.984-1.144-1.731-.792-3.095-1.9067-4.092-3.344-.997-1.4667-1.511-3.2413-1.54-5.324h5.94c.059 1.4373.572 2.6547 1.54 3.652.997.968 2.361 1.452 4.092 1.452 1.496 0 2.684-.352 3.564-1.056.88-.7333 1.32-1.7013 1.32-2.904 0-1.2613-.396-2.244-1.188-2.948-.763-.704-1.789-1.276-3.08-1.716-1.291-.44-2.669-.9093-4.136-1.408-2.376-.8213-4.195-1.8773-5.456-3.168-1.232-1.2907-1.848-3.0067-1.848-5.148-.029-1.8187.396-3.3733 1.276-4.664.909-1.32 2.141-2.332 3.696-3.036 1.555-.7333 3.344-1.1 5.368-1.1 2.053 0 3.857.3667 5.412 1.1 1.584.7333 2.816 1.76 3.696 3.08.909 1.32 1.393 2.8893 1.452 4.708h-6.028c-.029-1.0853-.455-2.0387-1.276-2.86-.792-.8507-1.907-1.276-3.344-1.276-1.232-.0293-2.273.2787-3.124.924-.821.616-1.232 1.5253-1.232 2.728 0 1.0267.323 1.848.968 2.464.645.5867 1.525 1.0853 2.64 1.496 1.115.4107 2.391.8507 3.828 1.32 1.525.528 2.919 1.144 4.18 1.848 1.261.704 2.273 1.6427 3.036 2.816.763 1.144 1.144 2.6253 1.144 4.444 0 1.6133-.411 3.1093-1.232 4.488-.821 1.3787-2.039 2.4933-3.652 3.344-1.613.8213-3.593 1.232-5.94 1.232zM221.574 44V13.2h20.108v4.532h-14.476v8.448h13.156v4.4h-13.156v8.888h14.476V44h-20.108zm39.87.528c-3.08 0-5.779-.6747-8.096-2.024-2.288-1.3493-4.092-3.212-5.412-5.588C246.645 34.5107 246 31.7387 246 28.6c0-3.1387.645-5.896 1.936-8.272 1.32-2.4053 3.124-4.2827 5.412-5.632 2.317-1.3493 5.016-2.024 8.096-2.024 3.05 0 5.734.6747 8.052 2.024 2.317 1.3493 4.121 3.2267 5.412 5.632 1.29 2.376 1.936 5.1333 1.936 8.272s-.646 5.9107-1.936 8.316c-1.291 2.376-3.095 4.2387-5.412 5.588-2.318 1.3493-5.002 2.024-8.052 2.024zm0-5.06c2.933 0 5.265-.968 6.996-2.904 1.76-1.936 2.64-4.5907 2.64-7.964 0-3.3733-.88-6.028-2.64-7.964-1.731-1.936-4.063-2.904-6.996-2.904-2.934 0-5.28.968-7.04 2.904-1.76 1.936-2.64 4.5907-2.64 7.964 0 3.3733.88 6.028 2.64 7.964 1.76 1.936 4.106 2.904 7.04 2.904zM1.012 101l11.264-30.8h6.336L29.876 101h-5.984l-2.464-7.128H9.416L6.908 101H1.012zm9.944-11.528h8.932L15.4 76.668l-4.444 12.804zm32.4163 12.056c-2.2293 0-4.1947-.484-5.896-1.452-1.7013-.968-3.0507-2.3173-4.048-4.048-.968-1.7307-1.452-3.7107-1.452-5.94 0-2.2293.484-4.2093 1.452-5.94.9973-1.7307 2.3467-3.08 4.048-4.048 1.7013-.968 3.6667-1.452 5.896-1.452 2.7867 0 5.1333.7333 7.04 2.2 1.9067 1.4373 3.124 3.432 3.652 5.984h-5.94c-.2933-1.056-.88-1.8773-1.76-2.464-.8507-.616-1.8627-.924-3.036-.924-1.5547 0-2.8747.5867-3.96 1.76-1.0853 1.1733-1.628 2.8013-1.628 4.884 0 2.0827.5427 3.7107 1.628 4.884 1.0853 1.1733 2.4053 1.76 3.96 1.76 1.1733 0 2.1853-.2933 3.036-.88.88-.5867 1.4667-1.4227 1.76-2.508h5.94c-.528 2.464-1.7453 4.444-3.652 5.94-1.9067 1.496-4.2533 2.244-7.04 2.244zm23.2148 0c-1.8773 0-3.4173-.293-4.62-.88-1.2026-.616-2.0973-1.4227-2.684-2.42-.5866-.9973-.88-2.0973-.88-3.3 0-2.024.792-3.6667 2.376-4.928 1.584-1.2613 3.96-1.892 7.128-1.892h5.544v-.528c0-1.496-.4253-2.596-1.276-3.3-.8506-.704-1.9066-1.056-3.168-1.056-1.144 0-2.1413.2787-2.992.836-.8506.528-1.3786 1.32-1.584 2.376h-5.5c.1467-1.584.6747-2.9627 1.584-4.136.9387-1.1733 2.1414-2.068 3.608-2.684 1.4667-.6453 3.1094-.968 4.928-.968 3.1094 0 5.5587.7773 7.348 2.332 1.7894 1.5547 2.684 3.7547 2.684 6.6V101h-4.796l-.528-3.52c-.6453 1.1733-1.5546 2.1413-2.728 2.904-1.144.763-2.6253 1.144-4.444 1.144zm1.276-4.4c1.6134 0 2.86-.528 3.74-1.584.9094-1.056 1.4814-2.3613 1.716-3.916h-4.796c-1.496 0-2.5666.2787-3.212.836-.6453.528-.968 1.188-.968 1.98 0 .8507.3227 1.5107.968 1.98.6454.4693 1.496.704 2.552.704zm26.6266 4.4c-2.0534 0-3.8867-.499-5.5-1.496-1.6134-.9973-2.8894-2.3613-3.828-4.092-.9387-1.7307-1.408-3.696-1.408-5.896 0-2.2.4693-4.1507 1.408-5.852.9386-1.7307 2.2146-3.08 3.828-4.048 1.6133-.9973 3.4466-1.496 5.5-1.496 1.6426 0 3.08.308 4.312.924 1.2323.616 2.2293 1.4813 2.9923 2.596V69.32h5.632V101h-5.016l-.616-3.124c-.704.968-1.643 1.8187-2.8163 2.552-1.144.733-2.64 1.1-4.488 1.1zm1.188-4.928c1.8186 0 3.3-.6013 4.4443-1.804 1.173-1.232 1.76-2.8013 1.76-4.708 0-1.9067-.587-3.4613-1.76-4.664-1.1443-1.232-2.6257-1.848-4.4443-1.848-1.7894 0-3.2707.6013-4.444 1.804-1.1734 1.2027-1.76 2.7573-1.76 4.664 0 1.9067.5866 3.476 1.76 4.708 1.1733 1.232 2.6546 1.848 4.444 1.848zm28.0873 4.928c-2.2 0-4.151-.469-5.852-1.408-1.702-.9387-3.036-2.2587-4.004-3.96-.968-1.7013-1.452-3.6667-1.452-5.896 0-2.2587.469-4.268 1.408-6.028.968-1.76 2.288-3.124 3.96-4.092 1.701-.9973 3.696-1.496 5.984-1.496 2.141 0 4.033.4693 5.676 1.408 1.642.9387 2.918 2.2293 3.828 3.872.938 1.6133 1.408 3.4173 1.408 5.412 0 .3227-.015.66-.044 1.012 0 .352-.015.7187-.044 1.1h-16.588c.117 1.7013.704 3.036 1.76 4.004 1.085.968 2.39 1.452 3.916 1.452 1.144 0 2.097-.2493 2.86-.748.792-.528 1.378-1.2027 1.76-2.024h5.72c-.411 1.3787-1.1 2.64-2.068 3.784-.939 1.1147-2.112 1.9947-3.52 2.64-1.379.645-2.948.968-4.708.968zm.044-18.304c-1.379 0-2.596.396-3.652 1.188-1.056.7627-1.731 1.936-2.024 3.52h10.868c-.088-1.4373-.616-2.5813-1.584-3.432-.968-.8507-2.171-1.276-3.608-1.276zM139.458 101V79.176h4.972l.484 2.948c.704-1.056 1.628-1.892 2.772-2.508 1.173-.6453 2.522-.968 4.048-.968 3.373 0 5.764 1.3053 7.172 3.916.792-1.2027 1.848-2.156 3.168-2.86 1.349-.704 2.816-1.056 4.4-1.056 2.845 0 5.03.8507 6.556 2.552 1.525 1.7013 2.288 4.1947 2.288 7.48V101h-5.632V89.208c0-1.8773-.367-3.3147-1.1-4.312-.704-.9973-1.804-1.496-3.3-1.496-1.526 0-2.758.5573-3.696 1.672-.91 1.1147-1.364 2.6693-1.364 4.664V101h-5.632V89.208c0-1.8773-.367-3.3147-1.1-4.312-.734-.9973-1.863-1.496-3.388-1.496-1.496 0-2.714.5573-3.652 1.672-.91 1.1147-1.364 2.6693-1.364 4.664V101h-5.632zm43.204 9.68l5.06-11.132h-1.32l-8.492-20.372h6.116l6.116 15.356 6.38-15.356h5.984l-13.86 31.504h-5.984z" fill="#F2F2F2"/></svg>