<svg width="539" height="90" viewBox="0 0 539 90" fill="none" xmlns="http://www.w3.org/2000/svg"><path d="M34.532 22V9.72h-4.14V8h10.38v1.72h-4.12V22h-2.12zm8.1439 0V7.6h2.12v6.08c.3334-.5733.7934-1.02 1.38-1.34.6-.3333 1.26-.5 1.98-.5 1.1867 0 2.12.3733 2.8 1.12.68.7467 1.02 1.86 1.02 3.34V22h-2.1v-5.48c0-1.92-.7666-2.88-2.3-2.88-.8 0-1.4666.28-2 .84-.52.56-.78 1.36-.78 2.4V22h-2.12zm16.4369.24c-.9733 0-1.84-.2133-2.6-.64-.7467-.44-1.3333-1.0467-1.76-1.82-.4267-.7733-.64-1.6733-.64-2.7 0-1.04.2067-1.9533.62-2.74.4267-.7867 1.0133-1.4 1.76-1.84.76-.44 1.64-.66 2.64-.66.9733 0 1.82.22 2.54.66.72.4267 1.28 1 1.68 1.72.4.72.6 1.5133.6 2.38 0 .1333-.0067.28-.02.44 0 .1467-.0067.3133-.02.5h-7.72c.0667.96.38 1.6933.94 2.2.5733.4933 1.2333.74 1.98.74.6 0 1.1-.1333 1.5-.4.4133-.28.72-.6533.92-1.12h2.12c-.2667.9333-.8 1.7133-1.6 2.34-.7867.6267-1.7667.94-2.94.94zm0-8.66c-.7067 0-1.3333.2133-1.88.64-.5467.4133-.88 1.04-1 1.88h5.6c-.04-.7733-.3133-1.3867-.82-1.84-.5067-.4533-1.14-.68-1.9-.68zM71.2716 22V8h2.12v6h6.78V8h2.12v14h-2.12v-6.26h-6.78V22h-2.12zm14.9872-11.8c-.4 0-.7334-.12-1-.36-.2534-.25333-.38-.56667-.38-.94 0-.37333.1266-.68.38-.92.2666-.25333.6-.38 1-.38s.7266.12667.98.38c.2666.24.4.54667.4.92 0 .37333-.1334.68667-.4.94-.2534.24-.58.36-.98.36zm-1.06 11.8v-9.92h2.12V22h-2.12zm4.9185 0V7.6h2.12v8.58l3.8-4.1h2.54l-4.22 4.5 4.84 5.42h-2.68l-4.28-5.08V22h-2.12zm14.6007.24c-.973 0-1.84-.2133-2.6-.64-.746-.44-1.333-1.0467-1.76-1.82-.4264-.7733-.6397-1.6733-.6397-2.7 0-1.04.2066-1.9533.6197-2.74.427-.7867 1.014-1.4 1.76-1.84.76-.44 1.64-.66 2.64-.66.974 0 1.82.22 2.54.66.72.4267 1.28 1 1.68 1.72.4.72.6 1.5133.6 2.38 0 .1333-.006.28-.02.44 0 .1467-.006.3133-.02.5h-7.72c.067.96.38 1.6933.94 2.2.574.4933 1.234.74 1.98.74.6 0 1.1-.1333 1.5-.4.414-.28.72-.6533.92-1.12h2.12c-.266.9333-.8 1.7133-1.6 2.34-.786.6267-1.766.94-2.94.94zm0-8.66c-.706 0-1.333.2133-1.88.64-.546.4133-.88 1.04-1 1.88h5.6c-.04-.7733-.313-1.3867-.82-1.84-.506-.4533-1.14-.68-1.9-.68zm16.779 8.66c-1.027 0-1.927-.18-2.7-.54-.773-.36-1.38-.8733-1.82-1.54-.427-.6667-.647-1.46-.66-2.38h2.24c.013.7467.273 1.38.78 1.9s1.22.78 2.14.78c.813 0 1.447-.1933 1.9-.58.467-.4.7-.9067.7-1.52 0-.4933-.113-.8933-.34-1.2-.213-.3067-.513-.56-.9-.76-.373-.2-.807-.38-1.3-.54-.493-.16-1.013-.3333-1.56-.52-1.08-.36-1.893-.8267-2.44-1.4-.533-.5733-.8-1.3267-.8-2.26-.013-.7867.167-1.4733.54-2.06.387-.58667.92-1.04 1.6-1.36.693-.33333 1.5-.5 2.42-.5.907 0 1.7.16667 2.38.5.693.33333 1.233.8 1.62 1.4.387.5867.587 1.2733.6 2.06h-2.24c0-.36-.093-.7-.28-1.02-.187-.3333-.46-.6067-.82-.82-.36-.21333-.8-.32-1.32-.32-.667-.01333-1.22.15333-1.66.5-.427.3467-.64.8267-.64 1.44 0 .5467.16.9667.48 1.26.32.2933.76.54 1.32.74.56.1867 1.2.4067 1.92.66.693.2267 1.313.5 1.86.82.547.32.98.74 1.3 1.26.333.52.5 1.18.5 1.98 0 .7067-.18 1.3667-.54 1.98-.36.6-.9 1.0933-1.62 1.48-.72.3733-1.607.56-2.66.56zm7.138-.24V8h8.9v1.72h-6.78v4.36h6.18v1.68h-6.18v4.52h6.78V22h-8.9zm17.886.24c-1.387 0-2.6-.3067-3.64-.92-1.04-.6133-1.854-1.46-2.44-2.54-.587-1.0933-.88-2.3533-.88-3.78 0-1.4267.293-2.68.88-3.76.586-1.0933 1.4-1.94667 2.44-2.56 1.04-.61333 2.253-.92 3.64-.92 1.386 0 2.6.30667 3.64.92s1.846 1.4667 2.42 2.56c.586 1.08.88 2.3333.88 3.76 0 1.4267-.294 2.6867-.88 3.78-.574 1.08-1.38 1.9267-2.42 2.54s-2.254.92-3.64.92zm0-1.9c.96 0 1.793-.2133 2.5-.64.72-.4267 1.28-1.04 1.68-1.84.4-.8.6-1.7533.6-2.86 0-1.1067-.2-2.06-.6-2.86-.4-.8-.96-1.4133-1.68-1.84-.707-.42667-1.54-.64-2.5-.64s-1.8.21333-2.52.64c-.72.4267-1.28 1.04-1.68 1.84-.387.8-.58 1.7533-.58 2.86 0 1.1067.193 2.06.58 2.86.4.8.96 1.4133 1.68 1.84.72.4267 1.56.64 2.52.64zm13.44 1.66l5.16-14h2.32l5.12 14h-2.24l-1.2-3.42h-5.72l-1.2 3.42h-2.24zm4.04-5.1h4.52l-2.26-6.38-2.26 6.38zm14.625 5.34c-.973 0-1.847-.22-2.62-.66-.76-.44-1.36-1.0467-1.8-1.82-.427-.7867-.64-1.6933-.64-2.72 0-1.0267.213-1.9267.64-2.7.44-.7867 1.04-1.4 1.8-1.84.773-.44 1.647-.66 2.62-.66 1.227 0 2.253.32 3.08.96.84.64 1.38 1.5067 1.62 2.6h-2.22c-.133-.5467-.427-.9733-.88-1.28s-.987-.46-1.6-.46c-.52 0-1 .1333-1.44.4-.44.2533-.793.6333-1.06 1.14-.267.4933-.4 1.1067-.4 1.84 0 .7333.133 1.3533.4 1.86.267.4933.62.8733 1.06 1.14.44.2667.92.4 1.44.4.613 0 1.147-.1533 1.6-.46.453-.3067.747-.74.88-1.3h2.22c-.227 1.0667-.76 1.9267-1.6 2.58-.84.6533-1.873.98-3.1.98zm10.359 0c-.84 0-1.533-.14-2.08-.42-.547-.28-.953-.6467-1.22-1.1-.267-.4667-.4-.9733-.4-1.52 0-.96.373-1.72 1.12-2.28.747-.56 1.813-.84 3.2-.84h2.6v-.18c0-.7733-.213-1.3533-.64-1.74-.413-.3867-.953-.58-1.62-.58-.587 0-1.1.1467-1.54.44-.427.28-.687.7-.78 1.26h-2.12c.067-.72.307-1.3333.72-1.84.427-.52.96-.9133 1.6-1.18.653-.28 1.367-.42 2.14-.42 1.387 0 2.46.3667 3.22 1.1.76.72 1.14 1.7067 1.14 2.96V22h-1.84l-.18-1.7c-.28.5467-.687 1.0067-1.22 1.38-.533.3733-1.233.56-2.1.56zm.42-1.72c.573 0 1.053-.1333 1.44-.4.4-.28.707-.6467.92-1.1.227-.4533.367-.9533.42-1.5h-2.36c-.84 0-1.44.1467-1.8.44-.347.2933-.52.66-.52 1.1 0 .4533.167.8133.5 1.08.347.2533.813.38 1.4.38zm11.912 1.72c-.96 0-1.807-.2267-2.54-.68-.733-.4533-1.307-1.0733-1.72-1.86-.413-.7867-.62-1.68-.62-2.68 0-1 .207-1.8867.62-2.66.413-.7867.987-1.4 1.72-1.84.747-.4533 1.6-.68 2.56-.68.787 0 1.473.1533 2.06.46.6.3067 1.067.74 1.4 1.3v-6h2.12V22h-1.9l-.22-1.54c-.32.4667-.76.88-1.32 1.24s-1.28.54-2.16.54zm.38-1.84c.907 0 1.647-.3133 2.22-.94.587-.6267.88-1.4333.88-2.42 0-1-.293-1.8067-.88-2.42-.573-.6267-1.313-.94-2.22-.94-.907 0-1.653.3133-2.24.94-.587.6133-.88 1.42-.88 2.42 0 .6533.133 1.2333.4 1.74.267.5067.633.9067 1.1 1.2.48.28 1.02.42 1.62.42zm12.533 1.84c-.973 0-1.84-.2133-2.6-.64-.747-.44-1.333-1.0467-1.76-1.82-.427-.7733-.64-1.6733-.64-2.7 0-1.04.207-1.9533.62-2.74.427-.7867 1.013-1.4 1.76-1.84.76-.44 1.64-.66 2.64-.66.973 0 1.82.22 2.54.66.72.4267 1.28 1 1.68 1.72.4.72.6 1.5133.6 2.38 0 .1333-.007.28-.02.44 0 .1467-.007.3133-.02.5h-7.72c.067.96.38 1.6933.94 2.2.573.4933 1.233.74 1.98.74.6 0 1.1-.1333 1.5-.4.413-.28.72-.6533.92-1.12h2.12c-.267.9333-.8 1.7133-1.6 2.34-.787.6267-1.767.94-2.94.94zm0-8.66c-.707 0-1.333.2133-1.88.64-.547.4133-.88 1.04-1 1.88h5.6c-.04-.7733-.313-1.3867-.82-1.84-.507-.4533-1.14-.68-1.9-.68zm7.04 8.42v-9.92h1.88l.18 1.4c.32-.5067.74-.9067 1.26-1.2.533-.2933 1.146-.44 1.84-.44 1.573 0 2.666.62 3.28 1.86.36-.5733.84-1.0267 1.44-1.36.613-.3333 1.273-.5 1.98-.5 1.24 0 2.213.3733 2.92 1.12.706.7467 1.06 1.86 1.06 3.34V22h-2.12v-5.48c0-1.92-.734-2.88-2.2-2.88-.747 0-1.36.28-1.84.84-.467.56-.7 1.36-.7 2.4V22h-2.12v-5.48c0-1.92-.74-2.88-2.22-2.88-.734 0-1.34.28-1.82.84-.467.56-.7 1.36-.7 2.4V22h-2.12zm19.168 4.4l2.38-5.22h-.58l-3.92-9.1h2.3l3.04 7.34 3.18-7.34h2.24l-6.4 14.32h-2.24zM257.84 22l-2.92-9.92h2.12l1.92 7.48 2.16-7.48h2.36l2.16 7.48 1.92-7.48h2.12L266.76 22h-2.18l-2.28-7.8-2.28 7.8h-2.18zm16.497.24c-.84 0-1.534-.14-2.08-.42-.547-.28-.954-.6467-1.22-1.1-.267-.4667-.4-.9733-.4-1.52 0-.96.373-1.72 1.12-2.28.746-.56 1.813-.84 3.2-.84h2.6v-.18c0-.7733-.214-1.3533-.64-1.74-.414-.3867-.954-.58-1.62-.58-.587 0-1.1.1467-1.54.44-.427.28-.687.7-.78 1.26h-2.12c.066-.72.306-1.3333.72-1.84.426-.52.96-.9133 1.6-1.18.653-.28 1.366-.42 2.14-.42 1.386 0 2.46.3667 3.22 1.1.76.72 1.14 1.7067 1.14 2.96V22h-1.84l-.18-1.7c-.28.5467-.687 1.0067-1.22 1.38-.534.3733-1.234.56-2.1.56zm.42-1.72c.573 0 1.053-.1333 1.44-.4.4-.28.706-.6467.92-1.1.226-.4533.366-.9533.42-1.5h-2.36c-.84 0-1.44.1467-1.8.44-.347.2933-.52.66-.52 1.1 0 .4533.166.8133.5 1.08.346.2533.813.38 1.4.38zm11.352 1.72c-1.254 0-2.287-.3067-3.1-.92-.814-.6133-1.28-1.4267-1.4-2.44h2.14c.106.4533.36.8467.76 1.18.4.32.926.48 1.58.48.64 0 1.106-.1333 1.4-.4.293-.2667.44-.5733.44-.92 0-.5067-.207-.8467-.62-1.02-.4-.1867-.96-.3533-1.68-.5-.56-.12-1.12-.28-1.68-.48-.547-.2-1.007-.48-1.38-.84-.36-.3733-.54-.8733-.54-1.5 0-.8667.333-1.5867 1-2.16.666-.5867 1.6-.88 2.8-.88 1.106 0 2 .2667 2.68.8.693.5333 1.1 1.2867 1.22 2.26h-2.04c-.067-.4267-.267-.76-.6-1-.32-.24-.754-.36-1.3-.36-.534 0-.947.1133-1.24.34-.294.2133-.44.4933-.44.84 0 .3467.2.62.6.82.413.2.953.38 1.62.54.666.1467 1.28.32 1.84.52.573.1867 1.033.4667 1.38.84.346.3733.52.92.52 1.64.013.9067-.34 1.66-1.06 2.26-.707.6-1.674.9-2.9.9zm16.013 0c-.973 0-1.847-.22-2.62-.66-.76-.44-1.36-1.0467-1.8-1.82-.427-.7867-.64-1.6933-.64-2.72 0-1.0267.213-1.9267.64-2.7.44-.7867 1.04-1.4 1.8-1.84.773-.44 1.647-.66 2.62-.66 1.227 0 2.253.32 3.08.96.84.64 1.38 1.5067 1.62 2.6h-2.22c-.133-.5467-.427-.9733-.88-1.28s-.987-.46-1.6-.46c-.52 0-1 .1333-1.44.4-.44.2533-.793.6333-1.06 1.14-.267.4933-.4 1.1067-.4 1.84 0 .7333.133 1.3533.4 1.86.267.4933.62.8733 1.06 1.14.44.2667.92.4 1.44.4.613 0 1.147-.1533 1.6-.46.453-.3067.747-.74.88-1.3h2.22c-.227 1.0667-.76 1.9267-1.6 2.58-.84.6533-1.873.98-3.1.98zm6.999-.24v-9.92h1.9l.18 1.88c.347-.6533.827-1.1667 1.44-1.54.627-.3867 1.38-.58 2.26-.58v2.22h-.58c-.586 0-1.113.1-1.58.3-.453.1867-.82.5133-1.1.98-.266.4533-.4 1.0867-.4 1.9V22h-2.12zm11.964.24c-.973 0-1.84-.2133-2.6-.64-.746-.44-1.333-1.0467-1.76-1.82-.426-.7733-.64-1.6733-.64-2.7 0-1.04.207-1.9533.62-2.74.427-.7867 1.014-1.4 1.76-1.84.76-.44 1.64-.66 2.64-.66.974 0 1.82.22 2.54.66.72.4267 1.28 1 1.68 1.72.4.72.6 1.5133.6 2.38 0 .1333-.006.28-.02.44 0 .1467-.006.3133-.02.5h-7.72c.067.96.38 1.6933.94 2.2.574.4933 1.234.74 1.98.74.6 0 1.1-.1333 1.5-.4.414-.28.72-.6533.92-1.12h2.12c-.266.9333-.8 1.7133-1.6 2.34-.786.6267-1.766.94-2.94.94zm0-8.66c-.706 0-1.333.2133-1.88.64-.546.4133-.88 1.04-1 1.88h5.6c-.04-.7733-.313-1.3867-.82-1.84-.506-.4533-1.14-.68-1.9-.68zm10.4 8.66c-.84 0-1.533-.14-2.08-.42-.547-.28-.953-.6467-1.22-1.1-.267-.4667-.4-.9733-.4-1.52 0-.96.373-1.72 1.12-2.28.747-.56 1.813-.84 3.2-.84h2.6v-.18c0-.7733-.213-1.3533-.64-1.74-.413-.3867-.953-.58-1.62-.58-.587 0-1.1.1467-1.54.44-.427.28-.687.7-.78 1.26h-2.12c.067-.72.307-1.3333.72-1.84.427-.52.96-.9133 1.6-1.18.653-.28 1.367-.42 2.14-.42 1.387 0 2.46.3667 3.22 1.1.76.72 1.14 1.7067 1.14 2.96V22h-1.84l-.18-1.7c-.28.5467-.687 1.0067-1.22 1.38-.533.3733-1.233.56-2.1.56zm.42-1.72c.573 0 1.053-.1333 1.44-.4.4-.28.707-.6467.92-1.1.227-.4533.367-.9533.42-1.5h-2.36c-.84 0-1.44.1467-1.8.44-.347.2933-.52.66-.52 1.1 0 .4533.167.8133.5 1.08.347.2533.813.38 1.4.38zM343.262 22c-.974 0-1.747-.2333-2.32-.7-.574-.48-.86-1.3267-.86-2.54v-4.9h-1.7v-1.78h1.7l.26-2.52h1.86v2.52h2.8v1.78h-2.8v4.9c0 .5467.113.9267.34 1.14.24.2.646.3 1.22.3h1.14V22h-1.64zm8.312.24c-.974 0-1.84-.2133-2.6-.64-.747-.44-1.334-1.0467-1.76-1.82-.427-.7733-.64-1.6733-.64-2.7 0-1.04.206-1.9533.62-2.74.426-.7867 1.013-1.4 1.76-1.84.76-.44 1.64-.66 2.64-.66.973 0 1.82.22 2.54.66.72.4267 1.28 1 1.68 1.72.4.72.6 1.5133.6 2.38 0 .1333-.007.28-.02.44 0 .1467-.007.3133-.02.5h-7.72c.066.96.38 1.6933.94 2.2.573.4933 1.233.74 1.98.74.6 0 1.1-.1333 1.5-.4.413-.28.72-.6533.92-1.12h2.12c-.267.9333-.8 1.7133-1.6 2.34-.787.6267-1.767.94-2.94.94zm0-8.66c-.707 0-1.334.2133-1.88.64-.547.4133-.88 1.04-1 1.88h5.6c-.04-.7733-.314-1.3867-.82-1.84-.507-.4533-1.14-.68-1.9-.68zm11.559 8.66c-.96 0-1.806-.2267-2.54-.68-.733-.4533-1.306-1.0733-1.72-1.86-.413-.7867-.62-1.68-.62-2.68 0-1 .207-1.8867.62-2.66.414-.7867.987-1.4 1.72-1.84.747-.4533 1.6-.68 2.56-.68.787 0 1.474.1533 2.06.46.6.3067 1.067.74 1.4 1.3v-6h2.12V22h-1.9l-.22-1.54c-.32.4667-.76.88-1.32 1.24s-1.28.54-2.16.54zm.38-1.84c.907 0 1.647-.3133 2.22-.94.587-.6267.88-1.4333.88-2.42 0-1-.293-1.8067-.88-2.42-.573-.6267-1.313-.94-2.22-.94-.906 0-1.653.3133-2.24.94-.586.6133-.88 1.42-.88 2.42 0 .6533.134 1.2333.4 1.74.267.5067.634.9067 1.1 1.2.48.28 1.02.42 1.62.42zm17.092 1.6c-.973 0-1.746-.2333-2.32-.7-.573-.48-.86-1.3267-.86-2.54v-4.9h-1.7v-1.78h1.7l.26-2.52h1.86v2.52h2.8v1.78h-2.8v4.9c0 .5467.114.9267.34 1.14.24.2.647.3 1.22.3h1.14V22h-1.64zm8.313.24c-.947 0-1.8-.2133-2.56-.64-.747-.44-1.34-1.0467-1.78-1.82-.44-.7867-.66-1.7-.66-2.74 0-1.04.22-1.9467.66-2.72.453-.7867 1.06-1.3933 1.82-1.82.76-.44 1.606-.66 2.54-.66.946 0 1.793.22 2.54.66.76.4267 1.36 1.0333 1.8 1.82.453.7733.679 1.68.679 2.72 0 1.04-.226 1.9533-.679 2.74-.44.7733-1.04 1.38-1.8 1.82-.76.4267-1.614.64-2.56.64zm0-1.82c.506 0 .973-.1267 1.4-.38.44-.2533.793-.6267 1.06-1.12.266-.5067.4-1.1333.4-1.88 0-.7467-.134-1.3667-.4-1.86-.254-.5067-.6-.8867-1.04-1.14-.427-.2533-.894-.38-1.4-.38-.507 0-.98.1267-1.42.38-.427.2533-.774.6333-1.04 1.14-.267.4933-.4 1.1133-.4 1.86 0 .7467.133 1.3733.4 1.88.266.4933.613.8667 1.04 1.12.426.2533.893.38 1.4.38zm20.371 5.98v-5.94c-.32.4667-.76.88-1.32 1.24s-1.28.54-2.16.54c-.96 0-1.806-.2267-2.54-.68-.733-.4533-1.306-1.0733-1.72-1.86-.413-.7867-.62-1.68-.62-2.68 0-1 .207-1.8867.62-2.66.414-.7867.987-1.4 1.72-1.84.747-.4533 1.6-.68 2.56-.68.787 0 1.474.1533 2.06.46.6.3067 1.067.74 1.4 1.3l.22-1.52h1.9V26.4h-2.12zm-3.1-6c.907 0 1.647-.3133 2.22-.94.587-.6267.88-1.4333.88-2.42 0-1-.293-1.8067-.88-2.42-.573-.6267-1.313-.94-2.22-.94-.906 0-1.653.3133-2.24.94-.586.6133-.88 1.42-.88 2.42 0 .6533.134 1.2333.4 1.74.267.5067.634.9067 1.1 1.2.48.28 1.02.42 1.62.42zm11.553 1.84c-1.2 0-2.146-.3733-2.84-1.12-.68-.7467-1.02-1.86-1.02-3.34v-5.7h2.12v5.48c0 1.92.787 2.88 2.36 2.88.787 0 1.434-.28 1.94-.84.507-.56.76-1.36.76-2.4v-5.12h2.12V22h-1.88l-.16-1.74c-.306.6133-.76 1.1-1.36 1.46-.586.3467-1.266.52-2.04.52zm9.337-12.04c-.4 0-.733-.12-1-.36-.253-.25333-.38-.56667-.38-.94 0-.37333.127-.68.38-.92.267-.25333.6-.38 1-.38s.727.12667.98.38c.267.24.4.54667.4.92 0 .37333-.133.68667-.4.94-.253.24-.58.36-.98.36zm-1.06 11.8v-9.92h2.12V22h-2.12zm9.619.24c-.974 0-1.847-.22-2.62-.66-.76-.44-1.36-1.0467-1.8-1.82-.427-.7867-.64-1.6933-.64-2.72 0-1.0267.213-1.9267.64-2.7.44-.7867 1.04-1.4 1.8-1.84.773-.44 1.646-.66 2.62-.66 1.226 0 2.253.32 3.08.96.84.64 1.38 1.5067 1.62 2.6h-2.22c-.134-.5467-.427-.9733-.88-1.28-.454-.3067-.987-.46-1.6-.46-.52 0-1 .1333-1.44.4-.44.2533-.794.6333-1.06 1.14-.267.4933-.4 1.1067-.4 1.84 0 .7333.133 1.3533.4 1.86.266.4933.62.8733 1.06 1.14.44.2667.92.4 1.44.4.613 0 1.146-.1533 1.6-.46.453-.3067.746-.74.88-1.3h2.22c-.227 1.0667-.76 1.9267-1.6 2.58-.84.6533-1.874.98-3.1.98zm6.999-.24V7.6h2.12v8.58l3.8-4.1h2.54l-4.22 4.5 4.84 5.42h-2.68l-4.28-5.08V22h-2.12zm10.723 0V7.6h2.12V22h-2.12zm5.964 4.4l2.38-5.22h-.58l-3.92-9.1h2.3l3.04 7.34 3.18-7.34h2.24l-6.4 14.32h-2.24zm18.782-4.16c-.84 0-1.533-.14-2.08-.42-.546-.28-.953-.6467-1.22-1.1-.266-.4667-.4-.9733-.4-1.52 0-.96.374-1.72 1.12-2.28.747-.56 1.814-.84 3.2-.84h2.6v-.18c0-.7733-.213-1.3533-.64-1.74-.413-.3867-.953-.58-1.62-.58-.586 0-1.1.1467-1.54.44-.426.28-.686.7-.78 1.26h-2.12c.067-.72.307-1.3333.72-1.84.427-.52.96-.9133 1.6-1.18.654-.28 1.367-.42 2.14-.42 1.387 0 2.46.3667 3.22 1.1.76.72 1.14 1.7067 1.14 2.96V22h-1.84l-.18-1.7c-.28.5467-.686 1.0067-1.22 1.38-.533.3733-1.233.56-2.1.56zm.42-1.72c.574 0 1.054-.1333 1.44-.4.4-.28.707-.6467.92-1.1.227-.4533.367-.9533.42-1.5h-2.36c-.84 0-1.44.1467-1.8.44-.346.2933-.52.66-.52 1.1 0 .4533.167.8133.5 1.08.347.2533.814.38 1.4.38zm7.392 1.48v-9.92h1.88l.16 1.74c.307-.6133.753-1.0933 1.34-1.44.6-.36 1.287-.54 2.06-.54 1.2 0 2.14.3733 2.82 1.12.693.7467 1.04 1.86 1.04 3.34V22h-2.1v-5.48c0-1.92-.787-2.88-2.36-2.88-.787 0-1.44.28-1.96.84-.507.56-.76 1.36-.76 2.4V22h-2.12zm16.317.24c-.96 0-1.807-.2267-2.54-.68-.733-.4533-1.307-1.0733-1.72-1.86-.413-.7867-.62-1.68-.62-2.68 0-1 .207-1.8867.62-2.66.413-.7867.987-1.4 1.72-1.84.747-.4533 1.6-.68 2.56-.68.787 0 1.473.1533 2.06.46.6.3067 1.067.74 1.4 1.3v-6h2.12V22h-1.9l-.22-1.54c-.32.4667-.76.88-1.32 1.24s-1.28.54-2.16.54zm.38-1.84c.907 0 1.647-.3133 2.22-.94.587-.6267.88-1.4333.88-2.42 0-1-.293-1.8067-.88-2.42-.573-.6267-1.313-.94-2.22-.94-.907 0-1.653.3133-2.24.94-.587.6133-.88 1.42-.88 2.42 0 .6533.133 1.2333.4 1.74.267.5067.633.9067 1.1 1.2.48.28 1.02.42 1.62.42zM23.0288 52.24c-.9733 0-1.84-.2133-2.6-.64-.7466-.44-1.3333-1.0467-1.76-1.82-.4266-.7733-.64-1.6733-.64-2.7 0-1.04.2067-1.9533.62-2.74.4267-.7867 1.0134-1.4 1.76-1.84.76-.44 1.64-.66 2.64-.66.9734 0 1.82.22 2.54.66.72.4267 1.28 1 1.68 1.72.4.72.6 1.5133.6 2.38 0 .1333-.0066.28-.02.44 0 .1467-.0066.3133-.02.5h-7.72c.0667.96.38 1.6933.94 2.2.5734.4933 1.2334.74 1.98.74.6 0 1.1-.1333 1.5-.4.4134-.28.72-.6533.92-1.12h2.12c-.2666.9333-.8 1.7133-1.6 2.34-.7866.6267-1.7666.94-2.94.94zm0-8.66c-.7066 0-1.3333.2133-1.88.64-.5466.4133-.88 1.04-1 1.88h5.6c-.04-.7733-.3133-1.3867-.82-1.84-.5066-.4533-1.14-.68-1.9-.68zM30.5685 52v-8.14h-1.42v-1.78h1.42v-1.44c0-1.08.2667-1.8533.8-2.32.5467-.48 1.3133-.72 2.3-.72h1.04v1.8h-.72c-.4667 0-.8.1-1 .3-.2.1867-.3.5067-.3.96v1.42h2.28v1.78h-2.28V52h-2.12zm6.9141 0v-8.14h-1.42v-1.78h1.42v-1.44c0-1.08.2666-1.8533.8-2.32.5466-.48 1.3133-.72 2.3-.72h1.04v1.8h-.72c-.4667 0-.8.1-1 .3-.2.1867-.3.5067-.3.96v1.42h2.28v1.78h-2.28V52h-2.12zm10.6634.24c-.9733 0-1.84-.2133-2.6-.64-.7467-.44-1.3333-1.0467-1.76-1.82-.4267-.7733-.64-1.6733-.64-2.7 0-1.04.2067-1.9533.62-2.74.4267-.7867 1.0133-1.4 1.76-1.84.76-.44 1.64-.66 2.64-.66.9733 0 1.82.22 2.54.66.72.4267 1.28 1 1.68 1.72.4.72.6 1.5133.6 2.38 0 .1333-.0067.28-.02.44 0 .1467-.0067.3133-.02.5h-7.72c.0667.96.38 1.6933.94 2.2.5733.4933 1.2333.74 1.98.74.6 0 1.1-.1333 1.5-.4.4133-.28.72-.6533.92-1.12h2.12c-.2667.9333-.8 1.7133-1.6 2.34-.7867.6267-1.7667.94-2.94.94zm0-8.66c-.7067 0-1.3333.2133-1.88.64-.5467.4133-.88 1.04-1 1.88h5.6c-.04-.7733-.3133-1.3867-.82-1.84-.5067-.4533-1.14-.68-1.9-.68zm11.7397 8.66c-.9733 0-1.8467-.22-2.62-.66-.76-.44-1.36-1.0467-1.8-1.82-.4267-.7867-.64-1.6933-.64-2.72 0-1.0267.2133-1.9267.64-2.7.44-.7867 1.04-1.4 1.8-1.84.7733-.44 1.6467-.66 2.62-.66 1.2267 0 2.2533.32 3.08.96.84.64 1.38 1.5067 1.62 2.6h-2.22c-.1333-.5467-.4267-.9733-.88-1.28s-.9867-.46-1.6-.46c-.52 0-1 .1333-1.44.4-.44.2533-.7933.6333-1.06 1.14-.2667.4933-.4 1.1067-.4 1.84 0 .7333.1333 1.3533.4 1.86.2667.4933.62.8733 1.06 1.14.44.2667.92.4 1.44.4.6133 0 1.1467-.1533 1.6-.46.4533-.3067.7467-.74.88-1.3h2.22c-.2267 1.0667-.76 1.9267-1.6 2.58-.84.6533-1.8733.98-3.1.98zM70.8496 52c-.9733 0-1.7467-.2333-2.32-.7-.5733-.48-.86-1.3267-.86-2.54v-4.9h-1.7v-1.78h1.7l.26-2.52h1.86v2.52h2.8v1.78h-2.8v4.9c0 .5467.1133.9267.34 1.14.24.2.6467.3 1.22.3h1.14V52h-1.64zm5.1259-11.8c-.4 0-.7333-.12-1-.36-.2533-.2533-.38-.5667-.38-.94 0-.3733.1267-.68.38-.92.2667-.2533.6-.38 1-.38s.7267.1267.98.38c.2667.24.4.5467.4.92 0 .3733-.1333.6867-.4.94-.2533.24-.58.36-.98.36zm-1.06 11.8v-9.92h2.12V52h-2.12zm7.6986 0l-3.72-9.92h2.22l2.76 7.9 2.76-7.9h2.2l-3.7 9.92h-2.52zm12.0944.24c-.9733 0-1.84-.2133-2.6-.64-.7467-.44-1.3333-1.0467-1.76-1.82-.4267-.7733-.64-1.6733-.64-2.7 0-1.04.2067-1.9533.62-2.74.4267-.7867 1.0133-1.4 1.76-1.84.76-.44 1.64-.66 2.64-.66.9733 0 1.82.22 2.54.66.72.4267 1.28 1 1.68 1.72.4.72.6 1.5133.6 2.38 0 .1333-.0067.28-.02.44 0 .1467-.0067.3133-.02.5h-7.72c.0667.96.38 1.6933.94 2.2.5733.4933 1.2333.74 1.98.74.6 0 1.1-.1333 1.5-.4.4133-.28.72-.6533.92-1.12h2.12c-.2667.9333-.8 1.7133-1.6 2.34-.7867.6267-1.7667.94-2.94.94zm0-8.66c-.7067 0-1.3333.2133-1.88.64-.5467.4133-.88 1.04-1 1.88h5.6c-.04-.7733-.3133-1.3867-.82-1.84-.5067-.4533-1.14-.68-1.9-.68zM101.748 52V37.6h2.12V52h-2.12zm5.965 4.4l2.38-5.22h-.58l-3.92-9.1h2.3l3.04 7.34 3.18-7.34h2.24l-6.4 14.32h-2.24zm19.082-4.16c-1.2 0-2.147-.3733-2.84-1.12-.68-.7467-1.02-1.86-1.02-3.34v-5.7h2.12v5.48c0 1.92.787 2.88 2.36 2.88.787 0 1.433-.28 1.94-.84.507-.56.76-1.36.76-2.4v-5.12h2.12V52h-1.88l-.16-1.74c-.307.6133-.76 1.1-1.36 1.46-.587.3467-1.267.52-2.04.52zm8.137 4.16V42.08h1.9l.22 1.54c.32-.4667.76-.88 1.32-1.24s1.28-.54 2.16-.54c.96 0 1.806.2267 2.54.68.733.4533 1.306 1.0733 1.72 1.86.426.7867.64 1.68.64 2.68 0 1-.214 1.8933-.64 2.68-.414.7733-.987 1.3867-1.72 1.84-.734.44-1.587.66-2.56.66-.774 0-1.46-.1533-2.06-.46-.587-.3067-1.054-.74-1.4-1.3v5.92h-2.12zm5.22-6c.906 0 1.653-.3067 2.24-.92.586-.6267.88-1.44.88-2.44 0-.6533-.134-1.2333-.4-1.74-.267-.5067-.634-.9-1.1-1.18-.467-.2933-1.007-.44-1.62-.44-.907 0-1.654.3133-2.24.94-.574.6267-.86 1.4333-.86 2.42 0 1 .286 1.8133.86 2.44.586.6133 1.333.92 2.24.92zm11.533 1.84c-1.254 0-2.287-.3067-3.1-.92-.814-.6133-1.28-1.4267-1.4-2.44h2.14c.106.4533.36.8467.76 1.18.4.32.926.48 1.58.48.64 0 1.106-.1333 1.4-.4.293-.2667.44-.5733.44-.92 0-.5067-.207-.8467-.62-1.02-.4-.1867-.96-.3533-1.68-.5-.56-.12-1.12-.28-1.68-.48-.547-.2-1.007-.48-1.38-.84-.36-.3733-.54-.8733-.54-1.5 0-.8667.333-1.5867 1-2.16.666-.5867 1.6-.88 2.8-.88 1.106 0 2 .2667 2.68.8.693.5333 1.1 1.2867 1.22 2.26h-2.04c-.067-.4267-.267-.76-.6-1-.32-.24-.754-.36-1.3-.36-.534 0-.947.1133-1.24.34-.294.2133-.44.4933-.44.84 0 .3467.2.62.6.82.413.2.953.38 1.62.54.666.1467 1.28.32 1.84.52.573.1867 1.033.4667 1.38.84.346.3733.52.92.52 1.64.013.9067-.34 1.66-1.06 2.26-.707.6-1.674.9-2.9.9zm6.274-.24V37.6h2.12v8.58l3.8-4.1h2.54l-4.22 4.5 4.84 5.42h-2.68l-4.28-5.08V52h-2.12zm11.923-11.8c-.4 0-.734-.12-1-.36-.254-.2533-.38-.5667-.38-.94 0-.3733.126-.68.38-.92.266-.2533.6-.38 1-.38s.726.1267.98.38c.266.24.4.5467.4.92 0 .3733-.134.6867-.4.94-.254.24-.58.36-.98.36zm-1.06 11.8v-9.92h2.12V52h-2.12zm4.918 0V37.6h2.12V52h-2.12zm4.805 0V37.6h2.12V52h-2.12zm11.004 4.4l2.38-5.22h-.58l-3.92-9.1h2.3l3.04 7.34 3.18-7.34h2.24l-6.4 14.32h-2.24zm14.124-4.16c-.946 0-1.8-.2133-2.56-.64-.746-.44-1.34-1.0467-1.78-1.82-.44-.7867-.66-1.7-.66-2.74 0-1.04.22-1.9467.66-2.72.454-.7867 1.06-1.3933 1.82-1.82.76-.44 1.607-.66 2.54-.66.947 0 1.794.22 2.54.66.76.4267 1.36 1.0333 1.8 1.82.454.7733.68 1.68.68 2.72 0 1.04-.226 1.9533-.68 2.74-.44.7733-1.04 1.38-1.8 1.82-.76.4267-1.613.64-2.56.64zm0-1.82c.507 0 .974-.1267 1.4-.38.44-.2533.794-.6267 1.06-1.12.267-.5067.4-1.1333.4-1.88 0-.7467-.133-1.3667-.4-1.86-.253-.5067-.6-.8867-1.04-1.14-.426-.2533-.893-.38-1.4-.38-.506 0-.98.1267-1.42.38-.426.2533-.773.6333-1.04 1.14-.266.4933-.4 1.1133-.4 1.86 0 .7467.134 1.3733.4 1.88.267.4933.614.8667 1.04 1.12.427.2533.894.38 1.4.38zm10.993 1.82c-1.2 0-2.147-.3733-2.84-1.12-.68-.7467-1.02-1.86-1.02-3.34v-5.7h2.12v5.48c0 1.92.787 2.88 2.36 2.88.787 0 1.433-.28 1.94-.84.507-.56.76-1.36.76-2.4v-5.12h2.12V52h-1.88l-.16-1.74c-.307.6133-.76 1.1-1.36 1.46-.587.3467-1.267.52-2.04.52zm16.536 0c-.84 0-1.533-.14-2.08-.42-.547-.28-.953-.6467-1.22-1.1-.267-.4667-.4-.9733-.4-1.52 0-.96.373-1.72 1.12-2.28.747-.56 1.813-.84 3.2-.84h2.6v-.18c0-.7733-.213-1.3533-.64-1.74-.413-.3867-.953-.58-1.62-.58-.587 0-1.1.1467-1.54.44-.427.28-.687.7-.78 1.26h-2.12c.067-.72.307-1.3333.72-1.84.427-.52.96-.9133 1.6-1.18.653-.28 1.367-.42 2.14-.42 1.387 0 2.46.3667 3.22 1.1.76.72 1.14 1.7067 1.14 2.96V52h-1.84l-.18-1.7c-.28.5467-.687 1.0067-1.22 1.38-.533.3733-1.233.56-2.1.56zm.42-1.72c.573 0 1.053-.1333 1.44-.4.4-.28.707-.6467.92-1.1.227-.4533.367-.9533.42-1.5h-2.36c-.84 0-1.44.1467-1.8.44-.347.2933-.52.66-.52 1.1 0 .4533.167.8133.5 1.08.347.2533.813.38 1.4.38zm7.392 1.48v-9.92h1.88l.16 1.74c.306-.6133.753-1.0933 1.34-1.44.6-.36 1.286-.54 2.06-.54 1.2 0 2.14.3733 2.82 1.12.693.7467 1.04 1.86 1.04 3.34V52h-2.1v-5.48c0-1.92-.787-2.88-2.36-2.88-.787 0-1.44.28-1.96.84-.507.56-.76 1.36-.76 2.4V52h-2.12zm16.317.24c-.96 0-1.807-.2267-2.54-.68-.734-.4533-1.307-1.0733-1.72-1.86-.414-.7867-.62-1.68-.62-2.68 0-1 .206-1.8867.62-2.66.413-.7867.986-1.4 1.72-1.84.746-.4533 1.6-.68 2.56-.68.786 0 1.473.1533 2.06.46.6.3067 1.066.74 1.4 1.3v-6h2.12V52h-1.9l-.22-1.54c-.32.4667-.76.88-1.32 1.24s-1.28.54-2.16.54zm.38-1.84c.906 0 1.646-.3133 2.22-.94.586-.6267.88-1.4333.88-2.42 0-1-.294-1.8067-.88-2.42-.574-.6267-1.314-.94-2.22-.94-.907 0-1.654.3133-2.24.94-.587.6133-.88 1.42-.88 2.42 0 .6533.133 1.2333.4 1.74.266.5067.633.9067 1.1 1.2.48.28 1.02.42 1.62.42zm14.092 6l2.38-5.22h-.58l-3.92-9.1h2.3l3.04 7.34 3.18-7.34h2.24l-6.4 14.32h-2.24zm14.124-4.16c-.946 0-1.8-.2133-2.56-.64-.746-.44-1.34-1.0467-1.78-1.82-.44-.7867-.66-1.7-.66-2.74 0-1.04.22-1.9467.66-2.72.454-.7867 1.06-1.3933 1.82-1.82.76-.44 1.607-.66 2.54-.66.947 0 1.794.22 2.54.66.76.4267 1.36 1.0333 1.8 1.82.454.7733.68 1.68.68 2.72 0 1.04-.226 1.9533-.68 2.74-.44.7733-1.04 1.38-1.8 1.82-.76.4267-1.613.64-2.56.64zm0-1.82c.507 0 .974-.1267 1.4-.38.44-.2533.794-.6267 1.06-1.12.267-.5067.4-1.1333.4-1.88 0-.7467-.133-1.3667-.4-1.86-.253-.5067-.6-.8867-1.04-1.14-.426-.2533-.893-.38-1.4-.38-.506 0-.98.1267-1.42.38-.426.2533-.773.6333-1.04 1.14-.266.4933-.4 1.1133-.4 1.86 0 .7467.134 1.3733.4 1.88.267.4933.614.8667 1.04 1.12.427.2533.894.38 1.4.38zm10.993 1.82c-1.2 0-2.147-.3733-2.84-1.12-.68-.7467-1.02-1.86-1.02-3.34v-5.7h2.12v5.48c0 1.92.787 2.88 2.36 2.88.787 0 1.433-.28 1.94-.84.507-.56.76-1.36.76-2.4v-5.12h2.12V52h-1.88l-.16-1.74c-.307.6133-.76 1.1-1.36 1.46-.587.3467-1.267.52-2.04.52zm8.137-.24v-9.92h1.9l.18 1.88c.346-.6533.826-1.1667 1.44-1.54.626-.3867 1.38-.58 2.26-.58v2.22h-.58c-.587 0-1.114.1-1.58.3-.454.1867-.82.5133-1.1.98-.267.4533-.4 1.0867-.4 1.9V52h-2.12zm16.797 0c-.974 0-1.747-.2333-2.32-.7-.574-.48-.86-1.3267-.86-2.54v-4.9h-1.7v-1.78h1.7l.26-2.52h1.86v2.52h2.8v1.78h-2.8v4.9c0 .5467.113.9267.34 1.14.24.2.646.3 1.22.3h1.14V52h-1.64zm8.312.24c-.974 0-1.84-.2133-2.6-.64-.747-.44-1.334-1.0467-1.76-1.82-.427-.7733-.64-1.6733-.64-2.7 0-1.04.206-1.9533.62-2.74.426-.7867 1.013-1.4 1.76-1.84.76-.44 1.64-.66 2.64-.66.973 0 1.82.22 2.54.66.72.4267 1.28 1 1.68 1.72.4.72.6 1.5133.6 2.38 0 .1333-.007.28-.02.44 0 .1467-.007.3133-.02.5h-7.72c.066.96.38 1.6933.94 2.2.573.4933 1.233.74 1.98.74.6 0 1.1-.1333 1.5-.4.413-.28.72-.6533.92-1.12h2.12c-.267.9333-.8 1.7133-1.6 2.34-.787.6267-1.767.94-2.94.94zm0-8.66c-.707 0-1.334.2133-1.88.64-.547.4133-.88 1.04-1 1.88h5.6c-.04-.7733-.314-1.3867-.82-1.84-.507-.4533-1.14-.68-1.9-.68zm10.399 8.66c-.84 0-1.533-.14-2.08-.42-.546-.28-.953-.6467-1.22-1.1-.266-.4667-.4-.9733-.4-1.52 0-.96.374-1.72 1.12-2.28.747-.56 1.814-.84 3.2-.84h2.6v-.18c0-.7733-.213-1.3533-.64-1.74-.413-.3867-.953-.58-1.62-.58-.586 0-1.1.1467-1.54.44-.426.28-.686.7-.78 1.26h-2.12c.067-.72.307-1.3333.72-1.84.427-.52.96-.9133 1.6-1.18.654-.28 1.367-.42 2.14-.42 1.387 0 2.46.3667 3.22 1.1.76.72 1.14 1.7067 1.14 2.96V52h-1.84l-.18-1.7c-.28.5467-.686 1.0067-1.22 1.38-.533.3733-1.233.56-2.1.56zm.42-1.72c.574 0 1.054-.1333 1.44-.4.4-.28.707-.6467.92-1.1.227-.4533.367-.9533.42-1.5h-2.36c-.84 0-1.44.1467-1.8.44-.346.2933-.52.66-.52 1.1 0 .4533.167.8133.5 1.08.347.2533.814.38 1.4.38zm7.392 1.48v-9.92h1.88l.18 1.4c.32-.5067.74-.9067 1.26-1.2.533-.2933 1.147-.44 1.84-.44 1.573 0 2.667.62 3.28 1.86.36-.5733.84-1.0267 1.44-1.36.613-.3333 1.273-.5 1.98-.5 1.24 0 2.213.3733 2.92 1.12.707.7467 1.06 1.86 1.06 3.34V52h-2.12v-5.48c0-1.92-.733-2.88-2.2-2.88-.747 0-1.36.28-1.84.84-.467.56-.7 1.36-.7 2.4V52h-2.12v-5.48c0-1.92-.74-2.88-2.22-2.88-.733 0-1.34.28-1.82.84-.467.56-.7 1.36-.7 2.4V52h-2.12zm24.559-11.8c-.4 0-.733-.12-1-.36-.253-.2533-.38-.5667-.38-.94 0-.3733.127-.68.38-.92.267-.2533.6-.38 1-.38s.727.1267.98.38c.267.24.4.5467.4.92 0 .3733-.133.6867-.4.94-.253.24-.58.36-.98.36zm-1.06 11.8v-9.92h2.12V52h-2.12zm4.919 0v-9.92h1.88l.16 1.74c.307-.6133.753-1.0933 1.34-1.44.6-.36 1.287-.54 2.06-.54 1.2 0 2.14.3733 2.82 1.12.693.7467 1.04 1.86 1.04 3.34V52h-2.1v-5.48c0-1.92-.787-2.88-2.36-2.88-.787 0-1.44.28-1.96.84-.507.56-.76 1.36-.76 2.4V52h-2.12zm21.536.24c-1.027 0-1.927-.18-2.7-.54-.773-.36-1.38-.8733-1.82-1.54-.427-.6667-.647-1.46-.66-2.38h2.24c.013.7467.273 1.38.78 1.9s1.22.78 2.14.78c.813 0 1.447-.1933 1.9-.58.467-.4.7-.9067.7-1.52 0-.4933-.113-.8933-.34-1.2-.213-.3067-.513-.56-.9-.76-.373-.2-.807-.38-1.3-.54-.493-.16-1.013-.3333-1.56-.52-1.08-.36-1.893-.8267-2.44-1.4-.533-.5733-.8-1.3267-.8-2.26-.013-.7867.167-1.4733.54-2.06.387-.5867.92-1.04 1.6-1.36.693-.3333 1.5-.5 2.42-.5.907 0 1.7.1667 2.38.5.693.3333 1.233.8 1.62 1.4.387.5867.587 1.2733.6 2.06h-2.24c0-.36-.093-.7-.28-1.02-.187-.3333-.46-.6067-.82-.82-.36-.2133-.8-.32-1.32-.32-.667-.0133-1.22.1533-1.66.5-.427.3467-.64.8267-.64 1.44 0 .5467.16.9667.48 1.26.32.2933.76.54 1.32.74.56.1867 1.2.4067 1.92.66.693.2267 1.313.5 1.86.82.547.32.98.74 1.3 1.26.333.52.5 1.18.5 1.98 0 .7067-.18 1.3667-.54 1.98-.36.6-.9 1.0933-1.62 1.48-.72.3733-1.607.56-2.66.56zm7.138-.24V38h8.9v1.72h-6.78v4.36h6.18v1.68h-6.18v4.52h6.78V52h-8.9zm17.886.24c-1.387 0-2.6-.3067-3.64-.92-1.04-.6133-1.854-1.46-2.44-2.54-.587-1.0933-.88-2.3533-.88-3.78 0-1.4267.293-2.68.88-3.76.586-1.0933 1.4-1.9467 2.44-2.56s2.253-.92 3.64-.92c1.386 0 2.6.3067 3.64.92 1.04.6133 1.846 1.4667 2.42 2.56.586 1.08.88 2.3333.88 3.76 0 1.4267-.294 2.6867-.88 3.78-.574 1.08-1.38 1.9267-2.42 2.54s-2.254.92-3.64.92zm0-1.9c.96 0 1.793-.2133 2.5-.64.72-.4267 1.28-1.04 1.68-1.84.4-.8.6-1.7533.6-2.86 0-1.1067-.2-2.06-.6-2.86-.4-.8-.96-1.4133-1.68-1.84-.707-.4267-1.54-.64-2.5-.64s-1.8.2133-2.52.64-1.28 1.04-1.68 1.84c-.387.8-.58 1.7533-.58 2.86 0 1.1067.193 2.06.58 2.86.4.8.96 1.4133 1.68 1.84.72.4267 1.56.64 2.52.64zm9.456 1.78c-.4 0-.733-.1267-1-.38-.253-.2667-.38-.58-.38-.94 0-.3733.127-.6867.38-.94.267-.2667.6-.4 1-.4s.727.1333.98.4c.253.2533.38.5667.38.94 0 .36-.127.6733-.38.94-.253.2533-.58.38-.98.38zm13.235.12c-1.027 0-1.927-.18-2.7-.54-.773-.36-1.38-.8733-1.82-1.54-.427-.6667-.647-1.46-.66-2.38h2.24c.013.7467.273 1.38.78 1.9s1.22.78 2.14.78c.813 0 1.447-.1933 1.9-.58.467-.4.7-.9067.7-1.52 0-.4933-.113-.8933-.34-1.2-.213-.3067-.513-.56-.9-.76-.373-.2-.807-.38-1.3-.54-.493-.16-1.013-.3333-1.56-.52-1.08-.36-1.893-.8267-2.44-1.4-.533-.5733-.8-1.3267-.8-2.26-.013-.7867.167-1.4733.54-2.06.387-.5867.92-1.04 1.6-1.36.693-.3333 1.5-.5 2.42-.5.907 0 1.7.1667 2.38.5.693.3333 1.233.8 1.62 1.4.387.5867.587 1.2733.6 2.06h-2.24c0-.36-.093-.7-.28-1.02-.187-.3333-.46-.6067-.82-.82-.36-.2133-.8-.32-1.32-.32-.667-.0133-1.22.1533-1.66.5-.427.3467-.64.8267-.64 1.44 0 .5467.16.9667.48 1.26.32.2933.76.54 1.32.74.56.1867 1.2.4067 1.92.66.693.2267 1.313.5 1.86.82.547.32.98.74 1.3 1.26.333.52.5 1.18.5 1.98 0 .7067-.18 1.3667-.54 1.98-.36.6-.9 1.0933-1.62 1.48-.72.3733-1.607.56-2.66.56zm7.138-.24V38h8.9v1.72h-6.78v4.36h6.18v1.68h-6.18v4.52h6.78V52h-8.9zm17.885.24c-1.386 0-2.6-.3067-3.64-.92-1.04-.6133-1.853-1.46-2.44-2.54-.586-1.0933-.88-2.3533-.88-3.78 0-1.4267.294-2.68.88-3.76.587-1.0933 1.4-1.9467 2.44-2.56s2.254-.92 3.64-.92c1.387 0 2.6.3067 3.64.92 1.04.6133 1.847 1.4667 2.42 2.56.587 1.08.88 2.3333.88 3.76 0 1.4267-.293 2.6867-.88 3.78-.573 1.08-1.38 1.9267-2.42 2.54s-2.253.92-3.64.92zm0-1.9c.96 0 1.794-.2133 2.5-.64.72-.4267 1.28-1.04 1.68-1.84.4-.8.6-1.7533.6-2.86 0-1.1067-.2-2.06-.6-2.86-.4-.8-.96-1.4133-1.68-1.84-.706-.4267-1.54-.64-2.5-.64s-1.8.2133-2.52.64-1.28 1.04-1.68 1.84c-.386.8-.58 1.7533-.58 2.86 0 1.1067.194 2.06.58 2.86.4.8.96 1.4133 1.68 1.84.72.4267 1.56.64 2.52.64zM484.53 40.2c-.4 0-.733-.12-1-.36-.253-.2533-.38-.5667-.38-.94 0-.3733.127-.68.38-.92.267-.2533.6-.38 1-.38s.727.1267.98.38c.267.24.4.5467.4.92 0 .3733-.133.6867-.4.94-.253.24-.58.36-.98.36zM483.47 52v-9.92h2.12V52h-2.12zm8.879.24c-1.254 0-2.287-.3067-3.1-.92-.814-.6133-1.28-1.4267-1.4-2.44h2.14c.106.4533.36.8467.76 1.18.4.32.926.48 1.58.48.64 0 1.106-.1333 1.4-.4.293-.2667.44-.5733.44-.92 0-.5067-.207-.8467-.62-1.02-.4-.1867-.96-.3533-1.68-.5-.56-.12-1.12-.28-1.68-.48-.547-.2-1.007-.48-1.38-.84-.36-.3733-.54-.8733-.54-1.5 0-.8667.333-1.5867 1-2.16.666-.5867 1.6-.88 2.8-.88 1.106 0 2 .2667 2.68.8.693.5333 1.1 1.2867 1.22 2.26h-2.04c-.067-.4267-.267-.76-.6-1-.32-.24-.754-.36-1.3-.36-.534 0-.947.1133-1.24.34-.294.2133-.44.4933-.44.84 0 .3467.2.62.6.82.413.2.953.38 1.62.54.666.1467 1.28.32 1.84.52.573.1867 1.033.4667 1.38.84.346.3733.52.92.52 1.64.013.9067-.34 1.66-1.06 2.26-.707.6-1.674.9-2.9.9zm6.274-.24v-9.92h1.88l.16 1.74c.307-.6133.754-1.0933 1.34-1.44.6-.36 1.287-.54 2.06-.54 1.2 0 2.14.3733 2.82 1.12.694.7467 1.04 1.86 1.04 3.34V52h-2.1v-5.48c0-1.92-.786-2.88-2.36-2.88-.786 0-1.44.28-1.96.84-.506.56-.76 1.36-.76 2.4V52h-2.12zm11.197-9.3l1.12-4.7h2.3l-1.94 4.7h-1.48zm9.545 9.3c-.973 0-1.746-.2333-2.32-.7-.573-.48-.86-1.3267-.86-2.54v-4.9h-1.7v-1.78h1.7l.26-2.52h1.86v2.52h2.8v1.78h-2.8v4.9c0 .5467.114.9267.34 1.14.24.2.647.3 1.22.3h1.14V52h-1.64zM78.9873 82.24c-.9734 0-1.8467-.22-2.62-.66-.76-.44-1.36-1.0467-1.8-1.82-.4267-.7867-.64-1.6933-.64-2.72 0-1.0267.2133-1.9267.64-2.7.44-.7867 1.04-1.4 1.8-1.84.7733-.44 1.6466-.66 2.62-.66 1.2266 0 2.2533.32 3.08.96.84.64 1.38 1.5067 1.62 2.6h-2.22c-.1334-.5467-.4267-.9733-.88-1.28-.4534-.3067-.9867-.46-1.6-.46-.52 0-1 .1333-1.44.4-.44.2533-.7934.6333-1.06 1.14-.2667.4933-.4 1.1067-.4 1.84 0 .7333.1333 1.3533.4 1.86.2666.4933.62.8733 1.06 1.14.44.2667.92.4 1.44.4.6133 0 1.1466-.1533 1.6-.46.4533-.3067.7466-.74.88-1.3h2.22c-.2267 1.0667-.76 1.9267-1.6 2.58-.84.6533-1.8734.98-3.1.98zm11.6392 0c-.9467 0-1.8-.2133-2.56-.64-.7467-.44-1.34-1.0467-1.78-1.82-.44-.7867-.66-1.7-.66-2.74 0-1.04.22-1.9467.66-2.72.4533-.7867 1.06-1.3933 1.82-1.82.76-.44 1.6067-.66 2.54-.66.9467 0 1.7933.22 2.54.66.76.4267 1.36 1.0333 1.8 1.82.4533.7733.68 1.68.68 2.72 0 1.04-.2267 1.9533-.68 2.74-.44.7733-1.04 1.38-1.8 1.82-.76.4267-1.6133.64-2.56.64zm0-1.82c.5067 0 .9733-.1267 1.4-.38.44-.2533.7933-.6267 1.06-1.12.2667-.5067.4-1.1333.4-1.88 0-.7467-.1333-1.3667-.4-1.86-.2533-.5067-.6-.8867-1.04-1.14-.4267-.2533-.8933-.38-1.4-.38-.5067 0-.98.1267-1.42.38-.4267.2533-.7733.6333-1.04 1.14-.2667.4933-.4 1.1133-.4 1.86 0 .7467.1333 1.3733.4 1.88.2667.4933.6133.8667 1.04 1.12.4267.2533.8933.38 1.4.38zM97.9591 82v-9.92h1.88l.1799 1.4c.32-.5067.74-.9067 1.26-1.2.533-.2933 1.147-.44 1.84-.44 1.573 0 2.667.62 3.28 1.86.36-.5733.84-1.0267 1.44-1.36.613-.3333 1.273-.5 1.98-.5 1.24 0 2.213.3733 2.92 1.12.707.7467 1.06 1.86 1.06 3.34V82h-2.12v-5.48c0-1.92-.733-2.88-2.2-2.88-.747 0-1.36.28-1.84.84-.467.56-.7 1.36-.7 2.4V82h-2.12v-5.48c0-1.92-.74-2.88-2.22-2.88-.733 0-1.34.28-1.82.84-.467.56-.7 1.36-.7 2.4V82h-2.1199zm18.3199 4.4V72.08h1.9l.22 1.54c.32-.4667.76-.88 1.32-1.24s1.28-.54 2.16-.54c.96 0 1.807.2267 2.54.68.734.4533 1.307 1.0733 1.72 1.86.427.7867.64 1.68.64 2.68 0 1-.213 1.8933-.64 2.68-.413.7733-.986 1.3867-1.72 1.84-.733.44-1.586.66-2.56.66-.773 0-1.46-.1533-2.06-.46-.586-.3067-1.053-.74-1.4-1.3v5.92h-2.12zm5.22-6c.907 0 1.654-.3067 2.24-.92.587-.6267.88-1.44.88-2.44 0-.6533-.133-1.2333-.4-1.74-.266-.5067-.633-.9-1.1-1.18-.466-.2933-1.006-.44-1.62-.44-.906 0-1.653.3133-2.24.94-.573.6267-.86 1.4333-.86 2.42 0 1 .287 1.8133.86 2.44.587.6133 1.334.92 2.24.92zm7.573 1.6V67.6h2.12V82h-2.12zm6.005-11.8c-.4 0-.733-.12-1-.36-.253-.2533-.38-.5667-.38-.94 0-.3733.127-.68.38-.92.267-.2533.6-.38 1-.38s.727.1267.98.38c.267.24.4.5467.4.92 0 .3733-.133.6867-.4.94-.253.24-.58.36-.98.36zm-1.06 11.8v-9.92h2.12V82h-2.12zm9.619.24c-.974 0-1.847-.22-2.62-.66-.76-.44-1.36-1.0467-1.8-1.82-.427-.7867-.64-1.6933-.64-2.72 0-1.0267.213-1.9267.64-2.7.44-.7867 1.04-1.4 1.8-1.84.773-.44 1.646-.66 2.62-.66 1.226 0 2.253.32 3.08.96.84.64 1.38 1.5067 1.62 2.6h-2.22c-.134-.5467-.427-.9733-.88-1.28-.454-.3067-.987-.46-1.6-.46-.52 0-1 .1333-1.44.4-.44.2533-.794.6333-1.06 1.14-.267.4933-.4 1.1067-.4 1.84 0 .7333.133 1.3533.4 1.86.266.4933.62.8733 1.06 1.14.44.2667.92.4 1.44.4.613 0 1.146-.1533 1.6-.46.453-.3067.746-.74.88-1.3h2.22c-.227 1.0667-.76 1.9267-1.6 2.58-.84.6533-1.874.98-3.1.98zm10.359 0c-.84 0-1.533-.14-2.08-.42-.547-.28-.953-.6467-1.22-1.1-.267-.4667-.4-.9733-.4-1.52 0-.96.373-1.72 1.12-2.28.747-.56 1.813-.84 3.2-.84h2.6v-.18c0-.7733-.213-1.3533-.64-1.74-.413-.3867-.953-.58-1.62-.58-.587 0-1.1.1467-1.54.44-.427.28-.687.7-.78 1.26h-2.12c.067-.72.307-1.3333.72-1.84.427-.52.96-.9133 1.6-1.18.653-.28 1.367-.42 2.14-.42 1.387 0 2.46.3667 3.22 1.1.76.72 1.14 1.7067 1.14 2.96V82h-1.84l-.18-1.7c-.28.5467-.687 1.0067-1.22 1.38-.533.3733-1.233.56-2.1.56zm.42-1.72c.573 0 1.053-.1333 1.44-.4.4-.28.707-.6467.92-1.1.227-.4533.367-.9533.42-1.5h-2.36c-.84 0-1.44.1467-1.8.44-.347.2933-.52.66-.52 1.1 0 .4533.167.8133.5 1.08.347.2533.813.38 1.4.38zM165.771 82c-.973 0-1.746-.2333-2.32-.7-.573-.48-.86-1.3267-.86-2.54v-4.9h-1.7v-1.78h1.7l.26-2.52h1.86v2.52h2.8v1.78h-2.8v4.9c0 .5467.114.9267.34 1.14.24.2.647.3 1.22.3h1.14V82h-1.64zm8.313.24c-.974 0-1.84-.2133-2.6-.64-.747-.44-1.334-1.0467-1.76-1.82-.427-.7733-.64-1.6733-.64-2.7 0-1.04.206-1.9533.62-2.74.426-.7867 1.013-1.4 1.76-1.84.76-.44 1.64-.66 2.64-.66.973 0 1.82.22 2.54.66.72.4267 1.28 1 1.68 1.72.4.72.6 1.5133.6 2.38 0 .1333-.007.28-.02.44 0 .1467-.007.3133-.02.5h-7.72c.066.96.38 1.6933.94 2.2.573.4933 1.233.74 1.98.74.6 0 1.1-.1333 1.5-.4.413-.28.72-.6533.92-1.12h2.12c-.267.9333-.8 1.7133-1.6 2.34-.787.6267-1.767.94-2.94.94zm0-8.66c-.707 0-1.334.2133-1.88.64-.547.4133-.88 1.04-1 1.88h5.6c-.04-.7733-.314-1.3867-.82-1.84-.507-.4533-1.14-.68-1.9-.68zm11.559 8.66c-.96 0-1.806-.2267-2.54-.68-.733-.4533-1.306-1.0733-1.72-1.86-.413-.7867-.62-1.68-.62-2.68 0-1 .207-1.8867.62-2.66.414-.7867.987-1.4 1.72-1.84.747-.4533 1.6-.68 2.56-.68.787 0 1.474.1533 2.06.46.6.3067 1.067.74 1.4 1.3v-6h2.12V82h-1.9l-.22-1.54c-.32.4667-.76.88-1.32 1.24s-1.28.54-2.16.54zm.38-1.84c.907 0 1.647-.3133 2.22-.94.587-.6267.88-1.4333.88-2.42 0-1-.293-1.8067-.88-2.42-.573-.6267-1.313-.94-2.22-.94-.906 0-1.653.3133-2.24.94-.586.6133-.88 1.42-.88 2.42 0 .6533.134 1.2333.4 1.74.267.5067.634.9067 1.1 1.2.48.28 1.02.42 1.62.42zm14.132-10.2c-.4 0-.733-.12-1-.36-.253-.2533-.38-.5667-.38-.94 0-.3733.127-.68.38-.92.267-.2533.6-.38 1-.38s.727.1267.98.38c.267.24.4.5467.4.92 0 .3733-.133.6867-.4.94-.253.24-.58.36-.98.36zm-1.06 11.8v-9.92h2.12V82h-2.12zm5.419 0v-8.14h-1.42v-1.78h1.42v-1.44c0-1.08.266-1.8533.8-2.32.546-.48 1.313-.72 2.3-.72h1.04v1.8h-.72c-.467 0-.8.1-1 .3-.2.1867-.3.5067-.3.96v1.42h2.28v1.78h-2.28V82h-2.12zm12.613 4.4l2.38-5.22h-.58l-3.92-9.1h2.3l3.04 7.34 3.18-7.34h2.24l-6.4 14.32h-2.24zm14.124-4.16c-.946 0-1.8-.2133-2.56-.64-.746-.44-1.34-1.0467-1.78-1.82-.44-.7867-.66-1.7-.66-2.74 0-1.04.22-1.9467.66-2.72.454-.7867 1.06-1.3933 1.82-1.82.76-.44 1.607-.66 2.54-.66.947 0 1.794.22 2.54.66.76.4267 1.36 1.0333 1.8 1.82.454.7733.68 1.68.68 2.72 0 1.04-.226 1.9533-.68 2.74-.44.7733-1.04 1.38-1.8 1.82-.76.4267-1.613.64-2.56.64zm0-1.82c.507 0 .974-.1267 1.4-.38.44-.2533.794-.6267 1.06-1.12.267-.5067.4-1.1333.4-1.88 0-.7467-.133-1.3667-.4-1.86-.253-.5067-.6-.8867-1.04-1.14-.426-.2533-.893-.38-1.4-.38-.506 0-.98.1267-1.42.38-.426.2533-.773.6333-1.04 1.14-.266.4933-.4 1.1133-.4 1.86 0 .7467.134 1.3733.4 1.88.267.4933.614.8667 1.04 1.12.427.2533.894.38 1.4.38zm10.993 1.82c-1.2 0-2.147-.3733-2.84-1.12-.68-.7467-1.02-1.86-1.02-3.34v-5.7h2.12v5.48c0 1.92.787 2.88 2.36 2.88.787 0 1.433-.28 1.94-.84.507-.56.76-1.36.76-2.4v-5.12h2.12V82h-1.88l-.16-1.74c-.307.6133-.76 1.1-1.36 1.46-.587.3467-1.267.52-2.04.52zM255.42 82V67.6h2.12v6.08c.333-.5733.793-1.02 1.38-1.34.6-.3333 1.26-.5 1.98-.5 1.187 0 2.12.3733 2.8 1.12.68.7467 1.02 1.86 1.02 3.34V82h-2.1v-5.48c0-1.92-.767-2.88-2.3-2.88-.8 0-1.467.28-2 .84-.52.56-.78 1.36-.78 2.4V82h-2.12zm15.157.24c-.84 0-1.533-.14-2.08-.42-.547-.28-.953-.6467-1.22-1.1-.267-.4667-.4-.9733-.4-1.52 0-.96.373-1.72 1.12-2.28.747-.56 1.813-.84 3.2-.84h2.6v-.18c0-.7733-.213-1.3533-.64-1.74-.413-.3867-.953-.58-1.62-.58-.587 0-1.1.1467-1.54.44-.427.28-.687.7-.78 1.26h-2.12c.067-.72.307-1.3333.72-1.84.427-.52.96-.9133 1.6-1.18.653-.28 1.367-.42 2.14-.42 1.387 0 2.46.3667 3.22 1.1.76.72 1.14 1.7067 1.14 2.96V82h-1.84l-.18-1.7c-.28.5467-.687 1.0067-1.22 1.38-.533.3733-1.233.56-2.1.56zm.42-1.72c.573 0 1.053-.1333 1.44-.4.4-.28.707-.6467.92-1.1.227-.4533.367-.9533.42-1.5h-2.36c-.84 0-1.44.1467-1.8.44-.347.2933-.52.66-.52 1.1 0 .4533.167.8133.5 1.08.347.2533.813.38 1.4.38zm9.84 1.48l-3.72-9.92h2.22l2.76 7.9 2.76-7.9h2.2l-3.7 9.92h-2.52zm12.094.24c-.973 0-1.84-.2133-2.6-.64-.746-.44-1.333-1.0467-1.76-1.82-.426-.7733-.64-1.6733-.64-2.7 0-1.04.207-1.9533.62-2.74.427-.7867 1.014-1.4 1.76-1.84.76-.44 1.64-.66 2.64-.66.974 0 1.82.22 2.54.66.72.4267 1.28 1 1.68 1.72.4.72.6 1.5133.6 2.38 0 .1333-.006.28-.02.44 0 .1467-.006.3133-.02.5h-7.72c.067.96.38 1.6933.94 2.2.574.4933 1.234.74 1.98.74.6 0 1.1-.1333 1.5-.4.414-.28.72-.6533.92-1.12h2.12c-.266.9333-.8 1.7133-1.6 2.34-.786.6267-1.766.94-2.94.94zm0-8.66c-.706 0-1.333.2133-1.88.64-.546.4133-.88 1.04-1 1.88h5.6c-.04-.7733-.313-1.3867-.82-1.84-.506-.4533-1.14-.68-1.9-.68zM309.17 82c-.973 0-1.747-.2333-2.32-.7-.573-.48-.86-1.3267-.86-2.54v-4.9h-1.7v-1.78h1.7l.26-2.52h1.86v2.52h2.8v1.78h-2.8v4.9c0 .5467.113.9267.34 1.14.24.2.647.3 1.22.3h1.14V82h-1.64zm3.926 0V67.6h2.12v6.08c.333-.5733.793-1.02 1.38-1.34.6-.3333 1.26-.5 1.98-.5 1.187 0 2.12.3733 2.8 1.12.68.7467 1.02 1.86 1.02 3.34V82h-2.1v-5.48c0-1.92-.767-2.88-2.3-2.88-.8 0-1.467.28-2 .84-.52.56-.78 1.36-.78 2.4V82h-2.12zm16.437.24c-.974 0-1.84-.2133-2.6-.64-.747-.44-1.334-1.0467-1.76-1.82-.427-.7733-.64-1.6733-.64-2.7 0-1.04.206-1.9533.62-2.74.426-.7867 1.013-1.4 1.76-1.84.76-.44 1.64-.66 2.64-.66.973 0 1.82.22 2.54.66.72.4267 1.28 1 1.68 1.72.4.72.6 1.5133.6 2.38 0 .1333-.007.28-.02.44 0 .1467-.007.3133-.02.5h-7.72c.066.96.38 1.6933.94 2.2.573.4933 1.233.74 1.98.74.6 0 1.1-.1333 1.5-.4.413-.28.72-.6533.92-1.12h2.12c-.267.9333-.8 1.7133-1.6 2.34-.787.6267-1.767.94-2.94.94zm0-8.66c-.707 0-1.334.2133-1.88.64-.547.4133-.88 1.04-1 1.88h5.6c-.04-.7733-.314-1.3867-.82-1.84-.507-.4533-1.14-.68-1.9-.68zM341.611 82v-9.92h1.9l.18 1.88c.347-.6533.827-1.1667 1.44-1.54.627-.3867 1.38-.58 2.26-.58v2.22h-.58c-.586 0-1.113.1-1.58.3-.453.1867-.82.5133-1.1.98-.266.4533-.4 1.0867-.4 1.9V82h-2.12zm8.798-11.8c-.4 0-.733-.12-1-.36-.253-.2533-.38-.5667-.38-.94 0-.3733.127-.68.38-.92.267-.2533.6-.38 1-.38s.727.1267.98.38c.267.24.4.5467.4.92 0 .3733-.133.6867-.4.94-.253.24-.58.36-.98.36zm-1.06 11.8v-9.92h2.12V82h-2.12zm8.979-3.04c-.52 0-1-.06-1.44-.18l-.86.84c.146.0933.326.1733.54.24.213.0667.513.1267.9.18.386.0533.913.1067 1.58.16 1.32.12 2.273.44 2.86.96.586.5067.88 1.1867.88 2.04 0 .5867-.16 1.14-.48 1.66-.307.5333-.794.96-1.46 1.28-.654.3333-1.494.5-2.52.5-1.387 0-2.514-.2667-3.38-.8-.854-.52-1.28-1.3133-1.28-2.38 0-.4133.106-.8267.32-1.24.226-.4.58-.78 1.06-1.14-.28-.12-.527-.2467-.74-.38-.2-.1467-.38-.2933-.54-.44v-.48l1.72-1.76c-.774-.6667-1.16-1.54-1.16-2.62 0-.6533.153-1.2467.46-1.78.32-.5467.78-.98 1.38-1.3.6-.32 1.32-.48 2.16-.48.56 0 1.08.08 1.56.24h3.7v1.4l-1.76.1c.32.5467.48 1.1533.48 1.82 0 .6667-.16 1.2667-.48 1.8-.307.5333-.76.96-1.36 1.28-.587.32-1.3.48-2.14.48zm0-1.66c.613 0 1.106-.16 1.48-.48.386-.3333.58-.8.58-1.4 0-.6133-.194-1.08-.58-1.4-.374-.32-.867-.48-1.48-.48-.627 0-1.134.16-1.52.48-.374.32-.56.7867-.56 1.4 0 .6.186 1.0667.56 1.4.386.32.893.48 1.52.48zm-2.66 5.96c0 .5733.253 1 .76 1.28.506.2933 1.14.44 1.9.44.733 0 1.326-.16 1.78-.48.453-.3067.68-.72.68-1.24 0-.3867-.154-.72-.46-1-.307-.2667-.887-.4333-1.74-.5-.64-.04-1.207-.1-1.7-.18-.467.2533-.787.5267-.96.82-.174.2933-.26.58-.26.86zm9.811-1.26V67.6h2.12v6.08c.333-.5733.793-1.02 1.38-1.34.6-.3333 1.26-.5 1.98-.5 1.186 0 2.12.3733 2.8 1.12.68.7467 1.02 1.86 1.02 3.34V82h-2.1v-5.48c0-1.92-.767-2.88-2.3-2.88-.8 0-1.467.28-2 .84-.52.56-.78 1.36-.78 2.4V82h-2.12zm15.957 0c-.974 0-1.747-.2333-2.32-.7-.574-.48-.86-1.3267-.86-2.54v-4.9h-1.7v-1.78h1.7l.26-2.52h1.86v2.52h2.8v1.78h-2.8v4.9c0 .5467.113.9267.34 1.14.24.2.646.3 1.22.3h1.14V82h-1.64zm13.125 0c-.974 0-1.747-.2333-2.32-.7-.574-.48-.86-1.3267-.86-2.54v-4.9h-1.7v-1.78h1.7l.26-2.52h1.86v2.52h2.8v1.78h-2.8v4.9c0 .5467.113.9267.34 1.14.24.2.646.3 1.22.3h1.14V82h-1.64zm8.312.24c-.974 0-1.84-.2133-2.6-.64-.747-.44-1.334-1.0467-1.76-1.82-.427-.7733-.64-1.6733-.64-2.7 0-1.04.206-1.9533.62-2.74.426-.7867 1.013-1.4 1.76-1.84.76-.44 1.64-.66 2.64-.66.973 0 1.82.22 2.54.66.72.4267 1.28 1 1.68 1.72.4.72.6 1.5133.6 2.38 0 .1333-.007.28-.02.44 0 .1467-.007.3133-.02.5h-7.72c.066.96.38 1.6933.94 2.2.573.4933 1.233.74 1.98.74.6 0 1.1-.1333 1.5-.4.413-.28.72-.6533.92-1.12h2.12c-.267.9333-.8 1.7133-1.6 2.34-.787.6267-1.767.94-2.94.94zm0-8.66c-.707 0-1.334.2133-1.88.64-.547.4133-.88 1.04-1 1.88h5.6c-.04-.7733-.314-1.3867-.82-1.84-.507-.4533-1.14-.68-1.9-.68zm10.399 8.66c-.84 0-1.533-.14-2.08-.42-.546-.28-.953-.6467-1.22-1.1-.266-.4667-.4-.9733-.4-1.52 0-.96.374-1.72 1.12-2.28.747-.56 1.814-.84 3.2-.84h2.6v-.18c0-.7733-.213-1.3533-.64-1.74-.413-.3867-.953-.58-1.62-.58-.586 0-1.1.1467-1.54.44-.426.28-.686.7-.78 1.26h-2.12c.067-.72.307-1.3333.72-1.84.427-.52.96-.9133 1.6-1.18.654-.28 1.367-.42 2.14-.42 1.387 0 2.46.3667 3.22 1.1.76.72 1.14 1.7067 1.14 2.96V82h-1.84l-.18-1.7c-.28.5467-.686 1.0067-1.22 1.38-.533.3733-1.233.56-2.1.56zm.42-1.72c.574 0 1.054-.1333 1.44-.4.4-.28.707-.6467.92-1.1.227-.4533.367-.9533.42-1.5h-2.36c-.84 0-1.44.1467-1.8.44-.346.2933-.52.66-.52 1.1 0 .4533.167.8133.5 1.08.347.2533.814.38 1.4.38zm12.092 1.72c-.973 0-1.847-.22-2.62-.66-.76-.44-1.36-1.0467-1.8-1.82-.427-.7867-.64-1.6933-.64-2.72 0-1.0267.213-1.9267.64-2.7.44-.7867 1.04-1.4 1.8-1.84.773-.44 1.647-.66 2.62-.66 1.227 0 2.253.32 3.08.96.84.64 1.38 1.5067 1.62 2.6h-2.22c-.133-.5467-.427-.9733-.88-1.28s-.987-.46-1.6-.46c-.52 0-1 .1333-1.44.4-.44.2533-.793.6333-1.06 1.14-.267.4933-.4 1.1067-.4 1.84 0 .7333.133 1.3533.4 1.86.267.4933.62.8733 1.06 1.14.44.2667.92.4 1.44.4.613 0 1.147-.1533 1.6-.46.453-.3067.747-.74.88-1.3h2.22c-.227 1.0667-.76 1.9267-1.6 2.58-.84.6533-1.873.98-3.1.98zm6.999-.24V67.6h2.12v6.08c.334-.5733.794-1.02 1.38-1.34.6-.3333 1.26-.5 1.98-.5 1.187 0 2.12.3733 2.8 1.12.68.7467 1.02 1.86 1.02 3.34V82h-2.1v-5.48c0-1.92-.766-2.88-2.3-2.88-.8 0-1.466.28-2 .84-.52.56-.78 1.36-.78 2.4V82h-2.12zm16.437.24c-.973 0-1.84-.2133-2.6-.64-.746-.44-1.333-1.0467-1.76-1.82-.426-.7733-.64-1.6733-.64-2.7 0-1.04.207-1.9533.62-2.74.427-.7867 1.014-1.4 1.76-1.84.76-.44 1.64-.66 2.64-.66.974 0 1.82.22 2.54.66.72.4267 1.28 1 1.68 1.72.4.72.6 1.5133.6 2.38 0 .1333-.006.28-.02.44 0 .1467-.006.3133-.02.5h-7.72c.067.96.38 1.6933.94 2.2.574.4933 1.234.74 1.98.74.6 0 1.1-.1333 1.5-.4.414-.28.72-.6533.92-1.12h2.12c-.266.9333-.8 1.7133-1.6 2.34-.786.6267-1.766.94-2.94.94zm0-8.66c-.706 0-1.333.2133-1.88.64-.546.4133-.88 1.04-1 1.88h5.6c-.04-.7733-.313-1.3867-.82-1.84-.506-.4533-1.14-.68-1.9-.68zm7.04 8.42v-9.92h1.9l.18 1.88c.347-.6533.827-1.1667 1.44-1.54.627-.3867 1.38-.58 2.26-.58v2.22h-.58c-.587 0-1.113.1-1.58.3-.453.1867-.82.5133-1.1.98-.267.4533-.4 1.0867-.4 1.9V82h-2.12zm7.637.12c-.4 0-.734-.1267-1-.38-.254-.2667-.38-.58-.38-.94 0-.3733.126-.6867.38-.94.266-.2667.6-.4 1-.4s.726.1333.98.4c.253.2533.38.5667.38.94 0 .36-.127.6733-.38.94-.254.2533-.58.38-.98.38z" fill="#18232A"/></svg>